<svg width="228" height="281" fill="none" xmlns="http://www.w3.org/2000/svg"><path d="M90.947 160.02a3.008 3.008 0 01.907 2.15 3 3 0 01-.907 2.15v0a2.998 2.998 0 01-3.326.67 3.002 3.002 0 01-1.824-2.86 2.998 2.998 0 013-3v0c.299 0 .596.047.88.14.186.052.367.122.54.21v0l.48.33c.091.059.175.13.25.21v0zm61.819-38.77a3 3 0 01.891 2.14 3.08 3.08 0 01-.891 2.17v0a3.069 3.069 0 01-2.109.85h-.071c-.13 0-.25 0-.38-.05a2.196 2.196 0 01-.409-.09 3.012 3.012 0 01-1.121-.63c-.1-.09-.21-.2-.31-.31a3.385 3.385 0 01-.47-.74 3.404 3.404 0 01-.25-1.24 3 3 0 01.891-2.14 2.993 2.993 0 013.316-.672c.37.156.704.385.983.672l-.07.04zm.001 38.77a3.011 3.011 0 01.907 2.15 2.997 2.997 0 01-.907 2.15v0a3.063 3.063 0 01-4.021.152 3.053 3.053 0 01-.879-1.152l-.06-.16V163c0-.06-.06-.2-.08-.3a2.999 2.999 0 015.13-2.76l-.09.08z" stroke="#5FD1BE" stroke-width="1.3" stroke-linecap="round" stroke-linejoin="round"/><path d="M149.767 128.13v29.3a2.368 2.368 0 00-.29.06h-.1a2.417 2.417 0 00-.32.11 4.616 4.616 0 00-1.09.54 3.295 3.295 0 00-.32.24 4.325 4.325 0 00-.39.35 4.79 4.79 0 00-1.42 3.41 3.642 3.642 0 000 .49c.007.207.04.412.1.61l-22.12 9.78a2.4 2.4 0 00-.28-.42 2.04 2.04 0 00-.32-.38.683.683 0 00-.11-.13 2.605 2.605 0 00-.25-.22 3.633 3.633 0 00-.39-.31 5.337 5.337 0 00-.43-.27 3.716 3.716 0 00-.34-.17 4.435 4.435 0 00-1.1-.35v-33.14l26-11.51c.174.246.368.477.58.69.132.142.28.27.44.38l.29.21c.41.272.863.475 1.34.6.168.06.342.104.52.13v0zm-25-14.73l21.34 8.55c-.15.465-.224.951-.22 1.44-.002.37.039.739.12 1.1l-26.24 11.59-26.4-11.65a4.852 4.852 0 00.27-1.58 4.751 4.751 0 00-.08-.85l23-8.68c.08.14.18.28.27.41.101.134.212.261.33.38l.09.1c.211.221.446.419.7.59.131.09.268.17.41.24l.41.2.35.13.21.06.32.08h.07c.145.031.292.051.44.06h.91a4.707 4.707 0 001.87-.57c.118-.058.231-.125.34-.2a5.64 5.64 0 00.72-.58h.06c.27-.242.508-.518.71-.82z" stroke="#5FD1BE" stroke-width="1.3" stroke-linecap="round" stroke-linejoin="round"/><path d="M123.697 110.82a3.03 3.03 0 01-.25 1.19 2.583 2.583 0 01-.331.58 2.828 2.828 0 01-.319.38l-.25.22a3.944 3.944 0 01-.42.27h-.05l-.17.08a2.748 2.748 0 01-.65.2h-.57a2.06 2.06 0 01-.43 0h-.06a1.661 1.661 0 01-.32-.07h-.09a1.023 1.023 0 01-.21-.08 2.056 2.056 0 01-.31-.14.598.598 0 01-.17-.11.246.246 0 01-.111-.06.65.65 0 01-.169-.12l-.29-.25c-.1-.1-.19-.21-.28-.32l-.17-.25a.48.48 0 01-.06-.13 1.993 1.993 0 01-.14-.3 2.895 2.895 0 01-.23-1.15 3 3 0 01.89-2.14 3.043 3.043 0 013.31-.657 3.046 3.046 0 011.889 2.797l-.039.06zm-1.11 63.68c.113.322.174.659.18 1a3.077 3.077 0 01-.89 2.16v0a2.942 2.942 0 01-1.73.83h-.77a3.15 3.15 0 01-1.77-.86 3.068 3.068 0 01-.89-2.16c.003-.297.043-.593.12-.88a.555.555 0 00.08-.15c.104-.294.252-.571.44-.82.1-.13.21-.24.31-.35.109-.105.226-.202.35-.29v0c.12-.086.247-.163.38-.23v0l.39-.15c.133-.044.27-.077.41-.1h.06c.132-.015.267-.015.4 0h.11c.185 0 .369.02.55.06.109.016.216.043.32.08.12.029.237.07.35.12l.16.08c.115.061.226.131.33.21l.19.14a.405.405 0 01.1.08c.037.042.077.083.12.12.088.089.172.182.25.28v.05c.069.089.132.183.19.28.037.061.07.125.1.19.047.078.084.162.11.25l.05.06zm-3.75-36.86v33.15c-.167.03-.331.074-.49.13a2.37 2.37 0 00-.44.17v0a4.408 4.408 0 00-1.53 1 .683.683 0 00-.11.13 3.372 3.372 0 00-.61.8l-22.11-9.78v-.15a5.14 5.14 0 00.1-.95 4.859 4.859 0 00-1.41-3.41 4.768 4.768 0 00-1.55-1 4.073 4.073 0 00-.49-.18 1.82 1.82 0 00-.34-.09h-.14v-29.3a4.647 4.647 0 001.74-.69 4.825 4.825 0 001.34-1.32l26.04 11.49zm-27.2-15.9c.133.348.201.717.2 1.09a2.996 2.996 0 01-.89 2.14v0a3 3 0 01-2.12.85 2.994 2.994 0 01-2.873-1.85 3 3 0 01.723-3.34 3.05 3.05 0 014.31 0c.292.32.514.698.65 1.11v0z" stroke="#5FD1BE" stroke-width="1.3" stroke-linecap="round" stroke-linejoin="round"/><path d="M165.917 274.013h-38.301a.617.617 0 01-.616-.616v-66.781a.616.616 0 01.616-.616h36.026a.598.598 0 01.436.18l18.013 18.013a.625.625 0 01.18.436v32.177a.625.625 0 01-.275.512.615.615 0 01-.588.047 11.364 11.364 0 00-4.474-.9 11.626 11.626 0 00-8.216 3.407 11.626 11.626 0 00-3.407 8.216 11.443 11.443 0 001.071 4.873c.088.11.135.247.133.388a.62.62 0 01-.356.607.613.613 0 01-.242.057zm-37.685-1.233h36.737a12.853 12.853 0 012.699-13.547 12.856 12.856 0 0113.418-3.28v-31.02l-17.7-17.701h-35.078l-.076 65.548z" fill="#5FD1BE"/><path d="M182.11 225.748h-18.089a.613.613 0 01-.435-.181.613.613 0 01-.181-.435v-18.013a.609.609 0 01.737-.618c.121.027.231.09.315.182l18.013 18.013a.593.593 0 01.285.511.625.625 0 01-.645.541zm-17.454-1.233h15.956l-15.956-15.955v15.955zm-9.888-9.347h-18.856a.614.614 0 01-.436-.181.613.613 0 010-.871.614.614 0 01.436-.181h18.856a.615.615 0 110 1.233zm5.338 7.973h-24.194a.614.614 0 01-.436-.181.614.614 0 010-.871.614.614 0 01.436-.181h24.194a.617.617 0 010 1.233zm11.13 24.943h-35.324a.614.614 0 01-.436-.181.613.613 0 010-.871.614.614 0 01.436-.181h35.324a.617.617 0 010 1.233zm0-7.651h-35.324a.617.617 0 110-1.232h35.324a.619.619 0 01.436 1.052.62.62 0 01-.436.18zm0-7.982h-35.324a.614.614 0 01-.436-.181.614.614 0 010-.871.614.614 0 01.436-.181h35.324a.617.617 0 010 1.233zM176.915 281a12.863 12.863 0 01-2.523-25.482 12.868 12.868 0 0113.209 5.469 12.854 12.854 0 01-1.598 16.239 12.874 12.874 0 01-9.088 3.774zm0-24.488a11.632 11.632 0 10-.02 23.264 11.632 11.632 0 00.02-23.264z" fill="#5FD1BE"/><path d="M175.749 270.211a.659.659 0 01-.266-.057l-3.982-1.896a.616.616 0 01-.293-.815.589.589 0 01.349-.323.616.616 0 01.475.029l3.717 1.754 6.058-2.797a.629.629 0 01.472-.02.611.611 0 01.368.791.606.606 0 01-.319.348l-6.323 2.91a.58.58 0 01-.256.076zM178.01 79.18h-26a8.94 8.94 0 01-8.92-8.93V37.81a.659.659 0 01.65-.66h44.36a.66.66 0 01.65.66v30.62a10.763 10.763 0 01-10.74 10.75zM144.4 38.46v31.79a7.633 7.633 0 007.62 7.63h26a9.457 9.457 0 009.45-9.45v-30l-43.07.03z" fill="#5FD1BE"/><path d="M167.63 63.12h-23.84a.648.648 0 01-.65-.65V51.54a.663.663 0 01.65-.65h23.84a.66.66 0 01.65.65v10.93a.659.659 0 01-.65.65zm-23.19-1.3h22.57V52.2h-22.57v9.62zm47.85-23.36h-52.64a.66.66 0 01-.65-.65V26.88a.653.653 0 01.65-.65h52.64a.652.652 0 01.65.65v10.93a.663.663 0 01-.65.65zm-52-1.31h51.34v-9.62H140.3l-.01 9.62z" fill="#5FD1BE"/><path d="M176.23 31.32h-36.58a.652.652 0 01-.46-1.11.652.652 0 01.46-.19h36.58a.652.652 0 01.46 1.11.652.652 0 01-.46.19zm8.33-3.79h-9.93a.652.652 0 01-.65-.65v-16a.587.587 0 01.07-.29l5-10.22a.652.652 0 01.934-.27c.103.066.185.16.236.27l5 10.22c.04.091.06.19.06.29v16a.642.642 0 01-.214.486.653.653 0 01-.506.164zm-9.28-1.3h8.63V11.04l-4.31-8.89-4.32 8.89v15.19z" fill="#5FD1BE"/><path d="M179.74 12.96a.66.66 0 01-.38-.12l-1.56-1.13-.92.8a.65.65 0 01-.76.07l-1.94-1.16a.66.66 0 01-.22-.89.643.643 0 01.89-.22l1.53.91 1-.82a.63.63 0 01.8 0l1.53 1.1 1-1a.682.682 0 01.92 0l1 1 1.52-1.1a.652.652 0 011.024.631.646.646 0 01-.264.42l-2 1.43a.67.67 0 01-.84-.071l-1-1-1 1a.676.676 0 01-.33.15zm-9.61 14.57h-11.25a.66.66 0 01-.66-.65V5.18a.66.66 0 01.66-.65h11.25a.652.652 0 01.65.65v21.7a.652.652 0 01-.65.65zm-10.6-1.3h10V5.83h-10v20.4z" fill="#5FD1BE"/><path d="M163.92 10.22h-5a.652.652 0 01-.46-1.11.652.652 0 01.46-.19h5a.652.652 0 01.46 1.11.652.652 0 01-.46.19zm0 4.01h-5a.657.657 0 01-.683-.384.666.666 0 010-.542.669.669 0 01.407-.36.659.659 0 01.276-.024h5a.659.659 0 01.683.926.67.67 0 01-.407.36.657.657 0 01-.276.024zm0 3.89h-5a.652.652 0 01-.46-1.11.652.652 0 01.46-.19h5a.652.652 0 01.46 1.11.652.652 0 01-.46.19zm-12.91-.29a2.88 2.88 0 01-2-.89.225.225 0 01-.07-.06c-1.4-1.4-2.16-4-2.16-7.36a5.15 5.15 0 011.94-3.62 7.147 7.147 0 002.42-4.07.655.655 0 01.46-.53.639.639 0 01.67.21 11.994 11.994 0 011.82 2.83 12.21 12.21 0 011.13 5.17c0 3.34-.76 5.95-2.15 7.35a2.901 2.901 0 01-2.06.97zm-1.16-1.89l.06.05a1.421 1.421 0 002.22 0c1.12-1.14 1.76-3.48 1.76-6.42a10.992 10.992 0 00-1-4.63 11.633 11.633 0 00-.84-1.49 9.466 9.466 0 01-2.42 3.42c-.85.86-1.57 1.61-1.57 2.71-.05 2.88.63 5.22 1.75 6.36h.04z" fill="#5FD1BE"/><path d="M153.57 21.04h-5.19a.652.652 0 01-.65-.65v-2a3.244 3.244 0 011.06-2.39.65.65 0 01.82 0 2.21 2.21 0 002.73 0 .65.65 0 01.82 0c.256.24.475.516.65.82.267.48.408 1.02.41 1.57v2a.663.663 0 01-.65.65zm-4.54-1.3h3.89v-1.42c0-.325-.083-.645-.24-.93l-.08-.13a3.52 3.52 0 01-3.25 0s0 .09-.08.14c-.158.28-.241.598-.24.92v1.42z" fill="#5FD1BE"/><path d="M153.51 27.53h-5.07a.66.66 0 01-.65-.65v-6.49a.653.653 0 01.65-.65h5.19a.652.652 0 01.65.65v6.5a.64.64 0 01-.77.64zm-4.42-1.3h3.78v-5.19h-3.86v2.45c.06 1.03.07 2.07.08 2.74zM163.92 22h-5a.652.652 0 01-.46-1.11.652.652 0 01.46-.19h5a.652.652 0 01.46 1.11.652.652 0 01-.46.19zM48.014 83.58a.608.608 0 01-.586-.462.6.6 0 01.015-.33l6.544-18.915a.562.562 0 01.139-.221l43.95-43.95a.609.609 0 01.424-.176.61.61 0 01.424.176l12.361 12.37c.056.055.102.12.133.194a.606.606 0 010 .46.605.605 0 01-.133.194L67.344 76.85a.554.554 0 01-.23.148l-18.906 6.544a.48.48 0 01-.194.037zm7.061-19.182l-6.093 17.615 17.661-6.102 43.416-43.415-11.513-11.522-43.47 43.424z" fill="#5FD1BE"/><path d="M48.014 83.58a.608.608 0 01-.586-.462.6.6 0 01.015-.33l1.843-5.384a.608.608 0 01.37-.368.655.655 0 01.525.055c.738.476 1.424 1.03 2.046 1.65.625.621 1.178 1.31 1.65 2.055a.6.6 0 01.064.517.609.609 0 01-.368.368l-5.384 1.844a.48.48 0 01-.175.055zm2.166-5.042l-1.198 3.475 3.466-1.207a11.061 11.061 0 00-2.267-2.267zm16.86-1.346a.6.6 0 01-.58-.451l-.867-3.42-2.618-.194a.599.599 0 01-.544-.497l-.608-3.687H58.78a.6.6 0 01-.6-.6v-3.041l-3.686-.6a.608.608 0 01-.498-.69.61.61 0 01.691-.499l4.222.682a.599.599 0 01.507.59v2.96h2.95a.6.6 0 01.59.506l.617 3.752 2.572.193a.59.59 0 01.534.443l.977 3.844a.6.6 0 01-.433.728l-.184-.019z" fill="#5FD1BE"/><path d="M58.348 65.246a.6.6 0 01-.424-.175.608.608 0 010-.848l42.355-42.401a.6.6 0 11.848.848L58.726 65.025a.57.57 0 01-.378.221zm3.539 4.001a.627.627 0 01-.424-.175.609.609 0 010-.849l42.402-42.751a.587.587 0 01.424-.176.602.602 0 01.424.176c.056.055.102.12.133.194a.605.605 0 010 .46.605.605 0 01-.133.194L62.311 69.072a.6.6 0 01-.424.175zm3.383 4.36a.6.6 0 01-.424-.175.609.609 0 010-.848l43.056-43.038a.6.6 0 11.848.848L65.722 73.432a.58.58 0 01-.452.175z" fill="#5FD1BE"/><path d="M110.888 33.095a.645.645 0 01-.424-.175L98.076 20.55a.608.608 0 010-.849l3.207-3.207a5.163 5.163 0 017.264 0l5.955 5.945a5.165 5.165 0 010 7.273l-3.217 3.208a.628.628 0 01-.397.175zm-11.513-12.97l11.513 11.523 2.766-2.766a3.967 3.967 0 000-5.53l-5.955-5.946a3.963 3.963 0 00-5.531 0l-2.793 2.72zm-.47 64.377h-6.203a.599.599 0 110-1.198h6.203a.6.6 0 110 1.198zm-11.2 0H43.6a.599.599 0 110-1.198h44.042a.6.6 0 110 1.198h.065z" fill="#5FD1BE"/><path d="M90.158 87a3.107 3.107 0 112.87-1.91 3.097 3.097 0 01-2.87 1.91zm0-5.005a1.908 1.908 0 101.908 1.908 1.9 1.9 0 00-1.908-1.908zM34.18 150.799h-7.45a.659.659 0 01-.65-.65v-23.56a4.376 4.376 0 012.65-4.235 4.37 4.37 0 013.45 0 4.376 4.376 0 012.65 4.235v23.56a.65.65 0 01-.65.65zm-6.79-1.3h6.14v-22.91a3.075 3.075 0 00-.9-2.171 3.065 3.065 0 00-2.17-.899 3.076 3.076 0 00-2.836 1.895 3.073 3.073 0 00-.234 1.175v22.91zm2.93 44.62a.655.655 0 01-.54-.29l-10.93-16.71a.617.617 0 01-.07-.56l7.42-21.75a.65.65 0 01.62-.44h7.28a.631.631 0 01.61.44l7.43 21.76a.64.64 0 01-.07.57l-11.21 16.69a.676.676 0 01-.54.29zm-10.21-17.44l10.21 15.62 10.49-15.62-7.18-21h-6.35l-7.17 21z" fill="#5FD1BE"/><path d="M37.03 155.669H23.89a.65.65 0 01-.65-.65v-4.87a.65.65 0 01.65-.65h13.14a.65.65 0 01.65.65v4.87a.65.65 0 01-.65.65zm-12.49-1.3h11.84v-3.57H24.54v3.57zm5.94 21.54a4.16 4.16 0 114.16-4.16 4.17 4.17 0 01-4.16 4.16zm0-7a2.862 2.862 0 00-2.022 4.883 2.858 2.858 0 004.882-2.023 2.858 2.858 0 00-2.86-2.88v.02z" fill="#5FD1BE"/><path d="M30.32 194.119a.65.65 0 01-.65-.65l.15-18.23a.651.651 0 011.3.01l-.15 18.27a.66.66 0 01-.65.6z" fill="#5FD1BE"/><path d="M36.22 201.379H24.7a.65.65 0 01-.65-.65v-6.5a.65.65 0 01.65-.65h11.52a.65.65 0 01.65.65v6.5a.65.65 0 01-.65.65zm-10.87-1.3h10.22v-5.2H25.35v5.2zm34.84-.3h-5.83a.658.658 0 01-.66-.65v-3.3a.66.66 0 01.66-.65h5.83a.65.65 0 01.65.65v3.3a.65.65 0 01-.65.65zm-5.18-1.3h4.53v-2h-4.53v2z" fill="#5FD1BE"/><path d="M54.36 198.129H36.22a.65.65 0 110-1.3h18.14a.644.644 0 01.46.191.645.645 0 01.14.708.645.645 0 01-.6.401zm-47.88 1.65H.65a.65.65 0 01-.65-.65v-3.3a.65.65 0 01.65-.65h5.83a.65.65 0 01.65.65v3.3a.65.65 0 01-.65.65zm-5.18-1.3h4.53v-2H1.3v2z" fill="#5FD1BE"/><path d="M24.66 198.129H6.48a.65.65 0 110-1.3h18.14a.644.644 0 01.46.191.647.647 0 01.14.708.647.647 0 01-.6.401h.04z" fill="#5FD1BE"/><path d="M243.259 106.015c.12.07 0 .78-.37 2.11-1 3.59-4.06 10.5-9.58 20.51l-4.67-2.69c5.92-9.79 10.36-15.92 13-18.56.94-.97 1.5-1.43 1.62-1.37zm-2.2 41.98c3.68 7 3.24 8.85 1.62 15.51l-.48 2a38.2 38.2 0 01-2.43 7.58 12.009 12.009 0 01-4.95 5.59 19.151 19.151 0 01-6.94 1.29 26.22 26.22 0 00-7.78 1.32l-.35.13a48.714 48.714 0 01-8.18 2.45c-6.56.47-10.17-3.32-14-7.33a46.976 46.976 0 00-5.47-5.14c-3.52-2.78-5.62-5.15-6.53-7.83-.91-2.68-.62-5.76.6-10a32.638 32.638 0 001.22-9c.12-4.65.22-8.06 7.56-14 3.23-2.63 7.89-6.42 12-5.69l.83.15c1.22.28 2.1.54 2.88.78 1.917.619 3.908.982 5.92 1.08 1.13.08 2.42.1 3.77.14a49.96 49.96 0 017.14.64h.08l-1.45 2.44-1.08 1.86a2.657 2.657 0 00-.36 1.33 3.01 3.01 0 00.12.89c.269-.03.541-.03.81 0a3.152 3.152 0 00-.64.11h-.06c-1.63.44-3.62 2.1-5.47 5.29a12.338 12.338 0 00-1.61 5.08c-.1 1.132-.05 2.271.15 3.39a8.085 8.085 0 014.74-2.69c1.34-.39 2.58-.74 3.3-2 1.85-3.19 2.29-5.76 1.86-7.39a.273.273 0 010-.07 3.06 3.06 0 00-.18-.49c.134.189.251.39.35.6a2.48 2.48 0 00.83-.34 2.652 2.652 0 001-1c.38-.64.73-1.26 1.08-1.88.35-.62 1.44-2.57 2.06-3.66.35.28 1.5 1.31 1.81 1.65a7.71 7.71 0 011.23 1.89 34.438 34.438 0 012 6.43 36.585 36.585 0 003 8.74v.15zm-7.38 16.9c1.41-1.12 2.49-2.56 2.49-3.87a2.874 2.874 0 00-1.57-2.82 7.319 7.319 0 00-3.22-.54 7.724 7.724 0 00-3.28.54 2.828 2.828 0 00-1.65 2.82v2.36c0 1.95.35 3.63 2.5 3.63a8.867 8.867 0 004.73-2.12v0zm-12.36 7.17c1.39-1.12 2.48-2.57 2.48-3.87a2.839 2.839 0 00-1.57-2.81 7.187 7.187 0 00-3.22-.54 7.706 7.706 0 00-3.28.53 2.835 2.835 0 00-1.66 2.82v2.33c0 2 .35 3.63 2.5 3.63a8.851 8.851 0 004.75-2.09v0zm-14.36-29c1.39-1.12 2.48-2.56 2.48-3.88a2.87 2.87 0 00-1.57-2.81 7.319 7.319 0 00-3.22-.54 7.724 7.724 0 00-3.28.54 2.84 2.84 0 00-1.66 2.81v2.37c0 2 .35 3.63 2.5 3.63a8.853 8.853 0 004.75-2.14v.02zm-.17 26.16c1.41-1.13 2.48-2.57 2.48-3.89a2.83 2.83 0 00-1.56-2.8 7.347 7.347 0 00-3.22-.54 7.739 7.739 0 00-3.29.54 2.826 2.826 0 00-1.65 2.8v2.36c0 2 .36 3.63 2.51 3.63a8.852 8.852 0 004.73-2.12v.02zm-5.2-13.45c1.41-1.12 2.49-2.56 2.49-3.89a2.826 2.826 0 00-1.57-2.79 7.204 7.204 0 00-3.22-.54 7.706 7.706 0 00-3.28.53 2.815 2.815 0 00-1.65 2.8v2.36c0 2 .35 3.64 2.5 3.64a8.873 8.873 0 004.73-2.13v.02z" stroke="#5FD1BE" stroke-width="1.3" stroke-linecap="round" stroke-linejoin="round"/><path d="M236.169 161.025c0 1.31-1.08 2.75-2.49 3.87a8.877 8.877 0 01-4.8 2.12c-2.15 0-2.5-1.68-2.5-3.63v-2.36a2.835 2.835 0 011.65-2.82 7.727 7.727 0 013.28-.54c1.1-.065 2.201.12 3.22.54a2.87 2.87 0 011.64 2.82v0zm-7.53-35.08l4.67 2.69-.32.58-5.38-1.55c.46-.76.88-1.47 1.03-1.72z" stroke="#5FD1BE" stroke-width="1.3" stroke-linecap="round" stroke-linejoin="round"/><path d="M227.609 127.665l5.38 1.53c-.62 1.09-1.79 3.17-2.06 3.66l-4.77-2.75 1.45-2.44zm-1.45 2.46l4.77 2.75c-.35.62-.7 1.24-1.08 1.88a2.652 2.652 0 01-1 1 2.48 2.48 0 01-.83.34 3.948 3.948 0 00-.35-.6 2.18 2.18 0 00-.85-1 2.148 2.148 0 00-1.2-.25v0a3.656 3.656 0 00-.81 0 2.978 2.978 0 01-.12-.89c.001-.468.125-.926.36-1.33l1.11-1.9z" stroke="#5FD1BE" stroke-width="1.3" stroke-linecap="round" stroke-linejoin="round"/><path d="M227.919 136.015c.43 1.63 0 4.2-1.86 7.39-.72 1.25-2 1.6-3.3 2a8.085 8.085 0 00-4.74 2.69c-.2-1.118-.25-2.258-.15-3.39a12.34 12.34 0 011.62-5.04c1.85-3.19 3.84-4.85 5.47-5.29h.06c.209-.058.423-.095.64-.11a2.943 2.943 0 012.05 1.23s0 0 0 0c.074.158.134.322.18.49a.213.213 0 00.03.03v0z" stroke="#5FD1BE" stroke-width="1.3" stroke-linecap="round" stroke-linejoin="round"/><path d="M227.709 135.435a2.95 2.95 0 00-2.05-1.23c.416-.035.833.052 1.2.25.376.233.673.574.85.98v0zm-3.91 32.76c0 1.3-1.09 2.75-2.48 3.87a8.853 8.853 0 01-4.81 2.12c-2.15 0-2.5-1.68-2.5-3.63v-2.33a2.84 2.84 0 011.66-2.82 7.706 7.706 0 013.28-.53 7.187 7.187 0 013.22.54 2.842 2.842 0 011.63 2.78zm-14.31-29.03c0 1.32-1.09 2.76-2.48 3.88a8.853 8.853 0 01-4.81 2.12c-2.15 0-2.5-1.68-2.5-3.63v-2.37a2.837 2.837 0 011.66-2.81 7.709 7.709 0 013.28-.54c1.1-.065 2.201.12 3.22.54a2.867 2.867 0 011.63 2.81v0zm-.22 26.15c0 1.32-1.07 2.76-2.48 3.89a8.856 8.856 0 01-4.8 2.11c-2.15 0-2.51-1.67-2.51-3.63v-2.36a2.833 2.833 0 011.65-2.8 7.739 7.739 0 013.29-.54 7.347 7.347 0 013.22.54 2.824 2.824 0 011.63 2.79v0zm-5.19-13.45c0 1.33-1.08 2.77-2.49 3.89a8.88 8.88 0 01-4.8 2.12c-2.15 0-2.5-1.67-2.5-3.64v-2.36a2.815 2.815 0 011.65-2.8 7.706 7.706 0 013.28-.53 7.204 7.204 0 013.22.54 2.828 2.828 0 011.64 2.78v0z" stroke="#5FD1BE" stroke-width="1.3" stroke-linecap="round" stroke-linejoin="round"/><path d="M199.289 148.535a7.204 7.204 0 013.22.54 2.824 2.824 0 011.57 2.79c0 1.33-1.08 2.77-2.49 3.89a8.88 8.88 0 01-4.8 2.12c-2.15 0-2.5-1.67-2.5-3.64v-2.36a2.815 2.815 0 011.65-2.8 7.704 7.704 0 013.35-.54zm8.58-12.18a2.863 2.863 0 011.62 2.81c0 1.32-1.09 2.76-2.48 3.88a8.853 8.853 0 01-4.81 2.12c-2.15 0-2.5-1.68-2.5-3.63v-2.37a2.837 2.837 0 011.66-2.81 7.709 7.709 0 013.28-.54 7.317 7.317 0 013.23.54zm-3.38 25.62a7.347 7.347 0 013.22.54 2.83 2.83 0 011.56 2.8c0 1.32-1.07 2.76-2.48 3.89a8.849 8.849 0 01-4.8 2.11c-2.15 0-2.51-1.67-2.51-3.63v-2.36a2.833 2.833 0 011.65-2.8 7.736 7.736 0 013.36-.55zm14.52 2.87a7.174 7.174 0 013.22.54 2.842 2.842 0 011.57 2.81c0 1.3-1.09 2.75-2.48 3.87a8.853 8.853 0 01-4.81 2.12c-2.15 0-2.5-1.68-2.5-3.63v-2.33a2.84 2.84 0 011.66-2.82 7.711 7.711 0 013.34-.56zm12.37-7.18c1.1-.065 2.201.12 3.22.54a2.868 2.868 0 011.57 2.82c0 1.31-1.08 2.75-2.49 3.87a8.877 8.877 0 01-4.8 2.12c-2.15 0-2.5-1.68-2.5-3.63v-2.36a2.835 2.835 0 011.65-2.82 7.719 7.719 0 013.35-.54v0z" stroke="#5FD1BE" stroke-width="1.3" stroke-linecap="round" stroke-linejoin="round"/><path d="M227.489 127.665a49.925 49.925 0 00-7.18-.64c-1.35 0-2.64-.06-3.77-.14a22.892 22.892 0 01-5.92-1.08c-.78-.24-1.66-.5-2.88-.78l-.83-.15c-4.14-.73-8.8 3.06-12 5.69-7.34 6-7.44 9.39-7.56 14a32.638 32.638 0 01-1.22 9c-1.22 4.21-1.5 7.29-.6 10s3 5 6.53 7.83a46.976 46.976 0 015.47 5.14c3.86 4 7.47 7.8 14 7.33a48.714 48.714 0 008.18-2.45l.35-.13a26.22 26.22 0 017.78-1.32 19.151 19.151 0 006.94-1.29 12.009 12.009 0 004.95-5.59 38.2 38.2 0 002.43-7.58l.48-2c1.62-6.66 2.06-8.46-1.62-15.51v-.07a36.63 36.63 0 01-3-8.74 34.438 34.438 0 00-2-6.43 7.68 7.68 0 00-1.23-1.89c-.31-.34-1.46-1.37-1.81-1.65" stroke="#5FD1BE" stroke-width="1.3" stroke-linecap="round" stroke-linejoin="round"/><path d="M225.649 134.205a3.152 3.152 0 00-.64.11h-.06c-1.63.44-3.62 2.1-5.47 5.29a12.338 12.338 0 00-1.61 5.08c-.1 1.132-.05 2.271.15 3.39a8.085 8.085 0 014.74-2.69c1.34-.39 2.58-.74 3.3-2 1.85-3.19 2.29-5.76 1.86-7.39a.273.273 0 010-.07 3.06 3.06 0 00-.18-.49" stroke="#5FD1BE" stroke-width="1.3" stroke-linecap="round" stroke-linejoin="round"/><path d="M226.159 130.125l-1.08 1.86a2.657 2.657 0 00-.36 1.33c-.005.301.035.601.12.89.269-.03.541-.03.81 0a2.943 2.943 0 012.05 1.23s0 0 0 0c.134.189.251.39.35.6a2.48 2.48 0 00.83-.34 2.652 2.652 0 001-1c.38-.64.73-1.26 1.08-1.88" stroke="#5FD1BE" stroke-width="1.3" stroke-linecap="round" stroke-linejoin="round"/><path d="M228.639 125.945c-.14.25-.57 1-1 1.74l-1.45 2.44 4.77 2.75c.27-.49 1.44-2.57 2.06-3.66l.32-.58" stroke="#5FD1BE" stroke-width="1.3" stroke-linecap="round" stroke-linejoin="round"/><path d="M228.639 125.945l4.67 2.69c5.52-10 8.61-16.92 9.58-20.51.37-1.33.49-2 .37-2.11-.12-.11-.68.4-1.64 1.37-2.62 2.64-7.06 8.77-12.98 18.56z" stroke="#5FD1BE" stroke-width="1.3" stroke-linecap="round" stroke-linejoin="round"/></svg>