<svg width="86" height="111" fill="none" xmlns="http://www.w3.org/2000/svg"><path d="M35.926 63.21a1.185 1.185 0 010 1.7v0a1.186 1.186 0 01-2.035-.866 1.185 1.185 0 011.185-1.185v0c.118 0 .236.019.348.056.074.02.145.048.213.083v0l.19.13a.49.49 0 01.099.083v0zm24.42-15.314a1.184 1.184 0 01.351.845c0 .321-.126.63-.352.858v0a1.213 1.213 0 01-.833.335h-.028c-.051 0-.098 0-.15-.02a1.186 1.186 0 01-.727-.407 1.31 1.31 0 01-.185-.292 1.34 1.34 0 01-.099-.49 1.186 1.186 0 01.352-.845 1.184 1.184 0 011.698 0l-.027.016zm0 15.314a1.186 1.186 0 010 1.7v0a1.209 1.209 0 01-1.936-.396l-.024-.063v-.063c0-.024-.023-.08-.031-.119a1.185 1.185 0 012.026-1.09l-.035.032z" stroke="#5FD1BE" stroke-width=".5" stroke-linecap="round" stroke-linejoin="round"/><path d="M59.16 50.614v11.574a.969.969 0 00-.114.023h-.04a.972.972 0 00-.126.044 1.823 1.823 0 00-.71.446 1.888 1.888 0 00-.562 1.347 1.57 1.57 0 000 .194.957.957 0 00.04.24l-8.738 3.864a.93.93 0 00-.11-.166.79.79 0 00-.127-.15.27.27 0 00-.044-.051.97.97 0 00-.098-.087 1.387 1.387 0 00-.154-.123 2.03 2.03 0 00-.305-.174 1.744 1.744 0 00-.434-.138v-13.09l10.27-4.547c.07.097.146.188.23.272.052.056.11.107.173.15l.115.083c.162.108.34.188.53.237a1.1 1.1 0 00.205.052v0zm-9.875-5.819l8.43 3.377a1.954 1.954 0 00-.04 1.003l-10.365 4.58-10.428-4.602a1.854 1.854 0 00.075-.96l9.085-3.429c.032.056.071.111.107.162.04.053.083.103.13.15l.036.04a1.702 1.702 0 00.438.328l.162.079.138.051.083.024.127.032h.027c.058.012.116.02.174.023h.36c.259-.022.51-.099.738-.225a1.13 1.13 0 00.135-.079c.1-.069.195-.145.284-.23h.024c.106-.095.2-.204.28-.323z" stroke="#5FD1BE" stroke-width=".5" stroke-linecap="round" stroke-linejoin="round"/><path d="M48.862 43.776a1.185 1.185 0 01-.229.699c-.037.054-.08.104-.126.15l-.099.087a1.38 1.38 0 01-.166.107h-.02l-.067.031a1.079 1.079 0 01-.257.08h-.225a.832.832 0 01-.17 0h-.023a.651.651 0 01-.127-.028h-.035a.386.386 0 01-.083-.032.83.83 0 01-.19-.099.095.095 0 01-.043-.023.263.263 0 01-.067-.048l-.115-.099a1.459 1.459 0 01-.11-.126l-.068-.099a.208.208 0 01-.023-.051.813.813 0 01-.056-.119 1.184 1.184 0 01.26-1.3 1.205 1.205 0 012.055.846l-.016.024zm-.438 25.154c.044.128.069.26.07.396 0 .32-.126.626-.35.853v0a1.162 1.162 0 01-.684.328h-.304a1.244 1.244 0 01-.7-.34 1.213 1.213 0 01-.351-.853 1.41 1.41 0 01.047-.348.211.211 0 00.032-.06c.041-.115.1-.225.174-.323.04-.051.083-.095.122-.138.044-.042.09-.08.139-.115v0c.047-.034.097-.064.15-.09v0l.154-.06c.053-.017.107-.03.162-.04h.023a.696.696 0 01.158 0h.044c.073 0 .146.008.217.024a.66.66 0 01.126.032.812.812 0 01.139.047l.063.032a.91.91 0 01.13.083l.075.055a.153.153 0 01.04.032 1.31 1.31 0 01.146.158v.02a1.102 1.102 0 01.158.284l.02.024zm-1.481-14.56v13.095a1.28 1.28 0 00-.194.051.933.933 0 00-.174.068 1.747 1.747 0 00-.604.395.27.27 0 00-.044.051c-.095.093-.176.2-.24.316l-8.734-3.863v-.06a2.14 2.14 0 00.04-.375 1.92 1.92 0 00-.558-1.347 1.888 1.888 0 00-.612-.395 1.625 1.625 0 00-.194-.07.751.751 0 00-.134-.036h-.055V50.624a1.82 1.82 0 00.687-.272c.21-.137.389-.315.53-.522l10.286 4.54zm-10.745-6.28c.053.137.08.283.079.43a1.186 1.186 0 01-.352.845v0a1.185 1.185 0 01-.837.336 1.185 1.185 0 01-.85-2.05 1.205 1.205 0 011.703 0c.116.126.203.276.257.438v0z" stroke="#5FD1BE" stroke-width=".5" stroke-linecap="round" stroke-linejoin="round"/><path d="M65.54 108.24H50.41a.245.245 0 01-.243-.243v-26.38a.243.243 0 01.244-.243h14.23a.239.239 0 01.173.07l7.115 7.116a.243.243 0 01.071.172v12.711a.245.245 0 01-.222.241.253.253 0 01-.119-.02 4.491 4.491 0 00-1.767-.356 4.594 4.594 0 00-4.168 6.516.241.241 0 01.052.154.241.241 0 01-.062.181.24.24 0 01-.174.081zm-14.886-.487h14.512a5.078 5.078 0 016.366-6.647V88.852L64.54 81.86H50.684l-.03 25.893z" fill="#5FD1BE"/><path d="M71.937 89.174H64.79a.244.244 0 01-.243-.243v-7.115a.24.24 0 01.415-.173l7.116 7.116a.236.236 0 01.112.202.248.248 0 01-.254.213zm-6.895-.486h6.303l-6.303-6.303v6.303zm-3.906-3.693h-7.449a.243.243 0 110-.487h7.45a.243.243 0 110 .487zm2.109 3.15h-9.557a.243.243 0 010-.487h9.557a.243.243 0 010 .487zm4.396 9.853H53.687a.243.243 0 010-.487h13.954a.243.243 0 010 .487zm0-3.023H53.687a.243.243 0 010-.486h13.954a.243.243 0 010 .486zm0-3.153H53.687a.243.243 0 010-.487h13.954a.243.243 0 010 .487zM69.885 111a5.08 5.08 0 01-4.989-6.071A5.082 5.082 0 1169.885 111zm0-9.673a4.59 4.59 0 00-4.249 2.835 4.592 4.592 0 00.996 5.009 4.593 4.593 0 007.844-3.253 4.593 4.593 0 00-4.591-4.591z" fill="#5FD1BE"/><path d="M69.424 106.738a.27.27 0 01-.105-.022l-1.573-.749a.243.243 0 01-.06-.4.243.243 0 01.177-.063c.032.002.064.01.093.025l1.468.692 2.393-1.104a.23.23 0 01.092-.023.25.25 0 01.175.064.25.25 0 01.08.169.246.246 0 01-.141.232l-2.498 1.149a.226.226 0 01-.101.03zm.893-75.461h-10.27a3.532 3.532 0 01-3.524-3.527V14.936a.26.26 0 01.257-.261h17.523a.26.26 0 01.257.26v12.096a4.25 4.25 0 01-4.243 4.247zM57.041 15.192V27.75a3.014 3.014 0 003.01 3.014h10.27a3.737 3.737 0 003.733-3.733v-11.85l-17.013.011z" fill="#5FD1BE"/><path d="M66.217 24.933H56.8a.257.257 0 01-.257-.256v-4.318a.261.261 0 01.257-.257h9.417a.26.26 0 01.257.257v4.318a.26.26 0 01-.257.256zm-9.16-.513h8.915v-3.8h-8.915v3.8zm18.901-9.227H55.164a.26.26 0 01-.257-.257v-4.318a.257.257 0 01.257-.257h20.794a.257.257 0 01.257.257v4.318a.26.26 0 01-.257.257zm-20.541-.518h20.28v-3.8H55.421l-.004 3.8z" fill="#5FD1BE"/><path d="M69.614 12.372h-14.45a.256.256 0 110-.514h14.45a.257.257 0 010 .514zm3.29-1.497h-3.922a.257.257 0 01-.257-.257v-6.32c0-.04.009-.08.028-.115L70.728.146a.257.257 0 01.462 0l1.975 4.037a.282.282 0 01.024.115v6.32a.257.257 0 01-.285.257zm-3.665-.514h3.409v-6L70.945.849 69.24 4.361v6z" fill="#5FD1BE"/><path d="M71 5.12a.26.26 0 01-.15-.048l-.616-.446-.363.316a.257.257 0 01-.3.027l-.767-.458a.261.261 0 01-.087-.351.254.254 0 01.352-.087l.604.36.395-.325a.249.249 0 01.316 0l.605.435.395-.395a.268.268 0 01.363 0l.395.395.6-.435a.258.258 0 01.405.25.252.252 0 01-.104.165l-.79.565a.265.265 0 01-.332-.028l-.395-.395-.395.395a.269.269 0 01-.13.06zm-3.796 5.755h-4.443a.26.26 0 01-.261-.257V2.046a.26.26 0 01.26-.257h4.444a.257.257 0 01.257.257v8.572a.257.257 0 01-.257.257zm-4.187-.514h3.95V2.303h-3.95v8.058z" fill="#5FD1BE"/><path d="M64.751 4.037h-1.975a.257.257 0 010-.513h1.975a.257.257 0 110 .513zm0 1.584h-1.975a.26.26 0 110-.517h1.975a.26.26 0 110 .517zm0 1.537h-1.975a.257.257 0 010-.514h1.975a.256.256 0 110 .514zm-5.099-.115a1.138 1.138 0 01-.79-.351.086.086 0 01-.028-.024c-.553-.553-.853-1.58-.853-2.907a2.033 2.033 0 01.766-1.43c.492-.412.83-.98.956-1.608a.257.257 0 01.182-.21.253.253 0 01.264.083 4.828 4.828 0 011.165 3.16c0 1.32-.3 2.351-.849 2.904a1.149 1.149 0 01-.813.383zm-.459-.746l.024.02a.562.562 0 00.877 0c.442-.451.695-1.375.695-2.537a4.346 4.346 0 00-.395-1.829 4.587 4.587 0 00-.331-.588 3.735 3.735 0 01-.957 1.35c-.335.34-.62.637-.62 1.071-.02 1.138.25 2.062.692 2.513h.015z" fill="#5FD1BE"/><path d="M60.663 8.311h-2.05a.257.257 0 01-.257-.257v-.79a1.284 1.284 0 01.419-.944.256.256 0 01.324 0 .873.873 0 001.078 0 .257.257 0 01.324 0 1.287 1.287 0 01.419.944v.79a.26.26 0 01-.257.257zm-1.793-.513h1.536v-.561a.759.759 0 00-.095-.368l-.031-.05a1.39 1.39 0 01-1.284 0s0 .035-.032.054a.734.734 0 00-.094.364v.56z" fill="#5FD1BE"/><path d="M60.64 10.875h-2.004a.26.26 0 01-.256-.257V8.054a.257.257 0 01.256-.256h2.05a.257.257 0 01.257.256v2.568a.252.252 0 01-.304.253zm-1.747-.514h1.493v-2.05h-1.524v.968c.023.407.027.818.031 1.082zm5.858-1.671h-1.975a.257.257 0 010-.513h1.975a.257.257 0 110 .513zM18.966 33.016a.24.24 0 01-.231-.183.237.237 0 01.006-.13l2.585-7.472a.222.222 0 01.054-.087L38.742 7.783a.24.24 0 01.167-.07.24.24 0 01.167.07l4.883 4.886a.233.233 0 010 .335L26.602 30.358a.217.217 0 01-.091.058l-7.468 2.585a.19.19 0 01-.077.015zm2.79-7.577l-2.407 6.958 6.976-2.41 17.15-17.15-4.548-4.552-17.171 17.154z" fill="#5FD1BE"/><path d="M18.966 33.016a.24.24 0 01-.231-.183.237.237 0 01.006-.13l.728-2.127a.241.241 0 01.145-.146.257.257 0 01.208.022 4.878 4.878 0 011.46 1.464.237.237 0 01.026.204.24.24 0 01-.146.146l-2.127.728a.19.19 0 01-.069.022zm.856-1.992l-.473 1.373 1.369-.477a4.354 4.354 0 00-.896-.896zm6.66-.532a.237.237 0 01-.23-.178l-.342-1.35-1.034-.077a.237.237 0 01-.215-.197l-.24-1.456h-1.202a.236.236 0 01-.236-.237v-1.202l-1.457-.236a.241.241 0 01-.196-.273.24.24 0 01.273-.197l1.667.27a.237.237 0 01.2.232v1.17h1.166a.237.237 0 01.233.2l.244 1.481 1.016.077a.233.233 0 01.21.175l.387 1.518a.237.237 0 01-.171.288l-.073-.008z" fill="#5FD1BE"/><path d="M23.048 25.773a.236.236 0 01-.167-.069.24.24 0 010-.335L39.61 8.62a.237.237 0 01.336.336l-16.75 16.731a.225.225 0 01-.149.087zm1.398 1.581a.247.247 0 01-.167-.07.24.24 0 010-.334l16.75-16.888a.237.237 0 01.334 0 .232.232 0 010 .335l-16.75 16.887a.236.236 0 01-.167.07zm1.337 1.722a.237.237 0 01-.168-.07.24.24 0 010-.334l17.008-17a.237.237 0 01.335.334l-16.997 17a.229.229 0 01-.178.07z" fill="#5FD1BE"/><path d="M43.803 13.073a.255.255 0 01-.168-.07l-4.893-4.886a.24.24 0 010-.335l1.267-1.267a2.039 2.039 0 012.869 0l2.352 2.349a2.04 2.04 0 010 2.873l-1.27 1.267a.248.248 0 01-.157.07zM39.255 7.95l4.548 4.551 1.092-1.092a1.566 1.566 0 000-2.185l-2.352-2.348a1.566 1.566 0 00-2.185 0L39.255 7.95zm-.185 25.43h-2.451a.237.237 0 010-.474h2.45a.237.237 0 110 .474zm-4.425 0H17.222a.236.236 0 110-.474H34.62a.237.237 0 110 .474h.025z" fill="#5FD1BE"/><path d="M35.614 34.367a1.228 1.228 0 110-2.456 1.228 1.228 0 010 2.456zm0-1.977a.754.754 0 100 1.507.754.754 0 000-1.508zM13.502 59.568h-2.943a.26.26 0 01-.257-.256v-9.307a1.73 1.73 0 113.456 0v9.307a.256.256 0 01-.256.256zm-2.683-.513h2.426v-9.05a1.213 1.213 0 00-2.425 0v9.05zm1.158 17.625a.257.257 0 01-.213-.114l-4.318-6.6a.245.245 0 01-.027-.222l2.93-8.591a.258.258 0 01.245-.174h2.876a.249.249 0 01.241.174l2.935 8.595a.252.252 0 01-.027.225l-4.429 6.593a.265.265 0 01-.213.115zm-4.033-6.889l4.033 6.17 4.144-6.17-2.836-8.295h-2.509l-2.832 8.295z" fill="#5FD1BE"/><path d="M14.627 61.492h-5.19a.257.257 0 01-.257-.257v-1.923a.257.257 0 01.257-.257h5.19a.256.256 0 01.257.257v1.923a.257.257 0 01-.257.257zm-4.933-.513h4.677v-1.41H9.694v1.41zm2.346 8.508a1.643 1.643 0 110-3.285 1.643 1.643 0 010 3.285zm0-2.765a1.13 1.13 0 101.13 1.13 1.13 1.13 0 00-1.13-1.138v.008z" fill="#5FD1BE"/><path d="M11.977 76.68a.257.257 0 01-.257-.256l.06-7.201a.257.257 0 01.513.004l-.06 7.217a.26.26 0 01-.256.237z" fill="#5FD1BE"/><path d="M14.308 79.548H9.757a.257.257 0 01-.257-.256v-2.568a.257.257 0 01.257-.257h4.55a.257.257 0 01.257.257v2.568a.257.257 0 01-.256.256zm-4.294-.513h4.037V76.98h-4.037v2.054zm13.762-.119h-2.303a.26.26 0 01-.26-.256v-1.304a.26.26 0 01.26-.257h2.303a.256.256 0 01.257.257v1.304a.256.256 0 01-.257.256zm-2.046-.513h1.79v-.79h-1.79v.79z" fill="#5FD1BE"/><path d="M21.473 78.265h-7.165a.256.256 0 110-.514h7.165a.255.255 0 01.237.159.257.257 0 01-.237.355zm-18.913.651H.257A.257.257 0 010 78.66v-1.304a.257.257 0 01.257-.257H2.56a.257.257 0 01.256.257v1.304a.256.256 0 01-.256.256zm-2.046-.513h1.789v-.79H.513v.79z" fill="#5FD1BE"/><path d="M9.741 78.265H2.56a.257.257 0 110-.514h7.165a.255.255 0 01.238.159.257.257 0 01-.238.355h.016z" fill="#5FD1BE"/><path d="M95.223 58.46c1.453 2.766 1.28 3.497.64 6.127l-.19.79a15.104 15.104 0 01-.96 2.995 4.74 4.74 0 01-1.955 2.208 7.565 7.565 0 01-2.742.51 10.36 10.36 0 00-3.073.52l-.138.052c-1.047.417-2.128.74-3.231.968-2.592.186-4.018-1.311-5.53-2.896a18.58 18.58 0 00-2.161-2.03c-1.39-1.098-2.22-2.034-2.58-3.093-.36-1.059-.245-2.275.237-3.95.326-1.157.488-2.354.482-3.555.047-1.837.087-3.184 2.986-5.53 1.276-1.04 3.117-2.537 4.74-2.248l.328.06c.483.11.83.212 1.138.307a9.042 9.042 0 002.339.427c.446.031.956.04 1.489.055a19.73 19.73 0 012.82.253h.032l-.573.964-.426.735a1.05 1.05 0 00-.143.525c-.002.119.014.237.048.351.106-.011.213-.011.32 0-.086.006-.17.02-.253.044h-.024c-.644.174-1.43.83-2.16 2.09a4.875 4.875 0 00-.637 2.006c-.04.447-.02.898.06 1.34a3.196 3.196 0 011.872-1.063c.53-.154 1.02-.293 1.304-.79.73-1.26.904-2.276.734-2.92a.098.098 0 010-.027 1.233 1.233 0 00-.07-.194c.052.075.099.154.138.237a.977.977 0 00.327-.134 1.04 1.04 0 00.395-.395c.15-.253.289-.498.427-.743s.569-1.015.814-1.445c.138.11.592.517.715.651.198.224.361.476.486.747.345.819.61 1.67.79 2.54a14.453 14.453 0 001.185 3.452v.06zm-2.915 6.676c.556-.442.983-1.01.983-1.528a1.134 1.134 0 00-.62-1.114 2.893 2.893 0 00-1.272-.213 3.048 3.048 0 00-1.296.213 1.117 1.117 0 00-.651 1.114v.932c0 .77.138 1.434.987 1.434a3.503 3.503 0 001.869-.838v0zm-4.883 2.833c.55-.443.98-1.015.98-1.529a1.122 1.122 0 00-.62-1.11 2.84 2.84 0 00-1.272-.213 3.05 3.05 0 00-1.296.21 1.122 1.122 0 00-.656 1.113v.92c0 .79.138 1.434.988 1.434a3.496 3.496 0 001.876-.825v0zm-5.672-11.456c.549-.442.98-1.011.98-1.532a1.134 1.134 0 00-.62-1.11 2.896 2.896 0 00-1.273-.214 3.05 3.05 0 00-1.296.214 1.123 1.123 0 00-.655 1.11v.935c0 .79.138 1.434.987 1.434a3.495 3.495 0 001.877-.846v.008zm-.067 10.334c.556-.447.98-1.015.98-1.537a1.117 1.117 0 00-.617-1.106 2.902 2.902 0 00-1.272-.213 3.056 3.056 0 00-1.3.213 1.119 1.119 0 00-.651 1.106v.933c0 .79.142 1.433.991 1.433a3.496 3.496 0 001.869-.837v.008zm-2.055-5.313c.557-.442.984-1.011.984-1.537a1.118 1.118 0 00-.62-1.102 2.847 2.847 0 00-1.272-.213 3.05 3.05 0 00-1.296.21 1.11 1.11 0 00-.652 1.105v.933c0 .79.139 1.438.988 1.438a3.505 3.505 0 001.868-.841v.008z" stroke="#5FD1BE" stroke-width=".45" stroke-linecap="round" stroke-linejoin="round"/><path d="M90.032 53.728c.17.644 0 1.66-.735 2.92-.284.493-.79.631-1.303.79A3.196 3.196 0 0086.12 58.5a5.067 5.067 0 01-.059-1.339 4.874 4.874 0 01.64-1.99c.73-1.261 1.517-1.917 2.16-2.09h.024a1.22 1.22 0 01.253-.044 1.16 1.16 0 01.81.486s0 0 0 0c.03.062.053.127.071.193a.096.096 0 00.012.012v0zM88.405 66.44c0 .514-.43 1.086-.98 1.529a3.496 3.496 0 01-1.9.837c-.85 0-.988-.663-.988-1.434v-.92a1.121 1.121 0 01.656-1.114 3.05 3.05 0 011.296-.21c.435-.027.87.046 1.272.214a1.123 1.123 0 01.644 1.098zm-5.653-11.468c0 .522-.43 1.09-.98 1.533a3.496 3.496 0 01-1.9.838c-.85 0-.987-.664-.987-1.434v-.937a1.121 1.121 0 01.655-1.11 3.05 3.05 0 011.296-.213c.435-.025.87.048 1.272.213a1.133 1.133 0 01.644 1.11v0zm-.087 10.33c0 .522-.422 1.09-.98 1.537a3.496 3.496 0 01-1.896.833c-.849 0-.991-.66-.991-1.434v-.932a1.118 1.118 0 01.652-1.106 3.056 3.056 0 011.3-.213c.434-.025.869.047 1.271.213a1.118 1.118 0 01.644 1.102v0zm-2.05-5.312c0 .525-.427 1.093-.984 1.536a3.504 3.504 0 01-1.896.837c-.85 0-.987-.66-.987-1.438v-.932a1.11 1.11 0 01.651-1.106 3.049 3.049 0 011.296-.21 2.87 2.87 0 011.272.214 1.118 1.118 0 01.648 1.098v0z" stroke="#5FD1BE" stroke-width=".45" stroke-linecap="round" stroke-linejoin="round"/><path d="M78.723 58.674c.434-.027.87.046 1.272.213a1.118 1.118 0 01.62 1.102c0 .526-.427 1.095-.984 1.537a3.504 3.504 0 01-1.896.837c-.85 0-.987-.66-.987-1.438v-.932a1.11 1.11 0 01.651-1.106 3.05 3.05 0 011.324-.213zm3.389-4.811a1.134 1.134 0 01.64 1.11c0 .521-.43 1.09-.98 1.532a3.496 3.496 0 01-1.9.838c-.85 0-.987-.664-.987-1.434v-.936a1.121 1.121 0 01.655-1.11 3.05 3.05 0 011.296-.214c.436-.026.872.047 1.276.214zm-1.335 10.12c.435-.025.87.048 1.272.213a1.118 1.118 0 01.616 1.106c0 .522-.422 1.09-.98 1.537a3.496 3.496 0 01-1.896.833c-.849 0-.991-.66-.991-1.433v-.933a1.119 1.119 0 01.652-1.106c.42-.17.874-.244 1.327-.217zm5.736 1.134a2.84 2.84 0 011.271.213 1.122 1.122 0 01.62 1.11c0 .513-.43 1.086-.979 1.529a3.496 3.496 0 01-1.9.837c-.85 0-.988-.664-.988-1.434v-.92a1.121 1.121 0 01.656-1.114 3.05 3.05 0 011.32-.221z" stroke="#5FD1BE" stroke-width=".45" stroke-linecap="round" stroke-linejoin="round"/><path d="M89.862 50.43a19.72 19.72 0 00-2.836-.253 21.24 21.24 0 01-1.49-.055 9.044 9.044 0 01-2.338-.427 15.162 15.162 0 00-1.137-.308l-.328-.06c-1.636-.288-3.476 1.21-4.74 2.248-2.9 2.37-2.94 3.71-2.987 5.53a12.892 12.892 0 01-.482 3.556c-.482 1.663-.592 2.88-.237 3.95.356 1.07 1.185 1.975 2.58 3.093a18.572 18.572 0 012.16 2.03c1.525 1.58 2.951 3.082 5.53 2.896a19.22 19.22 0 003.232-.968l.138-.051A10.363 10.363 0 0190 71.089a7.565 7.565 0 002.742-.51 4.74 4.74 0 001.955-2.207c.424-.962.745-1.966.96-2.995l.19-.79c.64-2.63.814-3.342-.64-6.126v-.028a14.45 14.45 0 01-1.185-3.453c-.18-.87-.445-1.72-.79-2.54a3.044 3.044 0 00-.486-.746 11.086 11.086 0 00-.715-.652" stroke="#5FD1BE" stroke-width=".45" stroke-linecap="round" stroke-linejoin="round"/><path d="M89.135 53.013a1.22 1.22 0 00-.253.044h-.023c-.644.174-1.43.83-2.161 2.09a4.875 4.875 0 00-.636 2.006c-.04.447-.02.897.06 1.34a3.196 3.196 0 011.872-1.063c.529-.154 1.019-.293 1.303-.79.731-1.26.905-2.276.735-2.92a.099.099 0 010-.027 1.246 1.246 0 00-.071-.194" stroke="#5FD1BE" stroke-width=".45" stroke-linecap="round" stroke-linejoin="round"/></svg>