<svg width="77" height="77" fill="none" xmlns="http://www.w3.org/2000/svg"><path d="M76.043 76.951H.633A.632.632 0 010 76.32V.91A.632.632 0 011.08.46l18.203 18.262a.62.62 0 010 .895.642.642 0 01-.895 0L1.264 2.484v73.252h73.252l-36.63-36.63a.634.634 0 01.894-.895l37.71 37.71A.632.632 0 0176.043 77v-.049z" fill="#5FD1BE"/><path d="M45.83 64.427H13.147a.632.632 0 01-.632-.632V31.12a.642.642 0 01.389-.583.642.642 0 01.69.136l5.387 5.397a.623.623 0 010 .895.641.641 0 01-.894 0l-4.308-4.318v30.524h30.524l-8.508-8.47a.633.633 0 01.894-.894l9.588 9.598a.652.652 0 01.136.69.641.641 0 01-.583.33zM31.798 50.366a.632.632 0 01-.447-.185l-7.858-7.896a.633.633 0 010-.895.642.642 0 01.895 0l7.847 7.896a.631.631 0 01-.447 1.08h.01zM21.53 19.54a3.365 3.365 0 01-2.325-1.08c-1.682-1.681-2.577-4.764-2.577-8.75a14.362 14.362 0 011.342-6.127A14.583 14.583 0 0120.12.218a.651.651 0 01.66-.194.632.632 0 01.448.515c.35 2.305 1.663 3.656 2.917 4.95 1.255 1.293 2.285 2.353 2.285 4.22 0 3.958-.904 7.05-2.547 8.693a3.364 3.364 0 01-2.354 1.138zm-1.498-2.023c.377.423.903.684 1.468.73a2.07 2.07 0 001.41-.68c1.44-1.44 2.227-4.29 2.227-7.858 0-1.361-.885-2.266-1.945-3.326a10.842 10.842 0 01-2.976-4.317 12.923 12.923 0 00-1.176 2.042 13.146 13.146 0 00-1.225 5.601c.068 3.588.855 6.418 2.217 7.808z" fill="#5FD1BE"/><path d="M24.612 23.371h-6.194a.622.622 0 01-.633-.622v-2.44a3.608 3.608 0 01.477-1.8c.197-.361.45-.69.749-.972a.622.622 0 01.797 0c.5.377 1.105.588 1.73.603a2.917 2.917 0 001.703-.603.632.632 0 01.807 0c.3.281.554.61.749.972.305.547.466 1.163.466 1.79v2.44a.623.623 0 01-.651.632zm-5.562-1.264h4.94v-1.799a2.333 2.333 0 00-.312-1.176 2.747 2.747 0 00-.175-.282 4.104 4.104 0 01-1.945.534 4.21 4.21 0 01-1.945-.534 2.334 2.334 0 00-.486 1.459l-.077 1.798z" fill="#5FD1BE"/><path d="M24.544 28.846h-6.059a.632.632 0 01-.631-.622c0-.75-.059-4.687-.069-5.475a.643.643 0 01.185-.447.61.61 0 01.448-.195h6.194a.632.632 0 01.457.195.593.593 0 01.175.447l-.068 5.475a.631.631 0 01-.632.622zm-5.436-1.264h4.813l.059-4.21h-4.92c.009 1.108.038 3.13.048 4.21z" fill="#5FD1BE"/><path d="M21.51 56.492c-.525 0-.778-.399-1.39-2.733-1.197-4.521-1.994-13.613-2.228-25.535a.681.681 0 01.185-.457.642.642 0 01.447-.185h6.058c.171 0 .335.067.457.185a.63.63 0 01.176.457c-.234 11.931-1.021 20.994-2.227 25.535-.632 2.247-.885 2.733-1.478 2.733zm-2.373-27.646c.243 11.533.972 20.246 2.159 24.592.087.302.155.564.223.778.059-.214.127-.476.214-.778 1.148-4.366 1.945-13.079 2.169-24.592h-4.765zM34.501 58.64a.622.622 0 01-.603-.437l-3.734-11.406a.743.743 0 010-.204V7.21a.632.632 0 01.632-.632h7.45a.632.632 0 01.631.632v39.383c.01.067.01.136 0 .204l-3.783 11.406a.613.613 0 01-.593.438zM31.4 46.496l3.102 9.481 3.083-9.48V7.841H31.4v38.653z" fill="#5FD1BE"/><path d="M38.303 47.244a.642.642 0 01-.418-.155l-.972-.837-.564.73a.623.623 0 01-.467.243.604.604 0 01-.496-.195l-.972-.972-.632.972a.613.613 0 01-.516.272.622.622 0 01-.525-.272l-.632-.972-.972.972a.642.642 0 01-1.035-.204.624.624 0 01.14-.69l1.478-1.586a.632.632 0 01.973.078l.544.807.545-.807a.631.631 0 01.476-.282.612.612 0 01.506.205l.972 1.04.623-.613a.641.641 0 01.692-.217.602.602 0 01.222.13l1.458 1.283a.632.632 0 01-.418 1.1l-.01-.03zm-.087-39.402h-7.449a.632.632 0 01-.632-.632V4.293a3.51 3.51 0 013.51-3.51h1.741a3.51 3.51 0 013.5 3.51V7.21a.63.63 0 01-.67.632zm-6.807-1.264h6.184V4.332a2.246 2.246 0 00-2.236-2.247h-1.702a2.256 2.256 0 00-2.246 2.247v2.246zM6.962 17.342H.632a.632.632 0 110-1.264h6.33a.632.632 0 010 1.264zm-2.246 4.746H.632a.632.632 0 010-1.265h4.084a.632.632 0 110 1.265zm2.246 4.735H.632a.632.632 0 110-1.264h6.33a.632.632 0 110 1.264zm-2.246 4.736H.632a.632.632 0 010-1.264h4.084a.632.632 0 010 1.264zm2.246 4.736H.632a.632.632 0 110-1.264h6.33a.632.632 0 110 1.264zM4.716 41.03H.632a.632.632 0 010-1.264h4.084a.632.632 0 010 1.265zm2.246 4.726H.632a.632.632 0 010-1.264h6.33a.632.632 0 010 1.264zm-2.246 4.736H.632a.632.632 0 010-1.264h4.084a.632.632 0 010 1.264zm2.246 4.736H.632a.632.632 0 010-1.264h6.33a.632.632 0 010 1.264zm-2.246 4.745H.632a.632.632 0 010-1.264h4.084a.632.632 0 010 1.264zm2.246 4.736H.632a.632.632 0 110-1.265h6.33a.632.632 0 010 1.265zm-2.246 4.735H.632a.632.632 0 010-1.264h4.084a.632.632 0 010 1.264zm7.196 6.972a.632.632 0 01-.632-.632v-6.34a.632.632 0 111.264 0v6.34a.632.632 0 01-.632.632zm4.736.001a.632.632 0 01-.632-.633v-4.093a.632.632 0 111.264 0v4.093a.632.632 0 01-.632.633zm4.735-.001a.642.642 0 01-.632-.632v-6.34a.632.632 0 011.264 0v6.34a.632.632 0 01-.632.632zm4.737.001a.642.642 0 01-.633-.633v-4.093a.632.632 0 111.264 0v4.093a.633.633 0 01-.632.633zm4.735-.001a.632.632 0 01-.632-.632v-6.34a.632.632 0 111.264 0v6.34a.632.632 0 01-.632.632zm4.735.001a.642.642 0 01-.632-.633v-4.093a.642.642 0 011.274 0v4.093a.641.641 0 01-.642.633zm4.736-.001a.642.642 0 01-.632-.632v-6.34a.642.642 0 011.274 0v6.34a.642.642 0 01-.642.632zm4.784.001a.632.632 0 01-.632-.633v-4.093a.632.632 0 111.264 0v4.093a.632.632 0 01-.632.633zm4.697-.001a.632.632 0 01-.632-.632v-6.34a.632.632 0 011.264 0v6.34a.632.632 0 01-.632.632zm4.736.001a.632.632 0 01-.632-.633v-4.093a.632.632 0 011.264 0v4.093a.633.633 0 01-.632.633zm4.735-.001a.632.632 0 01-.632-.632v-6.34a.632.632 0 111.264 0v6.34a.632.632 0 01-.632.632zm4.736.001a.632.632 0 01-.632-.633v-4.093a.632.632 0 111.264 0v4.093a.633.633 0 01-.632.633z" fill="#5FD1BE"/></svg>