<svg width="68" height="80" fill="none" xmlns="http://www.w3.org/2000/svg"><path d="M33.94 12.02a6.4 6.4 0 11-6.39 6.4 6.41 6.41 0 016.39-6.4zM16.62 75.05h35.03v3.76H16.62v-3.76zM41.68 63.1l3.14 11.95H23.45l3.14-11.95h15.09z" stroke="#181A1E" stroke-width="1.3" stroke-linecap="round" stroke-linejoin="round"/><path d="M4.1 55.44h60.05a3.12 3.12 0 003.1-3.12v7.11a3.69 3.69 0 01-3.67 3.67H4.68A3.69 3.69 0 011 59.43v-7.11a3.12 3.12 0 003.1 3.12v0zm28.64 3.83a1.39 1.39 0 101.36-1.39 1.38 1.38 0 00-1.35 1.39h-.01zM13.01 43.31v2.87h-5.1v-2.87h5.1zm25.97-1.4v5.68H28.91v-5.68h10.07zm15.87 1.4h5.1v2.87h-5.1v-2.87zm-22.16-7.48l-.72-4.81a13.482 13.482 0 01-2.62-.7l-3 3.8-2.16-1.25 1.78-4.53a13.342 13.342 0 01-1.92-1.91l-4.53 1.78-1.25-2.16 3.81-3a12.22 12.22 0 01-.71-2.62l-4.81-.72v-2.5l4.81-.72c.137-.9.376-1.783.71-2.63l-.63-.49-3.18-2.54 1.25-2.16 4.53 1.78a12.91 12.91 0 011.92-1.92L24.19 4l2.16-1.25 3 3.81a12.2 12.2 0 012.62-.7l.72-4.82h2.5l.73 4.82c.896.136 1.775.371 2.62.7l3-3.81L43.71 4l-1.78 4.53a12.84 12.84 0 011.91 1.92l4.54-1.78 1.25 2.16-3.18 2.54-.63.49c.327.85.561 1.73.7 2.63l4.82.72v2.49l-4.82.73c-.14.896-.375 1.774-.7 2.62l3.81 3-1.25 2.15-4.54-1.77c-.57.7-1.21 1.34-1.91 1.91l1.78 4.53-2.17 1.25-3-3.8c-.848.32-1.726.554-2.62.7l-.73 4.81h-2.5zm-5.14-17.41a6.4 6.4 0 1012.8 0 6.4 6.4 0 00-12.8 0v0z" stroke="#181A1E" stroke-width="1.3" stroke-linecap="round" stroke-linejoin="round"/><path d="M7.91 43.31v2.87h5.11v-2.87H7.91zm52 0h-5.1v2.87h5.1v-2.87zm-21-1.4h-10v5.67h10.08v-5.69l-.08.02zm-7-10.89l.72 4.81h2.5l.73-4.81c.894-.146 1.772-.38 2.62-.7l3 3.8 2.17-1.25-1.78-4.53c.7-.57 1.34-1.21 1.91-1.91l4.54 1.77 1.25-2.15-3.81-3c.325-.846.56-1.724.7-2.62l4.82-.73v-2.49l-4.82-.72c-.139-.9-.373-1.78-.7-2.63l.63-.49h17.12a3.68 3.68 0 013.67 3.67v35.32a3.12 3.12 0 01-3.1 3.12H4.1A3.12 3.12 0 011 52.36V17a3.69 3.69 0 013.68-3.67h16.73l.63.49c-.334.847-.573 1.73-.71 2.63l-4.81.72v2.5l4.81.72c.139.897.377 1.776.71 2.62l-3.81 3 1.25 2.16 4.53-1.78c.574.7 1.217 1.34 1.92 1.91l-1.78 4.53 2.16 1.25 3-3.8c.859.337 1.75.585 2.66.74h-.06z" stroke="#181A1E" stroke-width="1.3" stroke-linecap="round" stroke-linejoin="round"/><path d="M26.6 63.1H4.69a3.69 3.69 0 01-3.68-3.67V17a3.69 3.69 0 013.68-3.67h16.73m25.05 0h17.12A3.68 3.68 0 0167.26 17v42.43a3.69 3.69 0 01-3.67 3.67H41.68" stroke="#181A1E" stroke-width="1.3" stroke-linecap="round" stroke-linejoin="round"/><path d="M67.26 52.32a3.12 3.12 0 01-3.1 3.12H4.1A3.12 3.12 0 011 52.32m22.45 22.73l3.14-11.95h15.09l3.14 11.95M34.1 57.88a1.39 1.39 0 11-1.39 1.39 1.38 1.38 0 011.39-1.39zm10.72 17.17h6.83v3.76H16.62v-3.76h28.2zM33.94 12.02a6.4 6.4 0 11-6.39 6.4 6.41 6.41 0 016.39-6.4z" stroke="#181A1E" stroke-width="1.3" stroke-linecap="round" stroke-linejoin="round"/><path d="M21.42 13.33l.63.49c-.335.847-.573 1.73-.71 2.63l-4.81.72v2.5l4.81.72c.139.897.377 1.776.71 2.62l-3.81 3 1.25 2.16 4.53-1.78c.574.7 1.217 1.34 1.92 1.91l-1.78 4.53 2.16 1.25 3-3.8c.848.32 1.725.555 2.62.7l.72 4.81h2.5l.73-4.81c.894-.146 1.772-.38 2.62-.7l3 3.8 2.17-1.25-1.78-4.53c.7-.57 1.34-1.21 1.91-1.91l4.54 1.77 1.25-2.15-3.81-3c.325-.846.56-1.724.7-2.62l4.82-.73v-2.49l-4.82-.72c-.139-.9-.373-1.78-.7-2.63l.63-.49 3.18-2.54-1.25-2.16-4.54 1.78a12.837 12.837 0 00-1.91-1.92l1.78-4.53-2.17-1.25-3 3.81a12.349 12.349 0 00-2.62-.7L35.16 1h-2.5l-.72 4.82a12.2 12.2 0 00-2.62.7l-3-3.81-2.16 1.25 1.78 4.53c-.706.57-1.35 1.214-1.92 1.92l-4.53-1.78-1.25 2.16 3.18 2.54zm7.49 28.58h10.07v5.68H28.91v-5.68zm25.94 1.4h5.1v2.87h-5.1v-2.87zm-15.87 1.44h15.87m-41.84-1.44h-5.1v2.87h5.1v-2.87zm15.86 1.44H13.01" stroke="#181A1E" stroke-width="1.3" stroke-linecap="round" stroke-linejoin="round"/></svg>