<svg width="80" height="74" fill="none" xmlns="http://www.w3.org/2000/svg"><path d="M39.58 40.227a.59.59 0 01-.29-.07L.35 20.697a.66.66 0 010-1.16L39.29.067a.66.66 0 01.58 0l38.93 19.47a.65.65 0 010 1.16l-38.93 19.46a.59.59 0 01-.29.07zM2.06 20.117l37.52 18.74 37.48-18.74-37.48-18.74-37.52 18.74z" fill="#5FD1BE"/><path d="M39.58 57.017a.73.73 0 01-.29-.07L.35 37.477a.65.65 0 01-.35-.59.64.64 0 01.36-.58l16.78-8.38a.66.66 0 01.58 0l21.86 10.93 21.86-10.93a.66.66 0 01.58 0l16.78 8.38a.66.66 0 010 1.17l-38.93 19.47a.728.728 0 01-.29.07zM2.1 36.887l37.48 18.73 37.48-18.75-15.33-7.65-21.86 10.92a.6.6 0 01-.58 0l-21.86-10.92-15.33 7.67z" fill="#5FD1BE"/><path d="M39.58 73.787a.59.59 0 01-.29-.07L.35 54.257a.65.65 0 01-.35-.58.64.64 0 01.35-.58l16.78-8.4a.68.68 0 01.59 0l21.86 10.92 21.86-10.94a.66.66 0 01.58 0l16.78 8.4a.64.64 0 01.26.92.66.66 0 01-.26.24l-38.97 19.48a.59.59 0 01-.25.07zM2.1 53.677l37.48 18.73 37.48-18.73-15.33-7.67-21.86 10.94a.66.66 0 01-.58 0l-21.86-10.94-15.33 7.67zm8.48-28.15a.65.65 0 01-.3-1.23l37.43-20a.65.65 0 11.61 1.15l-37.43 20a.68.68 0 01-.31.08zm9.46 4.89a.65.65 0 01-.3-1.22l37.84-19.69a.66.66 0 01.88.28.643.643 0 01-.28.87l-37.86 19.69a.66.66 0 01-.28.07zm9.54 4.43a.66.66 0 01-.58-.36.65.65 0 01.29-.87l38.48-19.29a.65.65 0 01.58 1.16l-38.48 19.29a.73.73 0 01-.29.07z" fill="#5FD1BE"/></svg>