<svg width="79" height="80" fill="none" xmlns="http://www.w3.org/2000/svg"><path d="M47.24 31.86a13.25 13.25 0 003.5-3.58l19.49 7.24v.28l-25.61 9.66v-3.53h2.61V31.86h.01z" stroke="#5FD1BE" stroke-width="1.3" stroke-linecap="round" stroke-linejoin="round"/><path d="M44.63 41.92h-9.77v.01h9.77v-.01zm25.61 24.8L39.68 78.81l-.28-24.9 3.57-.01 5.15 9.14 22.12-8.89v12.57z" stroke="#5FD1BE" stroke-width="1.3" stroke-linecap="round" stroke-linejoin="round"/><path d="M30.08 63.04l5.47-9.11 3.85-.02.28 24.9L8.42 66.72V54.27l21.66 8.77z" stroke="#5FD1BE" stroke-width="1.3" stroke-linecap="round" stroke-linejoin="round"/><path d="M39.4 47.58l3.57 6.32-3.57.01-3.85.02 3.78-6.31.07-.04z" stroke="#5FD1BE" stroke-width="1.3" stroke-linecap="round" stroke-linejoin="round"/><path d="M34.86 41.93h9.77v3.53l-5.3 2 .07.12-.07.04-4.62-1.76.15-.39v-3.54zm12.38-3.11H32.25v-2.51h14.99v2.51zm-2.23-14.58l-2.72.35-2.63-4.25-2.56 4.24-2.63-.37 4.7 12.1h-6.9v-4.45a13.16 13.16 0 1118.49-3.58 13.25 13.25 0 01-3.5 3.58v4.45h-6.9l4.65-12.07z" stroke="#5FD1BE" stroke-width="1.3" stroke-linecap="round" stroke-linejoin="round"/><path d="M37.09 24.6l2.56-4.26 2.64 4.24 2.72-.35-4.67 12.08h-1.19l-4.68-12.08 2.62.37zm-4.84 14.22h14.99v3.11h-2.61v-.01h-9.77v.01h-2.61v-3.11z" stroke="#5FD1BE" stroke-width="1.3" stroke-linecap="round" stroke-linejoin="round"/><path d="M34.86 41.93v3.54l-.14.39L8.42 35.8l-.12-.33 20.27-7.46a13.077 13.077 0 003.67 3.85v10.07h2.62zM8.42 54.27v12.45l31.26 12.09 30.56-12.09V54.15" stroke="#5FD1BE" stroke-width="1.3" stroke-linecap="round" stroke-linejoin="round"/><path d="M8.42 35.8l26.29 10.06 4.62 1.76-3.78 6.31-5.47 9.11-21.66-8.77-7.42-3L8.42 35.8zm61.82 0l-25.61 9.66-5.3 2 .07.12 3.57 6.32 5.15 9.14 22.12-8.89 7.16-2.88-7.16-15.47zm-61.98-.32l.03-.01 20.27-7.46m22.17.27l19.5 7.24" stroke="#5FD1BE" stroke-width="1.3" stroke-linecap="round" stroke-linejoin="round"/><path d="M50.74 28.28a13.25 13.25 0 01-3.5 3.58v10.07h-15V31.86a13.16 13.16 0 1118.49-3.58h.01zm-10.4 8.03h8.82m-18.84 0h8.83m-8.83 2.51h18.84" stroke="#5FD1BE" stroke-width="1.3" stroke-linecap="round" stroke-linejoin="round"/><path d="M34.86 45.47v-3.55h9.77v3.55M39.04 1v4.26m6.21-3.63l-1.11 4.12m6.94-1.9l-2.13 3.69m7.19-.04l-3.01 3.02M22.35 8.49l3.01 3.02m1.83-6.96l2.12 3.7m3.57-6.26l1.1 4.12m5.17 30.2l-4.68-12.08 2.62.37 2.56-4.26 2.64 4.24 2.72-.35-4.67 12.08h-1.19zm.18 11.75l.07 5.85.28 24.9" stroke="#5FD1BE" stroke-width="1.3" stroke-linecap="round" stroke-linejoin="round"/></svg>