<svg width="75" height="80" fill="none" xmlns="http://www.w3.org/2000/svg"><path d="M44.699 68.24H30.311a.645.645 0 01-.45-.193.665.665 0 01-.19-.457V15.66c0-.1.02-.199.06-.29l7.193-15a.647.647 0 01.581-.37.622.622 0 01.57.37l7.195 15c.042.09.066.19.069.29v51.93a.665.665 0 01-.19.457.645.645 0 01-.45.193zm-13.778-1.3H44.06V15.81L37.466 2.1 30.91 15.81l.01 51.13z" fill="#181A1E"/><path d="M41.835 18.4a.612.612 0 01-.433-.21l-1.614-1.64-1.633 1.64a.635.635 0 01-.827.07l-2.44-1.8-1.516 1.34a.634.634 0 01-.748.06l-2.805-1.67a.67.67 0 01-.226-.9.63.63 0 01.876-.22l2.41 1.46 1.556-1.37a.643.643 0 01.797 0l2.41 1.77 1.674-1.71a.664.664 0 01.453-.19.621.621 0 01.452.19l1.683 1.71 2.421-1.77a.63.63 0 01.852.173.658.658 0 01-.104.877l-2.864 2.1a.64.64 0 01-.374.09z" fill="#181A1E"/><path d="M41.55 68.24a.644.644 0 01-.45-.193.665.665 0 01-.19-.457V17.53c0-.172.067-.338.187-.46a.634.634 0 01.905 0c.12.122.187.288.187.46v50.06a.665.665 0 01-.19.457.644.644 0 01-.45.193zm-3.563 0a.635.635 0 01-.452-.19.656.656 0 01-.188-.46l-.216-50.3c0-.17.066-.335.184-.456a.635.635 0 01.446-.194c.168 0 .329.067.449.187s.188.282.19.453l.217 50.3c0 .173-.067.34-.187.463a.644.644 0 01-.453.197h.01zm-4.734 0a.645.645 0 01-.45-.193.665.665 0 01-.19-.457V16.7a.663.663 0 01.215-.413.643.643 0 01.86 0 .663.663 0 01.215.413v50.89a.665.665 0 01-.194.46.644.644 0 01-.456.19z" fill="#181A1E"/><path d="M39.365 79.07h-3.73a5.926 5.926 0 01-4.214-1.778 6.12 6.12 0 01-1.75-4.282v-5.42c0-.172.068-.338.188-.46a.634.634 0 01.452-.19H44.7c.17 0 .332.068.452.19s.188.288.188.46v5.42a6.13 6.13 0 01-1.756 4.283 5.936 5.936 0 01-4.218 1.777zm-8.414-10.83v4.77a4.8 4.8 0 001.372 3.366 4.647 4.647 0 003.312 1.394h3.73a4.657 4.657 0 003.316-1.394 4.81 4.81 0 001.378-3.366v-4.77H30.951zM17.783 13.12H8.089a.635.635 0 01-.452-.19.655.655 0 01-.187-.46V2.62c0-.172.067-.338.187-.46a.635.635 0 01.452-.19h9.694c.17 0 .332.068.452.19s.188.288.188.46v9.85a.655.655 0 01-.188.46.635.635 0 01-.452.19zm-9.054-1.3h8.414V3.27H8.73v8.55zM66.704 79H57.02a.635.635 0 01-.452-.19.656.656 0 01-.188-.46V68.5c0-.172.068-.338.188-.46a.635.635 0 01.452-.19h9.684c.17 0 .334.068.456.19a.665.665 0 01.193.46v9.85a.665.665 0 01-.193.46.644.644 0 01-.456.19zm-9.044-1.3h8.404v-8.51H57.66v8.51zm9.044-64.58H57.02a.635.635 0 01-.452-.19.656.656 0 01-.188-.46V2.62c0-.172.068-.338.188-.46a.635.635 0 01.452-.19h9.684c.17 0 .334.068.456.19a.665.665 0 01.193.46v9.85a.665.665 0 01-.193.46.644.644 0 01-.456.19zm-9.044-1.3h8.404V3.27H57.66v8.55zM17.783 79H8.089a.634.634 0 01-.452-.19.655.655 0 01-.187-.46V68.5c0-.172.067-.338.187-.46a.634.634 0 01.452-.19h9.694c.17 0 .332.068.452.19s.188.287.188.46v9.85a.655.655 0 01-.188.46.634.634 0 01-.452.19zm-9.054-1.3h8.414v-8.51H8.73v8.51z" fill="#181A1E"/><path d="M57.02 74.08H45.083a.634.634 0 01-.453-.19.655.655 0 010-.92.634.634 0 01.453-.19H57.02c.17 0 .332.068.452.19a.655.655 0 010 .92.635.635 0 01-.452.19zm-26.945 0H17.783a.635.635 0 01-.452-.19.655.655 0 010-.92.635.635 0 01.452-.19h12.252c.17 0 .333.068.453.19a.656.656 0 010 .92.635.635 0 01-.453.19h.04zm31.787-4.93a.635.635 0 01-.453-.19.656.656 0 01-.187-.46V46.99c0-.172.068-.338.188-.46a.635.635 0 01.904 0c.12.122.188.288.188.46V68.5a.658.658 0 01-.386.637.631.631 0 01-.254.053v-.04zm-48.882 0a.634.634 0 01-.452-.19.655.655 0 01-.187-.46V46.99c0-.172.067-.338.187-.46a.634.634 0 01.905 0c.12.122.187.288.187.46V68.5a.66.66 0 01-.173.486.64.64 0 01-.466.204v-.04zM61.862 31.8a.635.635 0 01-.453-.19.656.656 0 01-.187-.46V12.47c0-.173.068-.338.188-.46a.635.635 0 01.904 0c.12.122.188.287.188.46v18.72a.654.654 0 01-.201.434.635.635 0 01-.44.176zm-48.882 0a.634.634 0 01-.452-.19.655.655 0 01-.187-.46V12.47c0-.173.067-.338.187-.46a.634.634 0 01.905 0c.12.122.187.287.187.46v18.72a.655.655 0 01-.2.434.635.635 0 01-.44.176zM57.02 8.19H40.821A.635.635 0 0140.37 8a.655.655 0 010-.92.635.635 0 01.452-.19H57.02c.17 0 .332.068.452.19a.655.655 0 010 .92.635.635 0 01-.452.19zm-22.832 0H17.783a.635.635 0 01-.452-.19.655.655 0 010-.92.635.635 0 01.452-.19h16.366c.17 0 .332.068.452.19a.655.655 0 010 .92.635.635 0 01-.452.19h.04z" fill="#181A1E"/><path d="M74.36 47.64H44.7a.635.635 0 01-.453-.19.656.656 0 01-.187-.46v-15.8c0-.172.068-.338.188-.46a.635.635 0 01.452-.19h29.66c.17 0 .333.069.453.19.12.122.187.288.187.46v15.8a.655.655 0 01-.187.46.635.635 0 01-.453.19zm-29.021-1.3H73.72V31.8H45.338v14.54zm-15.028 1.3H.64a.632.632 0 01-.453-.19.65.65 0 01-.187-.46v-15.8a.659.659 0 01.187-.46.639.639 0 01.453-.19h29.67c.17 0 .332.069.452.19.12.122.188.288.188.46v15.8a.655.655 0 01-.188.46.635.635 0 01-.452.19zm-29.032-1.3h28.392V31.8H1.28v14.54z" fill="#181A1E"/><path d="M67.491 47.64a.632.632 0 01-.452-.19.652.652 0 01-.188-.46v-8.54c0-.172.068-.338.188-.46a.635.635 0 01.904 0c.12.122.188.288.188.46v8.54a.658.658 0 01-.188.46.64.64 0 01-.452.19zm-6.081 0a.632.632 0 01-.453-.19.652.652 0 01-.188-.46v-5.24c0-.172.068-.338.188-.46a.635.635 0 01.904 0c.12.122.188.288.188.46v5.24a.66.66 0 01-.188.46.64.64 0 01-.452.19zm-6.073 0a.632.632 0 01-.452-.19.65.65 0 01-.188-.46v-8.54c0-.172.068-.338.188-.46a.634.634 0 01.904 0c.12.122.188.288.188.46v8.54a.66.66 0 01-.188.46.64.64 0 01-.452.19zm-6.062 0a.632.632 0 01-.452-.19.652.652 0 01-.188-.46v-5.24c0-.172.068-.338.188-.46a.635.635 0 01.904 0c.12.122.188.288.188.46v5.24a.658.658 0 01-.188.46.641.641 0 01-.452.19zm-24.328 0a.644.644 0 01-.45-.193.666.666 0 01-.19-.457v-5.24c0-.172.068-.338.188-.46a.634.634 0 01.905 0c.12.122.187.288.187.46v5.24a.66.66 0 01-.187.46.64.64 0 01-.453.19zm-6.072 0a.632.632 0 01-.452-.19.652.652 0 01-.187-.46v-8.54c0-.172.067-.338.187-.46a.635.635 0 01.905 0c.12.122.187.288.187.46v8.54a.658.658 0 01-.187.46.64.64 0 01-.453.19zm-6.082 0a.644.644 0 01-.449-.193.665.665 0 01-.19-.457v-5.24c0-.172.067-.338.187-.46a.634.634 0 01.905 0c.12.122.187.288.187.46v5.24a.66.66 0 01-.187.46.64.64 0 01-.453.19zm-6.071 0a.632.632 0 01-.453-.19.651.651 0 01-.187-.46v-8.54c0-.172.067-.338.187-.46a.635.635 0 01.905 0c.12.122.187.288.187.46v8.54a.66.66 0 01-.187.46.64.64 0 01-.452.19z" fill="#181A1E"/></svg>