<svg width="228" height="281" viewBox="0 0 228 281" fill="none" xmlns="http://www.w3.org/2000/svg">
<path d="M90.9466 160.02C91.2338 160.3 91.4622 160.634 91.6181 161.003C91.774 161.373 91.8543 161.769 91.8543 162.17C91.8543 162.571 91.774 162.968 91.6181 163.337C91.4622 163.706 91.2338 164.041 90.9466 164.32V164.32C90.5246 164.754 89.9811 165.051 89.3876 165.17C88.794 165.29 88.1782 165.227 87.6209 164.99C87.0637 164.753 86.5912 164.353 86.2656 163.843C85.94 163.332 85.7765 162.735 85.7966 162.13C85.7966 161.334 86.1127 160.571 86.6753 160.009C87.2379 159.446 88.0009 159.13 88.7966 159.13V159.13C89.0955 159.13 89.3926 159.177 89.6766 159.27C89.8632 159.322 90.0441 159.392 90.2166 159.48V159.48L90.6966 159.81C90.7885 159.869 90.8725 159.94 90.9466 160.02V160.02Z" stroke="#5FD1BE" stroke-width="1.3" stroke-linecap="round" stroke-linejoin="round"/>
<path d="M152.766 121.25C153.049 121.53 153.274 121.863 153.427 122.231C153.579 122.598 153.657 122.992 153.657 123.39C153.658 124.202 153.338 124.982 152.766 125.56V125.56C152.198 126.103 151.443 126.407 150.657 126.41H150.586C150.456 126.41 150.336 126.41 150.206 126.36C150.067 126.343 149.93 126.313 149.797 126.27C149.524 126.187 149.265 126.066 149.026 125.91C148.903 125.829 148.786 125.738 148.676 125.64C148.576 125.55 148.466 125.44 148.366 125.33C148.178 125.105 148.02 124.856 147.896 124.59C147.736 124.196 147.651 123.775 147.646 123.35C147.646 122.952 147.724 122.558 147.876 122.191C148.029 121.823 148.254 121.49 148.537 121.21C148.816 120.923 149.15 120.694 149.52 120.538C149.889 120.383 150.286 120.302 150.686 120.302C151.087 120.302 151.484 120.383 151.853 120.538C152.223 120.694 152.557 120.923 152.836 121.21L152.766 121.25Z" stroke="#5FD1BE" stroke-width="1.3" stroke-linecap="round" stroke-linejoin="round"/>
<path d="M152.767 160.02C153.054 160.3 153.282 160.634 153.438 161.003C153.594 161.372 153.674 161.769 153.674 162.17C153.674 162.571 153.594 162.968 153.438 163.337C153.282 163.706 153.054 164.041 152.767 164.32V164.32C152.41 164.656 151.977 164.901 151.506 165.035C151.034 165.169 150.538 165.188 150.057 165.09C149.577 164.992 149.128 164.78 148.746 164.472C148.365 164.164 148.063 163.769 147.867 163.32L147.807 163.16C147.807 163.11 147.807 163.06 147.807 163C147.807 162.94 147.747 162.8 147.727 162.7C147.56 162.051 147.615 161.364 147.884 160.75C148.153 160.135 148.62 159.629 149.211 159.311C149.801 158.993 150.481 158.883 151.142 158.997C151.803 159.111 152.407 159.443 152.857 159.94L152.767 160.02Z" stroke="#5FD1BE" stroke-width="1.3" stroke-linecap="round" stroke-linejoin="round"/>
<path d="M149.767 128.13V157.43C149.669 157.444 149.572 157.464 149.477 157.49H149.377C149.268 157.519 149.161 157.556 149.057 157.6C148.671 157.731 148.305 157.913 147.967 158.14C147.855 158.214 147.748 158.294 147.647 158.38C147.51 158.489 147.379 158.606 147.257 158.73C146.806 159.176 146.448 159.707 146.204 160.292C145.96 160.878 145.835 161.506 145.837 162.14C145.826 162.303 145.826 162.467 145.837 162.63C145.844 162.837 145.877 163.042 145.937 163.24L123.817 173.02C123.739 172.871 123.645 172.73 123.537 172.6C123.446 172.461 123.339 172.333 123.217 172.22C123.186 172.172 123.149 172.129 123.107 172.09C123.028 172.011 122.945 171.938 122.857 171.87C122.734 171.758 122.604 171.654 122.467 171.56C122.328 171.463 122.184 171.373 122.037 171.29C121.926 171.227 121.813 171.171 121.697 171.12C121.347 170.956 120.977 170.838 120.597 170.77V137.63L146.597 126.12C146.771 126.366 146.965 126.597 147.177 126.81C147.309 126.952 147.457 127.08 147.617 127.19L147.907 127.4C148.317 127.672 148.77 127.875 149.247 128C149.415 128.06 149.589 128.104 149.767 128.13V128.13Z" stroke="#5FD1BE" stroke-width="1.3" stroke-linecap="round" stroke-linejoin="round"/>
<path d="M124.767 113.4L146.107 121.95C145.957 122.415 145.883 122.901 145.887 123.39C145.885 123.76 145.926 124.129 146.007 124.49L119.767 136.08L93.3667 124.43C93.5437 123.922 93.6349 123.388 93.6367 122.85C93.6358 122.565 93.609 122.28 93.5567 122L116.557 113.32C116.637 113.46 116.737 113.6 116.827 113.73C116.928 113.864 117.039 113.991 117.157 114.11L117.247 114.21C117.458 114.431 117.693 114.629 117.947 114.8C118.078 114.89 118.215 114.97 118.357 115.04L118.767 115.24L119.117 115.37L119.327 115.43L119.647 115.51H119.717C119.862 115.541 120.009 115.561 120.157 115.57H120.637H121.067C121.723 115.513 122.36 115.319 122.937 115C123.055 114.942 123.168 114.875 123.277 114.8C123.532 114.627 123.773 114.433 123.997 114.22H124.057C124.327 113.978 124.565 113.702 124.767 113.4Z" stroke="#5FD1BE" stroke-width="1.3" stroke-linecap="round" stroke-linejoin="round"/>
<path d="M123.697 110.82C123.695 111.229 123.61 111.634 123.447 112.01C123.362 112.217 123.251 112.412 123.116 112.59C123.021 112.726 122.914 112.853 122.797 112.97L122.547 113.19C122.413 113.289 122.272 113.379 122.127 113.46H122.077L121.907 113.54C121.699 113.633 121.481 113.701 121.257 113.74H120.997H120.687C120.544 113.755 120.399 113.755 120.257 113.74H120.197C120.088 113.727 119.981 113.704 119.877 113.67H119.787C119.714 113.651 119.643 113.624 119.577 113.59C119.47 113.552 119.366 113.505 119.267 113.45C119.204 113.423 119.147 113.386 119.097 113.34C119.055 113.33 119.017 113.309 118.986 113.28C118.924 113.249 118.866 113.209 118.817 113.16L118.527 112.91C118.427 112.81 118.337 112.7 118.247 112.59L118.077 112.34C118.051 112.3 118.03 112.256 118.017 112.21C117.962 112.114 117.915 112.013 117.877 111.91C117.723 111.546 117.644 111.155 117.647 110.76C117.646 110.362 117.724 109.968 117.877 109.6C118.029 109.233 118.254 108.9 118.537 108.62C118.962 108.197 119.504 107.908 120.093 107.792C120.682 107.675 121.292 107.734 121.847 107.963C122.403 108.191 122.878 108.579 123.214 109.076C123.55 109.574 123.732 110.159 123.736 110.76L123.697 110.82Z" stroke="#5FD1BE" stroke-width="1.3" stroke-linecap="round" stroke-linejoin="round"/>
<path d="M122.587 174.5C122.7 174.822 122.761 175.159 122.767 175.5C122.766 176.309 122.446 177.085 121.877 177.66V177.66C121.409 178.122 120.8 178.415 120.147 178.49H119.377C118.71 178.4 118.09 178.098 117.607 177.63C117.037 177.055 116.717 176.279 116.717 175.47C116.72 175.173 116.76 174.877 116.837 174.59C116.871 174.545 116.898 174.494 116.917 174.44C117.021 174.146 117.169 173.869 117.357 173.62C117.457 173.49 117.567 173.38 117.667 173.27C117.776 173.165 117.893 173.068 118.017 172.98V172.98C118.137 172.894 118.264 172.817 118.397 172.75V172.75L118.787 172.6C118.92 172.556 119.057 172.523 119.197 172.5H119.257C119.389 172.485 119.524 172.485 119.657 172.5H119.767C119.952 172.5 120.136 172.52 120.317 172.56C120.426 172.576 120.533 172.603 120.637 172.64C120.757 172.669 120.874 172.71 120.987 172.76L121.147 172.84C121.262 172.901 121.373 172.971 121.477 173.05L121.667 173.19C121.704 173.211 121.738 173.238 121.767 173.27C121.804 173.312 121.844 173.353 121.887 173.39C121.975 173.479 122.059 173.572 122.137 173.67V173.72C122.206 173.809 122.269 173.903 122.327 174C122.364 174.061 122.397 174.125 122.427 174.19C122.474 174.268 122.511 174.352 122.537 174.44L122.587 174.5Z" stroke="#5FD1BE" stroke-width="1.3" stroke-linecap="round" stroke-linejoin="round"/>
<path d="M118.837 137.64V170.79C118.67 170.82 118.506 170.864 118.347 170.92C118.195 170.962 118.047 171.019 117.907 171.09V171.09C117.332 171.313 116.811 171.654 116.377 172.09C116.335 172.129 116.298 172.172 116.267 172.22C116.025 172.455 115.819 172.724 115.657 173.02L93.5465 163.24V163.09C93.6095 162.777 93.6429 162.459 93.6465 162.14C93.6431 160.862 93.1366 159.637 92.2365 158.73C91.7897 158.299 91.2632 157.959 90.6866 157.73C90.5272 157.66 90.3635 157.599 90.1965 157.55C90.0862 157.509 89.9724 157.479 89.8565 157.46H89.7166V128.16C90.3374 128.05 90.9294 127.816 91.4565 127.47C91.9857 127.122 92.4411 126.674 92.7965 126.15L118.837 137.64Z" stroke="#5FD1BE" stroke-width="1.3" stroke-linecap="round" stroke-linejoin="round"/>
<path d="M91.6366 121.74C91.7704 122.088 91.8382 122.457 91.8366 122.83C91.8376 123.228 91.7594 123.622 91.6066 123.989C91.4538 124.357 91.2294 124.69 90.9466 124.97V124.97C90.3796 125.522 89.6177 125.827 88.8266 125.82C88.2163 125.841 87.6143 125.675 87.1009 125.344C86.5875 125.013 86.1872 124.534 85.9535 123.97C85.7198 123.406 85.6638 122.784 85.793 122.187C85.9222 121.59 86.2305 121.047 86.6766 120.63C87.2484 120.059 88.0235 119.738 88.8316 119.738C89.6397 119.738 90.4147 120.059 90.9866 120.63C91.279 120.95 91.5005 121.328 91.6366 121.74V121.74Z" stroke="#5FD1BE" stroke-width="1.3" stroke-linecap="round" stroke-linejoin="round"/>
<path d="M165.917 274.013H127.616C127.453 274.013 127.296 273.948 127.18 273.832C127.065 273.717 127 273.56 127 273.397V206.616C127 206.453 127.065 206.296 127.18 206.181C127.296 206.065 127.453 206 127.616 206H163.642C163.723 205.999 163.803 206.015 163.878 206.046C163.953 206.077 164.021 206.123 164.078 206.18L182.091 224.193C182.206 224.309 182.27 224.466 182.271 224.629V256.806C182.27 256.907 182.245 257.007 182.197 257.096C182.149 257.185 182.08 257.261 181.996 257.318C181.91 257.374 181.811 257.408 181.708 257.416C181.606 257.425 181.503 257.407 181.408 257.365C179.993 256.766 178.471 256.459 176.934 256.465C173.852 256.467 170.897 257.692 168.718 259.872C166.538 262.051 165.313 265.006 165.311 268.088C165.305 269.771 165.671 271.435 166.382 272.961C166.47 273.071 166.517 273.208 166.515 273.349C166.521 273.433 166.511 273.516 166.484 273.595C166.457 273.674 166.414 273.747 166.358 273.809C166.302 273.871 166.235 273.921 166.159 273.956C166.083 273.991 166.001 274.011 165.917 274.013ZM128.232 272.78H164.969C164.083 270.5 163.867 268.013 164.345 265.614C164.823 263.214 165.976 261.001 167.668 259.233C169.361 257.466 171.522 256.219 173.899 255.638C176.276 255.057 178.769 255.166 181.086 255.953V224.933L163.386 207.232H128.308L128.232 272.78Z" fill="#5FD1BE"/>
<path d="M182.11 225.748H164.021C163.858 225.748 163.701 225.683 163.586 225.567C163.47 225.452 163.405 225.295 163.405 225.132V207.119C163.4 206.995 163.433 206.872 163.5 206.767C163.567 206.663 163.664 206.581 163.779 206.533C163.894 206.486 164.02 206.475 164.142 206.501C164.263 206.528 164.373 206.591 164.457 206.683L182.47 224.696C182.558 224.749 182.63 224.825 182.68 224.914C182.729 225.004 182.755 225.105 182.755 225.207C182.734 225.362 182.656 225.502 182.537 225.602C182.418 225.702 182.265 225.754 182.11 225.748ZM164.656 224.515H180.612L164.656 208.56V224.515Z" fill="#5FD1BE"/>
<path d="M154.768 215.168H135.912C135.748 215.168 135.591 215.103 135.476 214.987C135.36 214.872 135.295 214.715 135.295 214.552C135.295 214.388 135.36 214.231 135.476 214.116C135.591 214 135.748 213.935 135.912 213.935H154.768C154.932 213.935 155.088 214 155.204 214.116C155.32 214.231 155.385 214.388 155.385 214.552C155.385 214.715 155.32 214.872 155.204 214.987C155.088 215.103 154.932 215.168 154.768 215.168Z" fill="#5FD1BE"/>
<path d="M160.106 223.141H135.912C135.748 223.141 135.591 223.076 135.476 222.96C135.36 222.845 135.295 222.688 135.295 222.524C135.295 222.361 135.36 222.204 135.476 222.089C135.591 221.973 135.748 221.908 135.912 221.908H160.106C160.269 221.908 160.426 221.973 160.542 222.089C160.657 222.204 160.722 222.361 160.722 222.524C160.722 222.688 160.657 222.845 160.542 222.96C160.426 223.076 160.269 223.141 160.106 223.141Z" fill="#5FD1BE"/>
<path d="M171.236 248.084H135.912C135.748 248.084 135.591 248.019 135.476 247.903C135.36 247.788 135.295 247.631 135.295 247.468C135.295 247.304 135.36 247.147 135.476 247.032C135.591 246.916 135.748 246.851 135.912 246.851H171.236C171.399 246.851 171.556 246.916 171.672 247.032C171.787 247.147 171.852 247.304 171.852 247.468C171.852 247.631 171.787 247.788 171.672 247.903C171.556 248.019 171.399 248.084 171.236 248.084Z" fill="#5FD1BE"/>
<path d="M171.236 240.433H135.912C135.748 240.433 135.591 240.368 135.476 240.253C135.36 240.137 135.295 239.98 135.295 239.817C135.295 239.653 135.36 239.497 135.476 239.381C135.591 239.266 135.748 239.201 135.912 239.201H171.236C171.399 239.201 171.556 239.266 171.672 239.381C171.787 239.497 171.852 239.653 171.852 239.817C171.852 239.98 171.787 240.137 171.672 240.253C171.556 240.368 171.399 240.433 171.236 240.433Z" fill="#5FD1BE"/>
<path d="M171.236 232.451H135.912C135.748 232.451 135.591 232.386 135.476 232.27C135.36 232.155 135.295 231.998 135.295 231.834C135.295 231.671 135.36 231.514 135.476 231.399C135.591 231.283 135.748 231.218 135.912 231.218H171.236C171.399 231.218 171.556 231.283 171.672 231.399C171.787 231.514 171.852 231.671 171.852 231.834C171.852 231.998 171.787 232.155 171.672 232.27C171.556 232.386 171.399 232.451 171.236 232.451Z" fill="#5FD1BE"/>
<path d="M176.915 281C174.37 281.002 171.882 280.249 169.765 278.836C167.648 277.424 165.997 275.415 165.022 273.065C164.047 270.714 163.791 268.127 164.286 265.631C164.782 263.135 166.006 260.842 167.805 259.041C169.604 257.241 171.896 256.015 174.392 255.518C176.888 255.021 179.475 255.275 181.826 256.248C184.178 257.222 186.187 258.871 187.601 260.987C189.016 263.102 189.77 265.59 189.77 268.135C189.768 271.545 188.413 274.814 186.003 277.226C183.593 279.638 180.324 280.995 176.915 281ZM176.915 256.512C174.613 256.51 172.363 257.191 170.449 258.468C168.534 259.746 167.042 261.563 166.16 263.689C165.278 265.815 165.047 268.154 165.496 270.412C165.944 272.669 167.052 274.743 168.68 276.37C170.307 277.997 172.381 279.105 174.638 279.554C176.896 280.003 179.235 279.771 181.361 278.89C183.487 278.008 185.304 276.516 186.581 274.601C187.859 272.687 188.54 270.437 188.538 268.135C188.535 265.053 187.31 262.098 185.131 259.919C182.951 257.74 179.997 256.514 176.915 256.512Z" fill="#5FD1BE"/>
<path d="M175.749 270.211C175.657 270.211 175.567 270.191 175.483 270.154L171.501 268.258C171.355 268.188 171.242 268.064 171.187 267.911C171.132 267.758 171.139 267.59 171.208 267.443C171.241 267.368 171.289 267.301 171.349 267.246C171.409 267.19 171.48 267.148 171.557 267.12C171.634 267.093 171.716 267.081 171.798 267.086C171.879 267.091 171.959 267.113 172.032 267.149L175.749 268.903L181.807 266.106C181.88 266.072 181.96 266.053 182.041 266.049C182.122 266.046 182.202 266.058 182.279 266.086C182.355 266.113 182.425 266.156 182.484 266.211C182.544 266.265 182.592 266.331 182.627 266.405C182.661 266.478 182.68 266.558 182.684 266.639C182.687 266.72 182.675 266.801 182.647 266.877C182.62 266.953 182.577 267.023 182.522 267.083C182.468 267.142 182.402 267.191 182.328 267.225L176.005 270.135C175.926 270.18 175.839 270.206 175.749 270.211Z" fill="#5FD1BE"/>
<path d="M178.01 79.1801H152.01C149.644 79.1749 147.377 78.232 145.705 76.5582C144.033 74.8843 143.093 72.616 143.09 70.2502V37.8102C143.09 37.6368 143.158 37.4705 143.28 37.347C143.401 37.2235 143.567 37.1528 143.74 37.1501H188.1C188.273 37.1528 188.439 37.2235 188.56 37.347C188.682 37.4705 188.75 37.6368 188.75 37.8102V68.4301C188.747 71.2787 187.615 74.01 185.602 76.0251C183.589 78.0403 180.859 79.1749 178.01 79.1801ZM144.4 38.4602V70.2502C144.4 72.272 145.203 74.2112 146.631 75.6418C148.06 77.0725 149.998 77.8775 152.02 77.8802H178.02C180.526 77.8775 182.928 76.8811 184.699 75.1094C186.471 73.3378 187.467 70.9356 187.47 68.4301V38.4301L144.4 38.4602Z" fill="#5FD1BE"/>
<path d="M167.63 63.1201H143.79C143.618 63.1201 143.452 63.0516 143.331 62.9297C143.209 62.8078 143.14 62.6425 143.14 62.4701V51.5401C143.143 51.3685 143.212 51.2047 143.333 51.0834C143.455 50.962 143.619 50.8927 143.79 50.8901H167.63C167.802 50.8927 167.966 50.962 168.087 51.0834C168.208 51.2047 168.278 51.3685 168.28 51.5401V62.4701C168.278 62.6417 168.208 62.8055 168.087 62.9269C167.966 63.0482 167.802 63.1175 167.63 63.1201ZM144.44 61.8201H167.01V52.2001H144.44V61.8201Z" fill="#5FD1BE"/>
<path d="M192.29 38.4602H139.65C139.478 38.4577 139.315 38.3883 139.193 38.267C139.072 38.1457 139.003 37.9818 139 37.8102V26.8802C139 26.7078 139.069 26.5425 139.19 26.4206C139.312 26.2987 139.478 26.2302 139.65 26.2302H192.29C192.462 26.2302 192.628 26.2987 192.75 26.4206C192.872 26.5425 192.94 26.7078 192.94 26.8802V37.8102C192.937 37.9818 192.868 38.1457 192.747 38.267C192.625 38.3883 192.462 38.4577 192.29 38.4602ZM140.29 37.1502H191.63V27.5302H140.3L140.29 37.1502Z" fill="#5FD1BE"/>
<path d="M176.23 31.32H139.65C139.478 31.32 139.312 31.2515 139.19 31.1296C139.069 31.0077 139 30.8424 139 30.67C139 30.4976 139.069 30.3323 139.19 30.2104C139.312 30.0885 139.478 30.02 139.65 30.02H176.23C176.402 30.02 176.568 30.0885 176.69 30.2104C176.812 30.3323 176.88 30.4976 176.88 30.67C176.88 30.8424 176.812 31.0077 176.69 31.1296C176.568 31.2515 176.402 31.32 176.23 31.32Z" fill="#5FD1BE"/>
<path d="M184.56 27.53H174.63C174.458 27.53 174.292 27.4615 174.17 27.3396C174.049 27.2177 173.98 27.0524 173.98 26.88V10.88C173.978 10.7789 174.002 10.6791 174.05 10.59L179.05 0.370004C179.103 0.258717 179.187 0.164859 179.291 0.0993436C179.396 0.0338284 179.517 -0.000635284 179.64 8.86719e-06C179.762 5.81089e-05 179.881 0.0348973 179.984 0.100442C180.087 0.165987 180.169 0.259508 180.22 0.370004L185.22 10.59C185.26 10.6815 185.28 10.7802 185.28 10.88V26.88C185.281 26.9716 185.262 27.0623 185.225 27.1461C185.188 27.2299 185.134 27.3049 185.066 27.3663C184.998 27.4277 184.917 27.474 184.83 27.5022C184.743 27.5304 184.651 27.5399 184.56 27.53ZM175.28 26.23H183.91V11.04L179.6 2.15L175.28 11.04V26.23Z" fill="#5FD1BE"/>
<path d="M179.74 12.9601C179.604 12.9602 179.471 12.9182 179.36 12.84L177.8 11.7101L176.88 12.5101C176.777 12.6004 176.648 12.6558 176.511 12.6684C176.375 12.6809 176.238 12.65 176.12 12.5801L174.18 11.4201C174.035 11.3291 173.931 11.1855 173.89 11.0195C173.849 10.8535 173.874 10.678 173.96 10.53C174.003 10.4563 174.061 10.392 174.129 10.3409C174.198 10.2897 174.276 10.2528 174.359 10.2323C174.442 10.2118 174.528 10.2081 174.612 10.2215C174.697 10.2348 174.778 10.2649 174.85 10.31L176.38 11.22L177.38 10.4C177.493 10.3074 177.634 10.2568 177.78 10.2568C177.926 10.2568 178.067 10.3074 178.18 10.4L179.71 11.5L180.71 10.5C180.836 10.3848 181 10.3208 181.17 10.3208C181.34 10.3208 181.505 10.3848 181.63 10.5L182.63 11.5L184.15 10.4C184.22 10.3499 184.298 10.3139 184.382 10.2943C184.465 10.2747 184.552 10.2718 184.636 10.2857C184.721 10.2996 184.802 10.3302 184.875 10.3755C184.947 10.4209 185.01 10.4802 185.06 10.5501C185.11 10.6188 185.146 10.6967 185.165 10.7793C185.185 10.862 185.188 10.9477 185.174 11.0315C185.16 11.1152 185.129 11.1954 185.084 11.2673C185.039 11.3391 184.98 11.4013 184.91 11.4501L182.91 12.8801C182.783 12.9663 182.631 13.0064 182.478 12.9937C182.325 12.981 182.181 12.9161 182.07 12.81L181.07 11.81L180.07 12.81C179.976 12.889 179.862 12.9409 179.74 12.9601Z" fill="#5FD1BE"/>
<path d="M170.13 27.53H158.88C158.707 27.53 158.54 27.4619 158.417 27.3403C158.293 27.2187 158.223 27.0533 158.22 26.88V5.18002C158.223 5.00672 158.293 4.84141 158.417 4.71979C158.54 4.59817 158.707 4.53001 158.88 4.53003H170.13C170.302 4.53003 170.468 4.59853 170.59 4.72043C170.711 4.84233 170.78 5.00763 170.78 5.18002V26.88C170.78 27.0524 170.711 27.2178 170.59 27.3397C170.468 27.4616 170.302 27.53 170.13 27.53ZM159.53 26.23H169.53V5.83005H159.53V26.23Z" fill="#5FD1BE"/>
<path d="M163.92 10.2202H158.92C158.748 10.2202 158.582 10.1517 158.46 10.0298C158.338 9.90789 158.27 9.74255 158.27 9.57016C158.27 9.39777 158.338 9.23243 158.46 9.11053C158.582 8.98864 158.748 8.92017 158.92 8.92017H163.92C164.092 8.92017 164.258 8.98864 164.38 9.11053C164.502 9.23243 164.57 9.39777 164.57 9.57016C164.57 9.74255 164.502 9.90789 164.38 10.0298C164.258 10.1517 164.092 10.2202 163.92 10.2202Z" fill="#5FD1BE"/>
<path d="M163.92 14.23H158.92C158.827 14.2415 158.733 14.2332 158.644 14.2055C158.554 14.1778 158.472 14.1315 158.402 14.0696C158.332 14.0076 158.276 13.9315 158.237 13.8462C158.199 13.761 158.179 13.6686 158.179 13.575C158.179 13.4815 158.199 13.3891 158.237 13.3038C158.276 13.2185 158.332 13.1424 158.402 13.0805C158.472 13.0186 158.554 12.9722 158.644 12.9446C158.733 12.9169 158.827 12.9086 158.92 12.92H163.92C164.013 12.9086 164.107 12.9169 164.196 12.9446C164.286 12.9722 164.368 13.0186 164.438 13.0805C164.508 13.1424 164.564 13.2185 164.603 13.3038C164.641 13.3891 164.661 13.4815 164.661 13.575C164.661 13.6686 164.641 13.761 164.603 13.8462C164.564 13.9315 164.508 14.0076 164.438 14.0696C164.368 14.1315 164.286 14.1778 164.196 14.2055C164.107 14.2332 164.013 14.2415 163.92 14.23Z" fill="#5FD1BE"/>
<path d="M163.92 18.1201H158.92C158.748 18.1201 158.582 18.0516 158.46 17.9297C158.338 17.8078 158.27 17.6425 158.27 17.4701C158.27 17.2977 158.338 17.1323 158.46 17.0104C158.582 16.8885 158.748 16.8201 158.92 16.8201H163.92C164.092 16.8201 164.258 16.8885 164.38 17.0104C164.502 17.1323 164.57 17.2977 164.57 17.4701C164.57 17.6425 164.502 17.8078 164.38 17.9297C164.258 18.0516 164.092 18.1201 163.92 18.1201Z" fill="#5FD1BE"/>
<path d="M151.01 17.83C150.252 17.8082 149.534 17.4883 149.01 16.94C148.983 16.9252 148.959 16.9047 148.94 16.88C147.54 15.48 146.78 12.88 146.78 9.52002C146.838 8.81581 147.04 8.13101 147.374 7.50824C147.707 6.88547 148.166 6.33803 148.72 5.89999C149.966 4.85756 150.819 3.42216 151.14 1.83001C151.158 1.70692 151.211 1.59153 151.292 1.49759C151.374 1.40364 151.481 1.33508 151.6 1.30001C151.72 1.26591 151.847 1.26762 151.966 1.30493C152.085 1.34224 152.191 1.41352 152.27 1.51001C153.007 2.36318 153.619 3.31587 154.09 4.33999C154.84 5.9601 155.226 7.72482 155.22 9.51001C155.22 12.85 154.46 15.46 153.07 16.86C152.81 17.1519 152.493 17.3882 152.139 17.5548C151.785 17.7215 151.401 17.8151 151.01 17.83ZM149.85 15.94L149.91 15.99C150.043 16.1567 150.212 16.2913 150.404 16.3838C150.596 16.4764 150.807 16.5244 151.02 16.5244C151.233 16.5244 151.444 16.4764 151.636 16.3838C151.828 16.2913 151.997 16.1567 152.13 15.99C153.25 14.85 153.89 12.51 153.89 9.57C153.897 7.97236 153.556 6.3924 152.89 4.94C152.647 4.42329 152.366 3.92527 152.05 3.45001C151.509 4.75639 150.682 5.92496 149.63 6.86999C148.78 7.72999 148.06 8.48001 148.06 9.58001C148.01 12.46 148.69 14.8 149.81 15.94H149.85Z" fill="#5FD1BE"/>
<path d="M153.57 21.0401H148.38C148.208 21.0401 148.042 20.9716 147.92 20.8497C147.798 20.7278 147.73 20.5625 147.73 20.3901V18.3901C147.732 17.8482 147.869 17.3153 148.13 16.8401C148.305 16.5276 148.528 16.2442 148.79 16.0001C148.906 15.9059 149.051 15.8545 149.2 15.8545C149.349 15.8545 149.494 15.9059 149.61 16.0001C149.999 16.3058 150.48 16.472 150.975 16.472C151.47 16.472 151.951 16.3058 152.34 16.0001C152.456 15.9059 152.601 15.8545 152.75 15.8545C152.899 15.8545 153.044 15.9059 153.16 16.0001C153.416 16.2394 153.635 16.5158 153.81 16.8201C154.077 17.3005 154.218 17.8406 154.22 18.3901V20.3901C154.217 20.5617 154.148 20.7255 154.027 20.8469C153.905 20.9682 153.742 21.0375 153.57 21.0401ZM149.03 19.7401H152.92V18.3201C152.92 17.9948 152.837 17.6748 152.68 17.3901L152.6 17.2601C152.098 17.5213 151.541 17.6576 150.975 17.6576C150.409 17.6576 149.852 17.5213 149.35 17.2601C149.35 17.2601 149.35 17.3501 149.27 17.4001C149.112 17.6808 149.029 17.9978 149.03 18.3201V19.7401Z" fill="#5FD1BE"/>
<path d="M153.51 27.53H148.44C148.268 27.5274 148.105 27.4581 147.983 27.3367C147.862 27.2154 147.793 27.0516 147.79 26.88C147.79 26.56 147.79 25.02 147.79 23.51V20.39C147.79 20.2176 147.859 20.0523 147.98 19.9304C148.102 19.8085 148.268 19.74 148.44 19.74H153.63C153.802 19.74 153.968 19.8085 154.09 19.9304C154.212 20.0523 154.28 20.2176 154.28 20.39V22.98C154.28 24.64 154.28 26.53 154.28 26.89C154.282 26.9862 154.262 27.0816 154.222 27.1691C154.182 27.2566 154.123 27.334 154.049 27.3955C153.975 27.457 153.888 27.501 153.795 27.5243C153.702 27.5476 153.604 27.5495 153.51 27.53ZM149.09 26.23H152.87C152.87 25.45 152.87 24.16 152.87 22.97V21.04H149.01V23.49C149.07 24.52 149.08 25.56 149.09 26.23Z" fill="#5FD1BE"/>
<path d="M163.92 22.0002H158.92C158.748 22.0002 158.582 21.9317 158.46 21.8098C158.338 21.6879 158.27 21.5226 158.27 21.3502C158.27 21.1778 158.338 21.0125 158.46 20.8906C158.582 20.7687 158.748 20.7002 158.92 20.7002H163.92C164.092 20.7002 164.258 20.7687 164.38 20.8906C164.502 21.0125 164.57 21.1778 164.57 21.3502C164.57 21.5226 164.502 21.6879 164.38 21.8098C164.258 21.9317 164.092 22.0002 163.92 22.0002Z" fill="#5FD1BE"/>
<path d="M48.0143 83.5803C47.8555 83.5795 47.7034 83.5166 47.5903 83.4051C47.5103 83.3263 47.4541 83.2267 47.428 83.1175C47.4019 83.0083 47.4071 82.894 47.4428 82.7876L53.9874 63.8728C54.0155 63.7893 54.0628 63.7135 54.1256 63.6516L98.0756 19.7016C98.1887 19.5902 98.3409 19.5273 98.4996 19.5265C98.6584 19.5273 98.8106 19.5902 98.9236 19.7016L111.285 32.0718C111.341 32.1268 111.387 32.1927 111.418 32.2655C111.448 32.3384 111.464 32.4167 111.464 32.4958C111.464 32.5749 111.448 32.6532 111.418 32.7261C111.387 32.7989 111.341 32.8648 111.285 32.9198L67.3438 76.8514C67.2806 76.919 67.2013 76.9697 67.1134 76.9988L48.2079 83.5434C48.1466 83.569 48.0807 83.5815 48.0143 83.5803ZM55.0751 64.3982L48.9822 82.0132L66.6433 75.9111L110.059 32.4958L98.5457 20.9737L55.0751 64.3982Z" fill="#5FD1BE"/>
<path d="M48.0143 83.5803C47.8555 83.5795 47.7034 83.5166 47.5903 83.4051C47.5103 83.3263 47.4541 83.2267 47.428 83.1175C47.4019 83.0083 47.4071 82.894 47.4428 82.7876L49.2863 77.4044C49.3166 77.3195 49.3654 77.2423 49.4292 77.1786C49.493 77.1148 49.5701 77.066 49.6551 77.0357C49.7417 77.0079 49.8331 76.9985 49.9236 77.008C50.0141 77.0175 50.1015 77.0458 50.1805 77.091C50.9189 77.5672 51.6048 78.1203 52.2268 78.741C52.8519 79.3623 53.4054 80.0518 53.8768 80.7965C53.9256 80.8722 53.9568 80.9579 53.968 81.0473C53.9791 81.1366 53.97 81.2273 53.9413 81.3127C53.911 81.3976 53.8622 81.4748 53.7984 81.5386C53.7347 81.6023 53.6575 81.6511 53.5726 81.6814L48.1894 83.525C48.1352 83.5545 48.0757 83.5733 48.0143 83.5803ZM50.1805 78.5382L48.9822 82.0132L52.448 80.8057C52.1289 80.3743 51.7776 79.9676 51.3972 79.589C51.0177 79.2097 50.611 78.8585 50.1805 78.5382Z" fill="#5FD1BE"/>
<path d="M67.0398 77.1924C66.9065 77.1924 66.7771 77.148 66.6719 77.0662C66.5668 76.9844 66.4919 76.8699 66.4591 76.7408L65.5926 73.321L62.9748 73.1274C62.8416 73.117 62.7158 73.0623 62.6172 72.9721C62.5187 72.8819 62.4531 72.7614 62.4309 72.6296L61.8226 68.9426H58.7807C58.6218 68.9426 58.4694 68.8794 58.357 68.7671C58.2447 68.6547 58.1816 68.5023 58.1816 68.3434V65.3016L54.4945 64.7024C54.3375 64.6753 54.1975 64.5877 54.1044 64.4584C54.0113 64.3292 53.9727 64.1686 53.9967 64.0111C54.0239 63.8542 54.1115 63.7141 54.2407 63.621C54.37 63.5279 54.5306 63.4893 54.688 63.5133L58.9098 64.1955C59.0506 64.2174 59.1791 64.2888 59.272 64.3969C59.3649 64.5051 59.4162 64.6428 59.4167 64.7854V67.7443H62.3664C62.509 67.7448 62.6467 67.7961 62.7548 67.889C62.8629 67.982 62.9344 68.1104 62.9563 68.2512L63.5739 72.0028L66.1457 72.1964C66.2701 72.2042 66.3889 72.2512 66.4849 72.3307C66.581 72.4102 66.6494 72.5181 66.6803 72.6389L67.6574 76.4826C67.6965 76.6366 67.6728 76.7999 67.5916 76.9365C67.5513 77.0041 67.4982 77.0631 67.4351 77.1102C67.3721 77.1573 67.3004 77.1915 67.2241 77.2109L67.0398 77.1924Z" fill="#5FD1BE"/>
<path d="M58.3476 65.2462C58.2689 65.2463 58.1909 65.2309 58.1182 65.2009C58.0454 65.1708 57.9793 65.1267 57.9236 65.0711C57.8132 64.9575 57.7515 64.8054 57.7515 64.6471C57.7515 64.4887 57.8132 64.3366 57.9236 64.223L100.279 21.8216C100.391 21.7092 100.544 21.646 100.703 21.646C100.862 21.646 101.014 21.7092 101.127 21.8216C101.239 21.9341 101.303 22.0866 101.303 22.2457C101.303 22.4047 101.239 22.5572 101.127 22.6697L58.7255 65.025C58.6802 65.0849 58.6234 65.1353 58.5586 65.1732C58.4937 65.2112 58.422 65.236 58.3476 65.2462Z" fill="#5FD1BE"/>
<path d="M61.8871 69.2466C61.7287 69.2439 61.5773 69.1813 61.4631 69.0715C61.3528 68.9579 61.291 68.8058 61.291 68.6474C61.291 68.4891 61.3528 68.337 61.4631 68.2235L103.865 25.4718C103.92 25.416 103.986 25.3718 104.059 25.3416C104.132 25.3115 104.21 25.2959 104.289 25.2959C104.367 25.2959 104.445 25.3115 104.518 25.3416C104.591 25.3718 104.657 25.416 104.713 25.4718C104.769 25.5268 104.815 25.5926 104.846 25.6655C104.876 25.7383 104.892 25.8166 104.892 25.8957C104.892 25.9749 104.876 26.0532 104.846 26.126C104.815 26.1989 104.769 26.2648 104.713 26.3198L62.3112 69.0715C62.2554 69.1271 62.1893 69.1712 62.1166 69.2012C62.0438 69.2313 61.9659 69.2467 61.8871 69.2466Z" fill="#5FD1BE"/>
<path d="M65.2699 73.6067C65.1912 73.6068 65.1133 73.5914 65.0405 73.5614C64.9678 73.5313 64.9016 73.4872 64.8459 73.4316C64.7356 73.318 64.6738 73.1659 64.6738 73.0076C64.6738 72.8492 64.7356 72.6971 64.8459 72.5836L107.902 29.5461C108.014 29.4337 108.167 29.3705 108.326 29.3705C108.485 29.3705 108.637 29.4337 108.75 29.5461C108.862 29.6586 108.925 29.8111 108.925 29.9702C108.925 30.1292 108.862 30.2817 108.75 30.3941L65.7216 73.4316C65.6634 73.4916 65.5929 73.5383 65.5149 73.5685C65.437 73.5987 65.3534 73.6118 65.2699 73.6067Z" fill="#5FD1BE"/>
<path d="M110.888 33.0948C110.73 33.0903 110.579 33.028 110.464 32.9197L98.0757 20.5495C97.9653 20.436 97.9036 20.2839 97.9036 20.1255C97.9036 19.9672 97.9653 19.8151 98.0757 19.7015L101.283 16.4938C102.25 15.5368 103.555 15 104.915 15C106.275 15 107.58 15.5368 108.547 16.4938L114.502 22.4391C115.461 23.4061 116 24.7132 116 26.0755C116 27.4379 115.461 28.745 114.502 29.7119L111.285 32.9197C111.178 33.0233 111.037 33.0854 110.888 33.0948ZM99.3754 20.1255L110.888 31.6477L113.654 28.8824C114.374 28.1423 114.778 27.1501 114.778 26.117C114.778 25.084 114.374 24.0918 113.654 23.3517L107.699 17.4063C106.959 16.6856 105.967 16.2823 104.934 16.2823C103.901 16.2823 102.908 16.6856 102.168 17.4063L99.3754 20.1255Z" fill="#5FD1BE"/>
<path d="M98.9053 84.502H92.7018C92.5429 84.502 92.3905 84.4389 92.2782 84.3265C92.1658 84.2142 92.1027 84.0617 92.1027 83.9028C92.1027 83.7439 92.1658 83.5915 92.2782 83.4792C92.3905 83.3668 92.5429 83.3037 92.7018 83.3037H98.9053C99.0642 83.3037 99.2166 83.3668 99.329 83.4792C99.4414 83.5915 99.5045 83.7439 99.5045 83.9028C99.5045 84.0617 99.4414 84.2142 99.329 84.3265C99.2166 84.4389 99.0642 84.502 98.9053 84.502ZM87.7058 84.502H43.5991C43.4402 84.502 43.2878 84.4389 43.1755 84.3265C43.0631 84.2142 43 84.0617 43 83.9028C43 83.7439 43.0631 83.5915 43.1755 83.4792C43.2878 83.3668 43.4402 83.3037 43.5991 83.3037H87.6413C87.8002 83.3037 87.9526 83.3668 88.065 83.4792C88.1773 83.5915 88.2404 83.7439 88.2404 83.9028C88.2404 84.0617 88.1773 84.2142 88.065 84.3265C87.9526 84.4389 87.8002 84.502 87.6413 84.502H87.7058Z" fill="#5FD1BE"/>
<path d="M90.1579 87.0001C89.5431 87.0001 88.9421 86.8176 88.4311 86.4759C87.9201 86.1342 87.5219 85.6485 87.2871 85.0803C87.0522 84.5122 86.9913 83.8871 87.1119 83.2843C87.2325 82.6815 87.5293 82.1279 87.9646 81.6939C88.4 81.2598 88.9543 80.9647 89.5575 80.8459C90.1607 80.7271 90.7856 80.7899 91.353 81.0265C91.9205 81.263 92.405 81.6626 92.7452 82.1746C93.0854 82.6867 93.2661 83.2881 93.2642 83.9029C93.2642 84.3104 93.1838 84.7139 93.0276 85.0903C92.8714 85.4666 92.6424 85.8085 92.3538 86.0962C92.0653 86.3839 91.7228 86.6118 91.3459 86.7669C90.9691 86.922 90.5654 87.0013 90.1579 87.0001ZM90.1579 81.9949C89.7805 81.9949 89.4116 82.1067 89.0978 82.3164C88.784 82.5261 88.5395 82.8241 88.395 83.1727C88.2506 83.5214 88.2128 83.905 88.2865 84.2752C88.3601 84.6453 88.5418 84.9853 88.8087 85.2521C89.0755 85.519 89.4155 85.7007 89.7856 85.7743C90.1558 85.848 90.5394 85.8102 90.8881 85.6657C91.2367 85.5213 91.5347 85.2768 91.7444 84.963C91.954 84.6492 92.0659 84.2803 92.0659 83.9029C92.0671 83.652 92.0186 83.4033 91.9232 83.1713C91.8277 82.9392 91.6872 82.7284 91.5098 82.551C91.3324 82.3736 91.1215 82.2331 90.8895 82.1376C90.6574 82.0421 90.4088 81.9937 90.1579 81.9949Z" fill="#5FD1BE"/>
<path d="M34.18 150.799H26.7299C26.5584 150.797 26.3945 150.727 26.2732 150.606C26.1518 150.485 26.0825 150.321 26.08 150.149V126.589C26.0516 125.997 26.1438 125.405 26.3509 124.85C26.558 124.294 26.8757 123.787 27.2847 123.358C27.6937 122.929 28.1856 122.587 28.7306 122.354C29.2755 122.12 29.8621 122 30.455 122C31.0478 122 31.6344 122.12 32.1793 122.354C32.7242 122.587 33.2161 122.929 33.6252 123.358C34.0342 123.787 34.3519 124.294 34.559 124.85C34.7661 125.405 34.8583 125.997 34.83 126.589V150.149C34.83 150.235 34.8131 150.319 34.7805 150.398C34.7478 150.477 34.6999 150.548 34.6396 150.609C34.5792 150.669 34.5075 150.717 34.4287 150.75C34.3498 150.782 34.2653 150.799 34.18 150.799ZM27.3899 149.499H33.5299V126.589C33.5299 126.186 33.4505 125.787 33.2963 125.414C33.142 125.042 32.9158 124.703 32.6308 124.418C32.3457 124.133 32.0073 123.907 31.6348 123.753C31.2623 123.599 30.8631 123.519 30.46 123.519C30.0568 123.519 29.6576 123.599 29.2851 123.753C28.9127 123.907 28.5742 124.133 28.2891 124.418C28.004 124.703 27.7779 125.042 27.6236 125.414C27.4693 125.787 27.3899 126.186 27.3899 126.589V149.499Z" fill="#5FD1BE"/>
<path d="M30.3199 194.119C30.213 194.119 30.1077 194.092 30.0135 194.042C29.9194 193.991 29.8391 193.918 29.7799 193.829L18.8499 177.119C18.7947 177.038 18.7596 176.945 18.7475 176.848C18.7353 176.75 18.7464 176.651 18.7799 176.559L26.1999 154.809C26.244 154.68 26.3276 154.568 26.4388 154.489C26.5501 154.41 26.6834 154.368 26.8199 154.369H34.0999C34.2354 154.367 34.3679 154.409 34.4777 154.488C34.5876 154.567 34.6691 154.68 34.7099 154.809L42.1399 176.569C42.1734 176.663 42.1846 176.764 42.1724 176.862C42.1603 176.961 42.1251 177.056 42.0699 177.139L30.8599 193.829C30.7994 193.917 30.7189 193.989 30.625 194.04C30.5311 194.09 30.4265 194.117 30.3199 194.119ZM20.1099 176.679L30.3199 192.299L40.8099 176.679L33.6299 155.679H27.2799L20.1099 176.679Z" fill="#5FD1BE"/>
<path d="M37.03 155.669H23.89C23.7176 155.669 23.5523 155.601 23.4304 155.479C23.3085 155.357 23.24 155.192 23.24 155.019V150.149C23.24 149.977 23.3085 149.812 23.4304 149.69C23.5523 149.568 23.7176 149.499 23.89 149.499H37.03C37.2024 149.499 37.3677 149.568 37.4896 149.69C37.6115 149.812 37.68 149.977 37.68 150.149V155.019C37.68 155.192 37.6115 155.357 37.4896 155.479C37.3677 155.601 37.2024 155.669 37.03 155.669ZM24.54 154.369H36.38V150.799H24.54V154.369Z" fill="#5FD1BE"/>
<path d="M30.4801 175.909C29.6573 175.909 28.853 175.665 28.1689 175.208C27.4848 174.751 26.9516 174.101 26.6367 173.341C26.3219 172.581 26.2395 171.745 26.4 170.938C26.5605 170.131 26.9567 169.39 27.5385 168.808C28.1203 168.226 28.8615 167.83 29.6685 167.669C30.4755 167.509 31.3119 167.591 32.072 167.906C32.8322 168.221 33.4819 168.754 33.939 169.438C34.3961 170.122 34.6401 170.927 34.6401 171.749C34.6374 172.852 34.1983 173.908 33.4187 174.688C32.6392 175.468 31.5826 175.907 30.4801 175.909ZM30.4801 168.909C29.9144 168.909 29.3615 169.077 28.8912 169.391C28.4208 169.706 28.0542 170.152 27.8378 170.675C27.6213 171.197 27.5647 171.773 27.675 172.327C27.7854 172.882 28.0578 173.392 28.4577 173.792C28.8577 174.192 29.3673 174.464 29.9221 174.574C30.4769 174.685 31.052 174.628 31.5746 174.412C32.0972 174.195 32.5438 173.829 32.8581 173.358C33.1723 172.888 33.3401 172.335 33.3401 171.769C33.3427 171.392 33.2707 171.018 33.1282 170.669C32.9856 170.319 32.7753 170.002 32.5095 169.734C32.2437 169.466 31.9275 169.254 31.5792 169.109C31.2309 168.964 30.8574 168.889 30.4801 168.889V168.909Z" fill="#5FD1BE"/>
<path d="M30.3199 194.119C30.1475 194.119 29.9822 194.051 29.8603 193.929C29.7384 193.807 29.6699 193.642 29.6699 193.469L29.8199 175.239C29.8225 175.069 29.8922 174.906 30.0138 174.786C30.1354 174.666 30.2992 174.599 30.4699 174.599C30.6423 174.599 30.8076 174.668 30.9295 174.79C31.0514 174.912 31.1199 175.077 31.1199 175.249L30.9699 193.519C30.9551 193.682 30.8804 193.833 30.7603 193.944C30.6402 194.055 30.4833 194.118 30.3199 194.119Z" fill="#5FD1BE"/>
<path d="M36.22 201.379H24.7C24.5277 201.379 24.3623 201.311 24.2404 201.189C24.1185 201.067 24.05 200.902 24.05 200.729V194.229C24.05 194.057 24.1185 193.892 24.2404 193.77C24.3623 193.648 24.5277 193.579 24.7 193.579H36.22C36.3924 193.579 36.5578 193.648 36.6797 193.77C36.8016 193.892 36.8701 194.057 36.8701 194.229V200.729C36.8701 200.902 36.8016 201.067 36.6797 201.189C36.5578 201.311 36.3924 201.379 36.22 201.379ZM25.35 200.079H35.57V194.879H25.35V200.079Z" fill="#5FD1BE"/>
<path d="M60.1899 199.779H54.36C54.1866 199.779 54.0202 199.711 53.8968 199.589C53.7733 199.468 53.7026 199.303 53.7 199.129V195.829C53.7026 195.656 53.7733 195.491 53.8968 195.369C54.0202 195.247 54.1866 195.179 54.36 195.179H60.1899C60.3623 195.179 60.5277 195.248 60.6496 195.37C60.7715 195.492 60.8399 195.657 60.8399 195.829V199.129C60.8399 199.302 60.7715 199.467 60.6496 199.589C60.5277 199.711 60.3623 199.779 60.1899 199.779ZM55.0099 198.479H59.5399V196.479H55.0099V198.479Z" fill="#5FD1BE"/>
<path d="M54.3601 198.129H36.2201C36.0477 198.129 35.8824 198.061 35.7605 197.939C35.6386 197.817 35.5701 197.652 35.5701 197.479C35.5701 197.307 35.6386 197.142 35.7605 197.02C35.8824 196.898 36.0477 196.829 36.2201 196.829H54.3601C54.4454 196.829 54.53 196.846 54.6088 196.879C54.6877 196.912 54.7593 196.959 54.8197 197.02C54.8801 197.08 54.9279 197.152 54.9606 197.231C54.9933 197.309 55.0101 197.394 55.0101 197.479C55.0101 197.565 54.9933 197.649 54.9606 197.728C54.9279 197.807 54.8801 197.879 54.8197 197.939C54.7593 197.999 54.6877 198.047 54.6088 198.08C54.53 198.113 54.4454 198.129 54.3601 198.129Z" fill="#5FD1BE"/>
<path d="M6.48 199.779H0.649994C0.477603 199.779 0.312283 199.711 0.190384 199.589C0.0684853 199.467 0 199.302 0 199.129V195.829C0 195.657 0.0684853 195.492 0.190384 195.37C0.312283 195.248 0.477603 195.179 0.649994 195.179H6.48C6.65239 195.179 6.81772 195.248 6.93962 195.37C7.06152 195.492 7.12999 195.657 7.12999 195.829V199.129C7.12999 199.302 7.06152 199.467 6.93962 199.589C6.81772 199.711 6.65239 199.779 6.48 199.779ZM1.3 198.479H5.83V196.479H1.3V198.479Z" fill="#5FD1BE"/>
<path d="M24.6601 198.129H6.48007C6.30768 198.129 6.14235 198.061 6.02045 197.939C5.89855 197.817 5.83008 197.652 5.83008 197.479C5.83008 197.307 5.89855 197.142 6.02045 197.02C6.14235 196.898 6.30768 196.829 6.48007 196.829H24.6201C24.7054 196.829 24.7899 196.846 24.8688 196.879C24.9477 196.912 25.0193 196.959 25.0797 197.02C25.14 197.08 25.1879 197.152 25.2206 197.231C25.2532 197.309 25.2701 197.394 25.2701 197.479C25.2701 197.565 25.2532 197.649 25.2206 197.728C25.1879 197.807 25.14 197.879 25.0797 197.939C25.0193 197.999 24.9477 198.047 24.8688 198.08C24.7899 198.113 24.7054 198.129 24.6201 198.129H24.6601Z" fill="#5FD1BE"/>
<path d="M243.259 106.015C243.379 106.085 243.259 106.795 242.889 108.125C241.889 111.715 238.829 118.625 233.309 128.635L228.639 125.945C234.559 116.155 238.999 110.025 241.639 107.385C242.579 106.415 243.139 105.955 243.259 106.015Z" stroke="#5FD1BE" stroke-width="1.3" stroke-linecap="round" stroke-linejoin="round"/>
<path d="M241.059 147.995C244.739 154.995 244.299 156.845 242.679 163.505L242.199 165.505C241.655 168.109 240.841 170.65 239.769 173.085C238.755 175.427 237.021 177.385 234.819 178.675C232.606 179.531 230.252 179.969 227.879 179.965C225.234 180.01 222.611 180.455 220.099 181.285L219.749 181.415C217.099 182.47 214.362 183.289 211.569 183.865C205.009 184.335 201.399 180.545 197.569 176.535C195.886 174.678 194.056 172.96 192.099 171.395C188.579 168.615 186.479 166.245 185.569 163.565C184.659 160.885 184.949 157.805 186.169 153.565C186.993 150.636 187.404 147.607 187.389 144.565C187.509 139.915 187.609 136.505 194.949 130.565C198.179 127.935 202.839 124.145 206.949 124.875L207.779 125.025C208.999 125.305 209.879 125.565 210.659 125.805C212.576 126.424 214.567 126.787 216.579 126.885C217.709 126.965 218.999 126.985 220.349 127.025C222.741 127.067 225.127 127.281 227.489 127.665H227.569L226.119 130.105L225.039 131.965C224.804 132.369 224.68 132.828 224.679 133.295C224.674 133.596 224.715 133.896 224.799 134.185C225.068 134.155 225.34 134.155 225.609 134.185C225.392 134.2 225.178 134.236 224.969 134.295H224.909C223.279 134.735 221.289 136.395 219.439 139.585C218.539 141.141 217.989 142.874 217.829 144.665C217.729 145.797 217.779 146.936 217.979 148.055C219.2 146.637 220.875 145.686 222.719 145.365C224.059 144.975 225.299 144.625 226.019 143.365C227.869 140.175 228.309 137.605 227.879 135.975C227.876 135.952 227.876 135.928 227.879 135.905C227.833 135.737 227.773 135.573 227.699 135.415C227.833 135.604 227.95 135.805 228.049 136.015C228.344 135.953 228.625 135.838 228.879 135.675C229.297 135.438 229.642 135.093 229.879 134.675C230.259 134.035 230.609 133.415 230.959 132.795C231.309 132.175 232.399 130.225 233.019 129.135C233.369 129.415 234.519 130.445 234.829 130.785C235.329 131.351 235.744 131.988 236.059 132.675C236.934 134.748 237.604 136.901 238.059 139.105C238.685 142.133 239.694 145.07 241.059 147.845V147.995ZM233.679 164.895C235.089 163.775 236.169 162.335 236.169 161.025C236.22 160.452 236.098 159.876 235.818 159.373C235.538 158.87 235.113 158.463 234.599 158.205C233.58 157.785 232.479 157.6 231.379 157.665C230.259 157.605 229.14 157.789 228.099 158.205C227.566 158.447 227.121 158.848 226.826 159.353C226.53 159.858 226.399 160.442 226.449 161.025V162.165V163.385C226.449 165.335 226.799 167.015 228.949 167.015C230.702 166.795 232.349 166.057 233.679 164.895V164.895ZM221.319 172.065C222.709 170.945 223.799 169.495 223.799 168.195C223.852 167.623 223.731 167.048 223.45 166.546C223.17 166.044 222.744 165.639 222.229 165.385C221.211 164.96 220.11 164.776 219.009 164.845C217.89 164.781 216.771 164.962 215.729 165.375C215.195 165.616 214.749 166.017 214.452 166.522C214.155 167.027 214.021 167.611 214.069 168.195V169.305V170.525C214.069 172.525 214.419 174.155 216.569 174.155C218.326 173.948 219.98 173.221 221.319 172.065V172.065ZM206.959 143.065C208.349 141.945 209.439 140.505 209.439 139.185C209.488 138.613 209.365 138.04 209.085 137.539C208.805 137.038 208.382 136.633 207.869 136.375C206.85 135.955 205.749 135.77 204.649 135.835C203.529 135.775 202.41 135.959 201.369 136.375C200.837 136.616 200.392 137.015 200.095 137.518C199.798 138.02 199.663 138.603 199.709 139.185V140.335V141.555C199.709 143.555 200.059 145.185 202.209 145.185C203.971 144.964 205.626 144.219 206.959 143.045V143.065ZM206.789 169.225C208.199 168.095 209.269 166.655 209.269 165.335C209.322 164.765 209.202 164.193 208.924 163.693C208.645 163.193 208.222 162.789 207.709 162.535C206.69 162.116 205.589 161.931 204.489 161.995C203.366 161.934 202.243 162.118 201.199 162.535C200.67 162.775 200.227 163.173 199.932 163.674C199.637 164.175 199.503 164.755 199.549 165.335V166.465V167.695C199.549 169.695 199.909 171.325 202.059 171.325C203.812 171.106 205.459 170.368 206.789 169.205V169.225ZM201.589 155.775C202.999 154.655 204.079 153.215 204.079 151.885C204.13 151.316 204.007 150.745 203.726 150.247C203.446 149.749 203.022 149.347 202.509 149.095C201.491 148.671 200.389 148.486 199.289 148.555C198.17 148.491 197.051 148.672 196.009 149.085C195.478 149.323 195.034 149.721 194.738 150.222C194.443 150.724 194.31 151.305 194.359 151.885V153.015V154.245C194.359 156.245 194.709 157.885 196.859 157.885C198.613 157.662 200.26 156.92 201.589 155.755V155.775Z" stroke="#5FD1BE" stroke-width="1.3" stroke-linecap="round" stroke-linejoin="round"/>
<path d="M236.169 161.025C236.169 162.335 235.089 163.775 233.679 164.895C232.33 166.069 230.656 166.808 228.879 167.015C226.729 167.015 226.379 165.335 226.379 163.385V162.165V161.025C226.329 160.442 226.461 159.858 226.756 159.353C227.052 158.848 227.496 158.447 228.029 158.205C229.07 157.789 230.19 157.605 231.309 157.665C232.409 157.6 233.51 157.785 234.529 158.205C235.056 158.453 235.496 158.855 235.789 159.359C236.082 159.863 236.214 160.444 236.169 161.025V161.025Z" stroke="#5FD1BE" stroke-width="1.3" stroke-linecap="round" stroke-linejoin="round"/>
<path d="M228.639 125.945L233.309 128.635L232.989 129.215L227.609 127.665C228.069 126.905 228.489 126.195 228.639 125.945Z" stroke="#5FD1BE" stroke-width="1.3" stroke-linecap="round" stroke-linejoin="round"/>
<path d="M227.609 127.665L232.989 129.195C232.369 130.285 231.199 132.365 230.929 132.855L226.159 130.105L227.609 127.665Z" stroke="#5FD1BE" stroke-width="1.3" stroke-linecap="round" stroke-linejoin="round"/>
<path d="M226.159 130.125L230.929 132.875C230.579 133.495 230.229 134.115 229.849 134.755C229.612 135.173 229.267 135.518 228.849 135.755C228.595 135.918 228.314 136.033 228.019 136.095C227.92 135.885 227.803 135.684 227.669 135.495C227.495 135.082 227.198 134.733 226.819 134.495C226.452 134.297 226.035 134.21 225.619 134.245V134.245C225.35 134.215 225.078 134.215 224.809 134.245C224.724 133.956 224.684 133.656 224.689 133.355C224.69 132.887 224.814 132.429 225.049 132.025L226.159 130.125Z" stroke="#5FD1BE" stroke-width="1.3" stroke-linecap="round" stroke-linejoin="round"/>
<path d="M227.919 136.015C228.349 137.645 227.919 140.215 226.059 143.405C225.339 144.655 224.059 145.005 222.759 145.405C220.915 145.726 219.24 146.677 218.019 148.095C217.819 146.977 217.769 145.837 217.869 144.705C218.038 142.927 218.591 141.208 219.489 139.665C221.339 136.475 223.329 134.815 224.959 134.375H225.019C225.228 134.317 225.442 134.28 225.659 134.265C226.068 134.315 226.461 134.45 226.815 134.662C227.168 134.874 227.472 135.158 227.709 135.495C227.709 135.495 227.709 135.495 227.709 135.495C227.783 135.653 227.843 135.817 227.889 135.985C227.898 135.996 227.908 136.006 227.919 136.015V136.015Z" stroke="#5FD1BE" stroke-width="1.3" stroke-linecap="round" stroke-linejoin="round"/>
<path d="M227.709 135.435C227.472 135.098 227.168 134.814 226.815 134.602C226.461 134.39 226.068 134.255 225.659 134.205C226.075 134.17 226.492 134.257 226.859 134.455C227.235 134.688 227.532 135.029 227.709 135.435V135.435Z" stroke="#5FD1BE" stroke-width="1.3" stroke-linecap="round" stroke-linejoin="round"/>
<path d="M223.799 168.195C223.799 169.495 222.709 170.945 221.319 172.065C219.967 173.242 218.29 173.982 216.509 174.185C214.359 174.185 214.009 172.505 214.009 170.555V169.335V168.225C213.961 167.641 214.095 167.057 214.392 166.552C214.689 166.047 215.135 165.646 215.669 165.405C216.711 164.992 217.83 164.811 218.949 164.875C220.05 164.806 221.151 164.99 222.169 165.415C222.69 165.658 223.125 166.055 223.417 166.551C223.708 167.048 223.841 167.621 223.799 168.195Z" stroke="#5FD1BE" stroke-width="1.3" stroke-linecap="round" stroke-linejoin="round"/>
<path d="M209.489 139.165C209.489 140.485 208.399 141.925 207.009 143.045C205.657 144.222 203.98 144.962 202.199 145.165C200.049 145.165 199.699 143.485 199.699 141.535V140.315V139.165C199.653 138.583 199.788 138 200.085 137.498C200.382 136.995 200.827 136.596 201.359 136.355C202.4 135.939 203.519 135.754 204.639 135.815C205.739 135.75 206.84 135.935 207.859 136.355C208.383 136.604 208.819 137.005 209.11 137.507C209.401 138.009 209.533 138.587 209.489 139.165V139.165Z" stroke="#5FD1BE" stroke-width="1.3" stroke-linecap="round" stroke-linejoin="round"/>
<path d="M209.269 165.315C209.269 166.635 208.199 168.075 206.789 169.205C205.439 170.377 203.765 171.112 201.989 171.315C199.839 171.315 199.479 169.645 199.479 167.685V166.455V165.325C199.433 164.745 199.567 164.165 199.862 163.664C200.157 163.163 200.6 162.765 201.129 162.525C202.173 162.108 203.296 161.924 204.419 161.985C205.519 161.921 206.62 162.106 207.639 162.525C208.163 162.768 208.6 163.165 208.891 163.664C209.183 164.163 209.315 164.739 209.269 165.315V165.315Z" stroke="#5FD1BE" stroke-width="1.3" stroke-linecap="round" stroke-linejoin="round"/>
<path d="M204.079 151.865C204.079 153.195 202.999 154.635 201.589 155.755C200.239 156.929 198.566 157.668 196.789 157.875C194.639 157.875 194.289 156.205 194.289 154.235V153.005V151.875C194.24 151.295 194.373 150.714 194.668 150.212C194.964 149.71 195.408 149.313 195.939 149.075C196.981 148.662 198.1 148.481 199.219 148.545C200.319 148.476 201.421 148.661 202.439 149.085C202.963 149.326 203.401 149.721 203.694 150.218C203.987 150.715 204.122 151.289 204.079 151.865V151.865Z" stroke="#5FD1BE" stroke-width="1.3" stroke-linecap="round" stroke-linejoin="round"/>
<path d="M199.289 148.535C200.389 148.466 201.491 148.651 202.509 149.075C203.022 149.327 203.446 149.728 203.726 150.226C204.007 150.724 204.13 151.296 204.079 151.865C204.079 153.195 202.999 154.635 201.589 155.755C200.239 156.929 198.566 157.668 196.789 157.875C194.639 157.875 194.289 156.205 194.289 154.235V153.005V151.875C194.24 151.295 194.373 150.714 194.668 150.212C194.964 149.71 195.408 149.313 195.939 149.075C197.002 148.648 198.146 148.464 199.289 148.535Z" stroke="#5FD1BE" stroke-width="1.3" stroke-linecap="round" stroke-linejoin="round"/>
<path d="M207.869 136.355C208.391 136.605 208.825 137.007 209.114 137.509C209.403 138.01 209.534 138.588 209.489 139.165C209.489 140.485 208.399 141.925 207.009 143.045C205.657 144.222 203.98 144.962 202.199 145.165C200.049 145.165 199.699 143.485 199.699 141.535V140.315V139.165C199.653 138.583 199.788 138 200.085 137.498C200.382 136.995 200.827 136.596 201.359 136.355C202.4 135.939 203.519 135.754 204.639 135.815C205.743 135.749 206.847 135.933 207.869 136.355Z" stroke="#5FD1BE" stroke-width="1.3" stroke-linecap="round" stroke-linejoin="round"/>
<path d="M204.489 161.975C205.589 161.911 206.69 162.096 207.709 162.515C208.222 162.769 208.645 163.173 208.924 163.673C209.202 164.173 209.323 164.745 209.269 165.315C209.269 166.635 208.199 168.075 206.789 169.205C205.439 170.377 203.765 171.113 201.989 171.315C199.839 171.315 199.479 169.645 199.479 167.685V166.455V165.325C199.433 164.745 199.567 164.165 199.862 163.664C200.157 163.163 200.6 162.766 201.129 162.525C202.194 162.094 203.342 161.907 204.489 161.975Z" stroke="#5FD1BE" stroke-width="1.3" stroke-linecap="round" stroke-linejoin="round"/>
<path d="M219.009 164.845C220.11 164.775 221.211 164.96 222.229 165.385C222.744 165.639 223.17 166.044 223.451 166.546C223.731 167.048 223.852 167.623 223.799 168.195C223.799 169.495 222.709 170.945 221.319 172.065C219.967 173.242 218.29 173.982 216.509 174.185C214.359 174.185 214.009 172.505 214.009 170.555V169.335V168.225C213.961 167.641 214.095 167.057 214.392 166.552C214.689 166.047 215.135 165.646 215.669 165.405C216.727 164.973 217.868 164.782 219.009 164.845Z" stroke="#5FD1BE" stroke-width="1.3" stroke-linecap="round" stroke-linejoin="round"/>
<path d="M231.379 157.665C232.479 157.6 233.58 157.785 234.599 158.205C235.113 158.463 235.538 158.87 235.818 159.373C236.098 159.876 236.22 160.452 236.169 161.025C236.169 162.335 235.089 163.775 233.679 164.895C232.33 166.069 230.656 166.808 228.879 167.015C226.729 167.015 226.379 165.335 226.379 163.385V162.165V161.025C226.329 160.442 226.461 159.858 226.756 159.353C227.052 158.848 227.496 158.447 228.029 158.205C229.092 157.779 230.236 157.594 231.379 157.665V157.665Z" stroke="#5FD1BE" stroke-width="1.3" stroke-linecap="round" stroke-linejoin="round"/>
<path d="M227.489 127.665C225.114 127.279 222.715 127.065 220.309 127.025C218.959 127.025 217.669 126.965 216.539 126.885C214.527 126.787 212.536 126.424 210.619 125.805C209.839 125.565 208.959 125.305 207.739 125.025L206.909 124.875C202.769 124.145 198.109 127.935 194.909 130.565C187.569 136.565 187.469 139.955 187.349 144.565C187.364 147.607 186.953 150.636 186.129 153.565C184.909 157.775 184.629 160.855 185.529 163.565C186.429 166.275 188.529 168.565 192.059 171.395C194.016 172.96 195.846 174.678 197.529 176.535C201.389 180.535 204.999 184.335 211.529 183.865C214.322 183.289 217.059 182.47 219.709 181.415L220.059 181.285C222.571 180.455 225.194 180.01 227.839 179.965C230.212 179.969 232.566 179.531 234.779 178.675C236.981 177.385 238.715 175.427 239.729 173.085C240.801 170.65 241.615 168.109 242.159 165.505L242.639 163.505C244.259 156.845 244.699 155.045 241.019 147.995V147.925C239.654 145.15 238.646 142.213 238.019 139.185C237.564 136.981 236.894 134.828 236.019 132.755C235.704 132.068 235.29 131.431 234.789 130.865C234.479 130.525 233.329 129.495 232.979 129.215" stroke="#5FD1BE" stroke-width="1.3" stroke-linecap="round" stroke-linejoin="round"/>
<path d="M225.649 134.205C225.432 134.22 225.218 134.256 225.009 134.315H224.949C223.319 134.755 221.329 136.415 219.479 139.605C218.579 141.161 218.029 142.894 217.869 144.685C217.769 145.817 217.819 146.956 218.019 148.075C219.24 146.657 220.915 145.706 222.759 145.385C224.099 144.995 225.339 144.645 226.059 143.385C227.909 140.195 228.349 137.625 227.919 135.995C227.916 135.972 227.916 135.948 227.919 135.925C227.873 135.757 227.813 135.593 227.739 135.435" stroke="#5FD1BE" stroke-width="1.3" stroke-linecap="round" stroke-linejoin="round"/>
<path d="M226.159 130.125L225.079 131.985C224.844 132.389 224.72 132.848 224.719 133.315C224.714 133.616 224.754 133.916 224.839 134.205C225.108 134.175 225.38 134.175 225.649 134.205C226.058 134.255 226.451 134.39 226.805 134.602C227.158 134.814 227.462 135.098 227.699 135.435C227.699 135.435 227.699 135.435 227.699 135.435C227.833 135.624 227.95 135.825 228.049 136.035C228.344 135.973 228.625 135.858 228.879 135.695C229.297 135.458 229.642 135.113 229.879 134.695C230.259 134.055 230.609 133.435 230.959 132.815" stroke="#5FD1BE" stroke-width="1.3" stroke-linecap="round" stroke-linejoin="round"/>
<path d="M228.639 125.945C228.499 126.195 228.069 126.945 227.639 127.685L226.189 130.125L230.959 132.875C231.229 132.385 232.399 130.305 233.019 129.215L233.339 128.635" stroke="#5FD1BE" stroke-width="1.3" stroke-linecap="round" stroke-linejoin="round"/>
<path d="M228.639 125.945L233.309 128.635C238.829 118.635 241.919 111.715 242.889 108.125C243.259 106.795 243.379 106.125 243.259 106.015C243.139 105.905 242.579 106.415 241.619 107.385C238.999 110.025 234.559 116.155 228.639 125.945Z" stroke="#5FD1BE" stroke-width="1.3" stroke-linecap="round" stroke-linejoin="round"/>
</svg>
