<svg width="68" height="80" viewBox="0 0 68 80" fill="none" xmlns="http://www.w3.org/2000/svg">
<path d="M33.94 12.02C35.2063 12.018 36.4446 12.3917 37.4984 13.0938C38.5522 13.7958 39.3741 14.7946 39.86 15.9639C40.3459 17.1332 40.4741 18.4203 40.2283 19.6625C39.9825 20.9046 39.3737 22.0459 38.4791 22.942C37.5844 23.838 36.4441 24.4485 35.2023 24.6963C33.9606 24.9441 32.6732 24.8179 31.5032 24.3338C30.3331 23.8497 29.333 23.0294 28.6293 21.9767C27.9256 20.924 27.5501 19.6862 27.55 18.42C27.5527 16.7252 28.2264 15.1004 29.4239 13.901C30.6214 12.7016 32.2452 12.0253 33.94 12.02Z" stroke="#181A1E" stroke-width="1.3" stroke-linecap="round" stroke-linejoin="round"/>
<path d="M16.6201 75.05H23.4501H44.8201H51.6501V78.8101H16.6201V75.05Z" stroke="#181A1E" stroke-width="1.3" stroke-linecap="round" stroke-linejoin="round"/>
<path d="M41.68 63.1001L44.82 75.0501H23.45L26.59 63.1001H41.68Z" stroke="#181A1E" stroke-width="1.3" stroke-linecap="round" stroke-linejoin="round"/>
<path d="M4.10001 55.4401H64.15C64.974 55.4348 65.7625 55.1037 66.3433 54.5192C66.9241 53.9347 67.25 53.1441 67.25 52.3201V59.4301C67.2447 60.4018 66.8564 61.3322 66.1693 62.0193C65.4822 62.7065 64.5517 63.0948 63.58 63.1001H4.68001C3.70655 63.0974 2.77355 62.7103 2.08427 62.0229C1.395 61.3355 1.00527 60.4035 1 59.4301V52.3201C0.999983 53.1441 1.32596 53.9347 1.90675 54.5192C2.48755 55.1037 3.276 55.4348 4.10001 55.4401V55.4401ZM32.74 59.2701C32.7401 59.5463 32.8224 59.8162 32.9765 60.0453C33.1306 60.2745 33.3495 60.4526 33.6052 60.5569C33.861 60.6612 34.142 60.6869 34.4124 60.6308C34.6828 60.5747 34.9304 60.4393 35.1235 60.2419C35.3167 60.0444 35.4467 59.794 35.4969 59.5224C35.5471 59.2508 35.5152 58.9704 35.4054 58.717C35.2956 58.4636 35.1127 58.2487 34.8802 58.0996C34.6478 57.9505 34.3761 57.8741 34.1 57.8801C33.7375 57.8879 33.3926 58.0382 33.14 58.2983C32.8874 58.5584 32.7473 58.9075 32.75 59.2701H32.74Z" stroke="#181A1E" stroke-width="1.3" stroke-linecap="round" stroke-linejoin="round"/>
<path d="M13.0099 43.3101V44.75V46.1801H7.90991V43.3101H13.0099Z" stroke="#181A1E" stroke-width="1.3" stroke-linecap="round" stroke-linejoin="round"/>
<path d="M38.9799 41.9102V44.7502V47.5902H28.9099V41.9102H38.9799Z" stroke="#181A1E" stroke-width="1.3" stroke-linecap="round" stroke-linejoin="round"/>
<path d="M54.8501 43.3101H59.9501V46.1801H54.8501V44.75V43.3101Z" stroke="#181A1E" stroke-width="1.3" stroke-linecap="round" stroke-linejoin="round"/>
<path d="M32.69 35.83L31.97 31.0201C31.0754 30.8754 30.1976 30.6408 29.3501 30.32L26.3501 34.1201L24.19 32.8701L25.97 28.3401C25.2669 27.7702 24.6236 27.1302 24.0501 26.4301L19.5201 28.2101L18.2701 26.05L22.0801 23.05C21.7468 22.2058 21.5087 21.327 21.37 20.4301L16.5601 19.7101V17.2101L21.37 16.4901C21.5074 15.5895 21.7456 14.7073 22.0801 13.86L21.4501 13.3701L18.2701 10.83L19.5201 8.67004L24.0501 10.45C24.6208 9.74433 25.2643 9.10079 25.97 8.53006L24.19 4.00006L26.3501 2.75006L29.3501 6.56006C30.1947 6.23008 31.0734 5.99529 31.97 5.86005L32.69 1.04004H35.19L35.9201 5.86005C36.8164 5.9965 37.6951 6.23126 38.5401 6.56006L41.5401 2.75006L43.71 4.00006L41.93 8.53006C42.6326 9.10094 43.2728 9.7445 43.84 10.45L48.3801 8.67004L49.6301 10.83L46.4501 13.3701L45.8201 13.86C46.1467 14.7092 46.3814 15.5909 46.5201 16.4901L51.34 17.2101V19.7L46.5201 20.4301C46.3801 21.3257 46.1454 22.2039 45.8201 23.05L49.6301 26.05L48.3801 28.2L43.84 26.4301C43.2701 27.1301 42.6301 27.7701 41.93 28.3401L43.71 32.8701L41.5401 34.1201L38.5401 30.32C37.6921 30.6396 36.8144 30.8741 35.9201 31.0201L35.19 35.83H32.69ZM27.5501 18.42C27.5501 19.6863 27.9257 20.9241 28.6293 21.9767C29.333 23.0294 30.3332 23.8497 31.5032 24.3338C32.6732 24.8179 33.9606 24.9441 35.2023 24.6963C36.4441 24.4486 37.5844 23.838 38.4791 22.942C39.3737 22.0459 39.9825 20.9046 40.2283 19.6625C40.4741 18.4203 40.3459 17.1332 39.86 15.9639C39.3741 14.7947 38.5522 13.7958 37.4984 13.0938C36.4446 12.3917 35.2063 12.0181 33.94 12.0201C32.2444 12.0227 30.6191 12.6982 29.421 13.8981C28.223 15.098 27.5501 16.7244 27.5501 18.42V18.42Z" stroke="#181A1E" stroke-width="1.3" stroke-linecap="round" stroke-linejoin="round"/>
<path d="M7.91 43.3101V46.1801H13.02V43.3101H7.91ZM59.91 43.3101H54.81V46.1801H59.91V43.3101ZM38.91 41.9101H28.91V47.5801H38.99V41.8901L38.91 41.9101ZM31.91 31.0201L32.63 35.8301H35.13L35.86 31.0201C36.7544 30.8742 37.632 30.6397 38.48 30.3201L41.48 34.1201L43.65 32.8701L41.87 28.3401C42.57 27.7701 43.21 27.1301 43.78 26.4301L48.32 28.2001L49.57 26.0501L45.76 23.0501C46.0854 22.204 46.32 21.3257 46.46 20.4301L51.28 19.7001V17.2101L46.46 16.4901C46.3213 15.5909 46.0867 14.7092 45.76 13.8601L46.39 13.3701H63.51C64.4825 13.3727 65.4145 13.7602 66.1022 14.4479C66.7899 15.1356 67.1774 16.0675 67.18 17.0401V52.3601C67.18 53.1841 66.854 53.9747 66.2733 54.5592C65.6925 55.1437 64.904 55.4748 64.08 55.4801H4.10001C3.276 55.4748 2.48755 55.1437 1.90675 54.5592C1.32596 53.9747 0.999983 53.1841 1 52.3601V17.0001C1.00527 16.0266 1.395 15.0947 2.08427 14.4073C2.77355 13.7199 3.70655 13.3327 4.68001 13.3301H21.41L22.04 13.8201C21.7055 14.6673 21.4673 15.5496 21.33 16.4501L16.52 17.1701V19.6701L21.33 20.3901C21.4686 21.2871 21.7068 22.1658 22.04 23.0101L18.23 26.0101L19.48 28.1701L24.01 26.3901C24.5836 27.0902 25.2269 27.7302 25.93 28.3001L24.15 32.8301L26.31 34.0801L29.31 30.2801C30.169 30.6172 31.0603 30.8651 31.97 31.0201H31.91Z" stroke="#181A1E" stroke-width="1.3" stroke-linecap="round" stroke-linejoin="round"/>
<path d="M26.6 63.1001H4.69C3.71654 63.0974 2.78356 62.7103 2.09428 62.0229C1.40501 61.3355 1.01528 60.4035 1.01001 59.4301V17.0001C1.01528 16.0266 1.40501 15.0947 2.09428 14.4073C2.78356 13.7199 3.71654 13.3327 4.69 13.3301H21.42" stroke="#181A1E" stroke-width="1.3" stroke-linecap="round" stroke-linejoin="round"/>
<path d="M46.4699 13.3301H63.5899C64.5625 13.3327 65.4944 13.7202 66.1821 14.4079C66.8698 15.0956 67.2573 16.0276 67.2599 17.0001V59.4301C67.2547 60.4018 66.8664 61.3322 66.1792 62.0193C65.4921 62.7065 64.5617 63.0948 63.5899 63.1001H41.6799" stroke="#181A1E" stroke-width="1.3" stroke-linecap="round" stroke-linejoin="round"/>
<path d="M67.26 52.3201C67.26 53.1441 66.9341 53.9347 66.3533 54.5192C65.7725 55.1037 64.984 55.4348 64.16 55.4401H4.10001C3.276 55.4348 2.48755 55.1037 1.90675 54.5192C1.32596 53.9347 0.999983 53.1441 1 52.3201" stroke="#181A1E" stroke-width="1.3" stroke-linecap="round" stroke-linejoin="round"/>
<path d="M23.45 75.0501L26.59 63.1001H41.68L44.82 75.0501" stroke="#181A1E" stroke-width="1.3" stroke-linecap="round" stroke-linejoin="round"/>
<path d="M34.1 57.8802C34.3749 57.8802 34.6437 57.9617 34.8723 58.1144C35.1008 58.2672 35.279 58.4843 35.3842 58.7383C35.4894 58.9922 35.5169 59.2717 35.4633 59.5414C35.4097 59.811 35.2773 60.0587 35.0829 60.2531C34.8885 60.4475 34.6408 60.5798 34.3712 60.6335C34.1016 60.6871 33.8221 60.6596 33.5681 60.5544C33.3141 60.4492 33.097 60.271 32.9443 60.0424C32.7915 59.8138 32.71 59.5451 32.71 59.2702C32.7087 59.0873 32.7437 58.9059 32.8131 58.7367C32.8825 58.5674 32.9848 58.4137 33.1142 58.2843C33.2435 58.155 33.3973 58.0527 33.5665 57.9833C33.7357 57.9139 33.9171 57.8788 34.1 57.8802Z" stroke="#181A1E" stroke-width="1.3" stroke-linecap="round" stroke-linejoin="round"/>
<path d="M44.8201 75.05H51.6501V78.8101H16.6201V75.05H23.4501H44.8201Z" stroke="#181A1E" stroke-width="1.3" stroke-linecap="round" stroke-linejoin="round"/>
<path d="M33.94 12.02C35.2063 12.018 36.4446 12.3917 37.4984 13.0938C38.5522 13.7958 39.3741 14.7946 39.86 15.9639C40.3459 17.1332 40.4741 18.4203 40.2283 19.6625C39.9825 20.9046 39.3737 22.0459 38.4791 22.942C37.5844 23.838 36.4441 24.4485 35.2023 24.6963C33.9606 24.9441 32.6732 24.8179 31.5032 24.3338C30.3331 23.8497 29.333 23.0294 28.6293 21.9767C27.9256 20.924 27.5501 19.6862 27.55 18.42C27.5527 16.7252 28.2264 15.1004 29.4239 13.901C30.6214 12.7016 32.2452 12.0253 33.94 12.02Z" stroke="#181A1E" stroke-width="1.3" stroke-linecap="round" stroke-linejoin="round"/>
<path d="M21.42 13.33L22.05 13.82C21.7155 14.6673 21.4774 15.5495 21.34 16.45L16.53 17.17V19.67L21.34 20.39C21.4787 21.287 21.7168 22.1657 22.05 23.01L18.24 26.01L19.49 28.17L24.0201 26.39C24.5936 27.0901 25.2369 27.7301 25.94 28.3L24.16 32.83L26.32 34.08L29.32 30.28C30.1676 30.6008 31.0454 30.8353 31.94 30.98L32.66 35.79H35.16L35.89 30.98C36.7844 30.8341 37.6621 30.5996 38.51 30.28L41.51 34.08L43.68 32.83L41.9 28.3C42.6 27.73 43.24 27.09 43.81 26.39L48.35 28.16L49.6 26.01L45.79 23.01C46.1154 22.1639 46.3501 21.2856 46.4901 20.39L51.31 19.66V17.17L46.4901 16.45C46.3514 15.5508 46.1167 14.6691 45.79 13.82L46.42 13.33L49.6 10.79L48.35 8.62997L43.81 10.41C43.2428 9.70443 42.6026 9.06087 41.9 8.48999L43.68 3.95999L41.51 2.70999L38.51 6.51999C37.6651 6.19119 36.7864 5.95643 35.89 5.81998L35.16 1H32.66L31.94 5.81998C31.0434 5.95522 30.1646 6.19001 29.32 6.51999L26.32 2.70999L24.16 3.95999L25.94 8.48999C25.2343 9.06072 24.5908 9.70426 24.0201 10.41L19.49 8.62997L18.24 10.79L21.42 13.33Z" stroke="#181A1E" stroke-width="1.3" stroke-linecap="round" stroke-linejoin="round"/>
<path d="M28.9099 41.9102H38.9799V44.7502V47.5902H28.9099V41.9102Z" stroke="#181A1E" stroke-width="1.3" stroke-linecap="round" stroke-linejoin="round"/>
<path d="M54.8501 43.3101H59.9501V46.1801H54.8501V44.75V43.3101Z" stroke="#181A1E" stroke-width="1.3" stroke-linecap="round" stroke-linejoin="round"/>
<path d="M38.98 44.75H54.85" stroke="#181A1E" stroke-width="1.3" stroke-linecap="round" stroke-linejoin="round"/>
<path d="M13.0099 43.3101H7.90991V46.1801H13.0099V44.75V43.3101Z" stroke="#181A1E" stroke-width="1.3" stroke-linecap="round" stroke-linejoin="round"/>
<path d="M28.87 44.75H13.01" stroke="#181A1E" stroke-width="1.3" stroke-linecap="round" stroke-linejoin="round"/>
</svg>
