<svg width="77" height="77" viewBox="0 0 77 77" fill="none" xmlns="http://www.w3.org/2000/svg">
<path d="M76.0427 76.9514H0.632093C0.464458 76.9514 0.303683 76.8848 0.185147 76.7663C0.0666112 76.6477 4.34329e-07 76.487 4.34329e-07 76.3193V0.908684C-0.000146234 0.783565 0.0368562 0.661225 0.106299 0.557146C0.175741 0.453067 0.274501 0.371944 0.390087 0.324043C0.505674 0.276143 0.632896 0.263612 0.755603 0.288062C0.87831 0.312511 0.990995 0.372837 1.07939 0.461382L19.283 18.7233C19.343 18.7813 19.3907 18.8508 19.4232 18.9277C19.4558 19.0045 19.4726 19.0871 19.4726 19.1706C19.4726 19.2541 19.4558 19.3367 19.4232 19.4135C19.3907 19.4904 19.343 19.5599 19.283 19.6179C19.1632 19.7343 19.0027 19.7995 18.8357 19.7995C18.6686 19.7995 18.5081 19.7343 18.3883 19.6179L1.26416 2.484V75.7359H74.516L37.8852 39.1051C37.8265 39.0463 37.7799 38.9766 37.7481 38.8998C37.7163 38.8231 37.6999 38.7408 37.6999 38.6578C37.6999 38.5747 37.7163 38.4924 37.7481 38.4157C37.7799 38.3389 37.8265 38.2692 37.8852 38.2105C37.944 38.1517 38.0137 38.1051 38.0904 38.0733C38.1672 38.0415 38.2495 38.0252 38.3325 38.0252C38.4156 38.0252 38.4979 38.0415 38.5746 38.0733C38.6514 38.1051 38.7211 38.1517 38.7798 38.2105L76.49 75.9207C76.5786 76.009 76.6389 76.1217 76.6634 76.2444C76.6878 76.3671 76.6753 76.4944 76.6274 76.6099C76.5795 76.7255 76.4983 76.8243 76.3943 76.8937C76.2902 76.9632 76.1678 77.0002 76.0427 77V76.9514Z" fill="#181A1E"/>
<path d="M45.8297 64.4267H13.147C12.9793 64.4267 12.8185 64.3601 12.7 64.2416C12.5815 64.123 12.5149 63.9623 12.5149 63.7946V31.1215C12.5161 30.997 12.5536 30.8756 12.6226 30.772C12.6917 30.6684 12.7894 30.5871 12.9039 30.5381C13.0197 30.4911 13.1467 30.4789 13.2694 30.5031C13.392 30.5273 13.5049 30.5868 13.5943 30.6742L18.9814 36.0711C19.0414 36.1291 19.0891 36.1987 19.1217 36.2755C19.1543 36.3524 19.1711 36.435 19.1711 36.5184C19.1711 36.6019 19.1543 36.6845 19.1217 36.7614C19.0891 36.8382 19.0414 36.9077 18.9814 36.9657C18.8616 37.0822 18.7012 37.1473 18.5341 37.1473C18.3671 37.1473 18.2066 37.0822 18.0868 36.9657L13.779 32.6482V63.1723H44.3031L35.7945 54.7026C35.6758 54.5839 35.6092 54.423 35.6092 54.2552C35.6092 54.0875 35.6758 53.9266 35.7945 53.8079C35.9131 53.6893 36.074 53.6227 36.2418 53.6227C36.4095 53.6227 36.5704 53.6893 36.6891 53.8079L46.2771 63.4056C46.3635 63.4956 46.4222 63.6085 46.4464 63.7309C46.4705 63.8533 46.459 63.98 46.4132 64.0961C46.3559 64.1996 46.2711 64.2853 46.1681 64.3436C46.0651 64.402 45.948 64.4307 45.8297 64.4267ZM31.7978 50.3656C31.7148 50.3657 31.6325 50.3494 31.5558 50.3177C31.479 50.286 31.4093 50.2395 31.3505 50.1808L23.4934 42.2848C23.4346 42.2261 23.388 42.1564 23.3561 42.0797C23.3243 42.0029 23.3079 41.9206 23.3079 41.8375C23.3079 41.7544 23.3243 41.6722 23.3561 41.5954C23.388 41.5187 23.4346 41.4489 23.4934 41.3902C23.6132 41.2738 23.7737 41.2087 23.9407 41.2087C24.1078 41.2087 24.2683 41.2738 24.388 41.3902L32.2354 49.2862C32.324 49.3746 32.3843 49.4873 32.4087 49.61C32.4332 49.7327 32.4207 49.8599 32.3728 49.9755C32.3249 50.0911 32.2437 50.1899 32.1397 50.2593C32.0356 50.3287 31.9132 50.3657 31.7881 50.3656H31.7978Z" fill="#181A1E"/>
<path d="M21.5293 19.5402C20.6425 19.501 19.8072 19.113 19.2052 18.4608C17.5229 16.7785 16.6283 13.696 16.6283 9.70906C16.6189 7.59307 17.0771 5.50114 17.9703 3.58285C18.529 2.36814 19.2521 1.23603 20.1193 0.218313C20.2003 0.127312 20.3052 0.0608522 20.4221 0.0264744C20.539 -0.00790329 20.6632 -0.00881878 20.7805 0.0238333C20.8966 0.0579301 21.0004 0.124614 21.0797 0.215969C21.159 0.307323 21.2104 0.419509 21.2278 0.539211C21.5779 2.84383 22.8907 4.19548 24.1451 5.48879C25.3995 6.7821 26.4303 7.84203 26.4303 9.70906C26.4303 13.6668 25.5259 16.7591 23.8825 18.4024C23.586 18.7395 23.225 19.0138 22.8209 19.2092C22.4167 19.4045 21.9776 19.5171 21.5293 19.5402ZM20.0318 17.5175C20.4094 17.9401 20.9352 18.2013 21.5001 18.2468C22.0411 18.2132 22.5473 17.9688 22.9101 17.5662C24.3493 16.127 25.1369 13.2778 25.1369 9.70906C25.1369 8.34768 24.252 7.44334 23.1921 6.38341C21.8619 5.20937 20.8402 3.72684 20.2165 2.06589C19.7629 2.70932 19.3691 3.39286 19.0399 4.10797C18.2244 5.86212 17.806 7.77462 17.8147 9.70906C17.8827 13.2973 18.6704 16.127 20.0318 17.5175Z" fill="#181A1E"/>
<path d="M24.6118 23.3714H18.4175C18.3349 23.3727 18.253 23.3576 18.1763 23.3269C18.0997 23.2962 18.0299 23.2505 17.9711 23.1926C17.9123 23.1347 17.8656 23.0657 17.8337 22.9895C17.8018 22.9134 17.7854 22.8316 17.7854 22.7491C17.7854 21.9517 17.7854 21.1349 17.7854 20.3083C17.7842 19.6773 17.9485 19.057 18.2619 18.5094C18.4585 18.1476 18.7112 17.8194 19.0107 17.5369C19.1225 17.4436 19.2636 17.3925 19.4094 17.3925C19.5551 17.3925 19.6962 17.4436 19.808 17.5369C20.3075 17.9144 20.913 18.1253 21.5389 18.1398C22.1557 18.1239 22.7514 17.9128 23.2407 17.5369C23.3541 17.4429 23.4968 17.3914 23.6442 17.3914C23.7916 17.3914 23.9343 17.4429 24.0478 17.5369C24.3487 17.818 24.6017 18.1465 24.7965 18.5094C25.1024 19.0561 25.2631 19.6721 25.2633 20.2986C25.2633 21.1251 25.2633 21.942 25.2633 22.7394C25.2647 22.8244 25.2487 22.9089 25.2162 22.9875C25.1837 23.0661 25.1354 23.1372 25.0744 23.1965C25.0133 23.2557 24.9408 23.3018 24.8612 23.3319C24.7816 23.362 24.6967 23.3754 24.6118 23.3714V23.3714ZM19.0496 22.1073H23.9894V20.3083C23.9916 19.8955 23.8842 19.4895 23.6782 19.1317C23.6256 19.0343 23.5672 18.9401 23.5032 18.8497C22.9095 19.187 22.2411 19.3708 21.5584 19.3845C20.8763 19.3665 20.2089 19.1829 19.6135 18.8497C19.5442 18.9384 19.4824 19.0327 19.4288 19.1317C19.2262 19.4904 19.1222 19.8964 19.1273 20.3083L19.0496 22.1073Z" fill="#181A1E"/>
<path d="M24.5437 28.846H18.4855C18.3196 28.846 18.1603 28.7808 18.042 28.6643C17.9237 28.5479 17.856 28.3896 17.8535 28.2237C17.8535 27.4749 17.7951 23.5366 17.7854 22.749C17.7863 22.5815 17.8526 22.4209 17.9702 22.3017C18.0274 22.2403 18.0967 22.1914 18.1736 22.158C18.2506 22.1245 18.3336 22.1072 18.4175 22.1072H24.6118C24.6971 22.1071 24.7816 22.1242 24.8602 22.1577C24.9387 22.1911 25.0097 22.2401 25.0688 22.3017C25.1275 22.3599 25.1735 22.4298 25.2036 22.5068C25.2338 22.5838 25.2475 22.6663 25.2438 22.749L25.1757 28.2237C25.1732 28.3896 25.1055 28.5479 24.9872 28.6643C24.869 28.7808 24.7096 28.846 24.5437 28.846V28.846ZM19.1079 27.5819H23.9213L23.9797 23.3713H19.0593C19.069 24.4799 19.0982 26.5025 19.1079 27.5819V27.5819Z" fill="#181A1E"/>
<path d="M21.5097 56.4919C20.9846 56.4919 20.7318 56.0932 20.1191 53.7594C18.9231 49.2377 18.1257 40.1456 17.8923 28.2238C17.8947 28.0537 17.9606 27.8907 18.0771 27.7668C18.1964 27.6492 18.3569 27.5829 18.5244 27.582H24.5825C24.753 27.5824 24.9167 27.6486 25.0395 27.7668C25.0976 27.8275 25.1431 27.8992 25.1731 27.9777C25.2032 28.0562 25.2173 28.1398 25.2146 28.2238C24.9812 40.1553 24.1936 49.2182 22.9878 53.7594C22.3557 56.0057 22.1029 56.4919 21.5097 56.4919ZM19.137 28.8462C19.3801 40.379 20.1094 49.0918 21.2958 53.4385C21.3833 53.7399 21.4513 54.0025 21.5194 54.2164C21.5778 54.0025 21.6458 53.7399 21.7333 53.4385C22.8808 49.0724 23.6782 40.3595 23.9018 28.8462H19.137Z" fill="#181A1E"/>
<path d="M34.5013 58.6408C34.367 58.6426 34.2358 58.601 34.1271 58.5221C34.0185 58.4433 33.9382 58.3314 33.8984 58.2032L30.1643 46.7968C30.1549 46.729 30.1549 46.6603 30.1643 46.5926V7.20984C30.1643 7.0422 30.2309 6.88143 30.3494 6.76289C30.468 6.64435 30.6287 6.57776 30.7964 6.57776H38.2451C38.4127 6.57776 38.5735 6.64435 38.692 6.76289C38.8105 6.88143 38.8771 7.0422 38.8771 7.20984V46.5926C38.8866 46.6603 38.8866 46.729 38.8771 46.7968L35.0945 58.2032C35.0565 58.3306 34.978 58.4422 34.871 58.5212C34.764 58.6001 34.6342 58.6421 34.5013 58.6408V58.6408ZM31.3993 46.4953L34.5013 55.9764L37.5838 46.4953V7.8419H31.3993V46.4953Z" fill="#181A1E"/>
<path d="M38.3034 47.2441C38.1499 47.2439 38.0016 47.1887 37.8853 47.0885L36.9129 46.2522L36.3489 46.9816C36.2936 47.0537 36.2231 47.1129 36.1425 47.1549C36.0618 47.1969 35.973 47.2207 35.8821 47.2247C35.7901 47.2324 35.6975 47.2189 35.6115 47.1852C35.5255 47.1514 35.4484 47.0984 35.3862 47.0302L34.4138 46.0578L33.7817 47.0302C33.7252 47.1148 33.6484 47.184 33.5585 47.2315C33.4685 47.2791 33.3681 47.3034 33.2663 47.3024V47.3024C33.1631 47.3042 33.061 47.2802 32.9694 47.2327C32.8777 47.1851 32.7993 47.1156 32.7412 47.0302L32.1092 46.0578L31.1368 47.0302C31.017 47.1466 30.8565 47.2117 30.6894 47.2117C30.5224 47.2117 30.3619 47.1466 30.2421 47.0302C30.1821 46.9721 30.1344 46.9026 30.1018 46.8258C30.0693 46.7489 30.0525 46.6663 30.0525 46.5829C30.0525 46.4994 30.0693 46.4168 30.1018 46.3399C30.1344 46.2631 30.1821 46.1936 30.2421 46.1356L31.7202 44.5505C31.7851 44.4835 31.8639 44.4317 31.9511 44.3988C32.0384 44.3659 32.1318 44.3526 32.2248 44.3601C32.3177 44.3675 32.4078 44.3954 32.4887 44.4418C32.5696 44.4882 32.6392 44.5519 32.6926 44.6283L33.2372 45.4354L33.7817 44.6283C33.8345 44.5482 33.9049 44.4812 33.9874 44.4324C34.07 44.3835 34.1626 44.3541 34.2582 44.3463C34.3525 44.339 34.4473 44.3536 34.535 44.3891C34.6227 44.4245 34.701 44.4797 34.7638 44.5505L35.7362 45.591L36.3586 44.9784C36.4115 44.9106 36.4775 44.8542 36.5527 44.8124C36.6279 44.7706 36.7107 44.7444 36.7962 44.7353C36.8821 44.7255 36.9691 44.7344 37.0514 44.7612C37.1336 44.788 37.2091 44.8323 37.2727 44.8909L38.7313 46.1744C38.8249 46.2599 38.8907 46.3716 38.92 46.4949C38.9494 46.6182 38.941 46.7476 38.8959 46.8661C38.8508 46.9845 38.7711 47.0867 38.6672 47.1594C38.5633 47.232 38.4399 47.2717 38.3132 47.2733L38.3034 47.2441Z" fill="#181A1E"/>
<path d="M38.2158 7.84194H30.7671C30.5994 7.84194 30.4387 7.77534 30.3201 7.65681C30.2016 7.53827 30.135 7.37751 30.135 7.20988V4.29264C30.135 3.83164 30.2258 3.37517 30.4022 2.94926C30.5786 2.52336 30.8372 2.13637 31.1632 1.8104C31.4892 1.48443 31.8761 1.22586 32.302 1.04944C32.728 0.873027 33.1844 0.782227 33.6454 0.782227H35.386C36.3154 0.784801 37.2058 1.15578 37.862 1.81383C38.5182 2.47188 38.8867 3.3633 38.8867 4.29264V7.20988C38.8869 7.29626 38.8694 7.38176 38.8352 7.4611C38.801 7.54043 38.7509 7.61191 38.688 7.67114C38.6252 7.73037 38.5508 7.77609 38.4696 7.80547C38.3884 7.83485 38.302 7.84726 38.2158 7.84194V7.84194ZM31.4089 6.5778H37.5934V4.33153C37.5934 3.73746 37.3581 3.16759 36.9389 2.74661C36.5198 2.32563 35.9509 2.08783 35.3569 2.08526H33.6551C33.0602 2.08782 32.4903 2.3253 32.0696 2.746C31.6489 3.16671 31.4114 3.73657 31.4089 4.33153V6.5778Z" fill="#181A1E"/>
<path d="M6.96248 17.3424H0.632092C0.464457 17.3424 0.303682 17.2758 0.185147 17.1573C0.0666108 17.0387 0 16.8779 0 16.7103C0 16.5427 0.0666108 16.3819 0.185147 16.2634C0.303682 16.1448 0.464457 16.0782 0.632092 16.0782H6.96248C7.13012 16.0782 7.29089 16.1448 7.40943 16.2634C7.52796 16.3819 7.59457 16.5427 7.59457 16.7103C7.59457 16.8779 7.52796 17.0387 7.40943 17.1573C7.29089 17.2758 7.13012 17.3424 6.96248 17.3424Z" fill="#181A1E"/>
<path d="M4.71621 22.0877H0.632092C0.464457 22.0877 0.303682 22.0212 0.185147 21.9026C0.0666108 21.7841 0 21.6233 0 21.4557C0 21.288 0.0666108 21.1273 0.185147 21.0087C0.303682 20.8902 0.464457 20.8236 0.632092 20.8236H4.71621C4.88384 20.8236 5.04462 20.8902 5.16316 21.0087C5.28169 21.1273 5.34827 21.288 5.34827 21.4557C5.34827 21.6233 5.28169 21.7841 5.16316 21.9026C5.04462 22.0212 4.88384 22.0877 4.71621 22.0877Z" fill="#181A1E"/>
<path d="M6.96248 26.8235H0.632092C0.464457 26.8235 0.303682 26.7569 0.185147 26.6383C0.0666108 26.5198 0 26.359 0 26.1914C0 26.0238 0.0666108 25.863 0.185147 25.7445C0.303682 25.6259 0.464457 25.5593 0.632092 25.5593H6.96248C7.13012 25.5593 7.29089 25.6259 7.40943 25.7445C7.52796 25.863 7.59457 26.0238 7.59457 26.1914C7.59457 26.359 7.52796 26.5198 7.40943 26.6383C7.29089 26.7569 7.13012 26.8235 6.96248 26.8235Z" fill="#181A1E"/>
<path d="M4.71621 31.5589H0.632092C0.464457 31.5589 0.303682 31.4923 0.185147 31.3738C0.0666108 31.2553 0 31.0945 0 30.9269C0 30.7592 0.0666108 30.5985 0.185147 30.4799C0.303682 30.3614 0.464457 30.2948 0.632092 30.2948H4.71621C4.88384 30.2948 5.04462 30.3614 5.16316 30.4799C5.28169 30.5985 5.34827 30.7592 5.34827 30.9269C5.34827 31.0945 5.28169 31.2553 5.16316 31.3738C5.04462 31.4923 4.88384 31.5589 4.71621 31.5589Z" fill="#181A1E"/>
<path d="M6.96248 36.2948H0.632092C0.464457 36.2948 0.303682 36.2282 0.185147 36.1096C0.0666108 35.9911 0 35.8303 0 35.6627C0 35.4951 0.0666108 35.3343 0.185147 35.2158C0.303682 35.0972 0.464457 35.0306 0.632092 35.0306H6.96248C7.13012 35.0306 7.29089 35.0972 7.40943 35.2158C7.52796 35.3343 7.59457 35.4951 7.59457 35.6627C7.59457 35.8303 7.52796 35.9911 7.40943 36.1096C7.29089 36.2282 7.13012 36.2948 6.96248 36.2948Z" fill="#181A1E"/>
<path d="M4.71621 41.0305H0.632092C0.464457 41.0305 0.303682 40.9639 0.185147 40.8454C0.0666108 40.7268 0 40.5661 0 40.3984C0 40.2308 0.0666108 40.07 0.185147 39.9515C0.303682 39.833 0.464457 39.7664 0.632092 39.7664H4.71621C4.88384 39.7664 5.04462 39.833 5.16316 39.9515C5.28169 40.07 5.34827 40.2308 5.34827 40.3984C5.34827 40.5661 5.28169 40.7268 5.16316 40.8454C5.04462 40.9639 4.88384 41.0305 4.71621 41.0305Z" fill="#181A1E"/>
<path d="M6.96248 45.7563H0.632092C0.464457 45.7563 0.303682 45.6897 0.185147 45.5712C0.0666108 45.4527 0 45.2919 0 45.1243C0 44.9566 0.0666108 44.7959 0.185147 44.6773C0.303682 44.5588 0.464457 44.4922 0.632092 44.4922H6.96248C7.13012 44.4922 7.29089 44.5588 7.40943 44.6773C7.52796 44.7959 7.59457 44.9566 7.59457 45.1243C7.59457 45.2919 7.52796 45.4527 7.40943 45.5712C7.29089 45.6897 7.13012 45.7563 6.96248 45.7563Z" fill="#181A1E"/>
<path d="M4.71621 50.492H0.632092C0.464457 50.492 0.303682 50.4254 0.185147 50.3069C0.0666108 50.1884 0 50.0276 0 49.86C0 49.6923 0.0666108 49.5316 0.185147 49.413C0.303682 49.2945 0.464457 49.2279 0.632092 49.2279H4.71621C4.88384 49.2279 5.04462 49.2945 5.16316 49.413C5.28169 49.5316 5.34827 49.6923 5.34827 49.86C5.34827 50.0276 5.28169 50.1884 5.16316 50.3069C5.04462 50.4254 4.88384 50.492 4.71621 50.492V50.492Z" fill="#181A1E"/>
<path d="M6.96248 55.2276H0.632092C0.464457 55.2276 0.303682 55.161 0.185147 55.0425C0.0666108 54.924 0 54.7632 0 54.5956C0 54.4279 0.0666108 54.2672 0.185147 54.1486C0.303682 54.0301 0.464457 53.9635 0.632092 53.9635H6.96248C7.13012 53.9635 7.29089 54.0301 7.40943 54.1486C7.52796 54.2672 7.59457 54.4279 7.59457 54.5956C7.59457 54.7632 7.52796 54.924 7.40943 55.0425C7.29089 55.161 7.13012 55.2276 6.96248 55.2276V55.2276Z" fill="#181A1E"/>
<path d="M4.71621 59.9731H0.632092C0.464457 59.9731 0.303682 59.9065 0.185147 59.788C0.0666108 59.6695 0 59.5087 0 59.3411C0 59.1734 0.0666108 59.0127 0.185147 58.8941C0.303682 58.7756 0.464457 58.709 0.632092 58.709H4.71621C4.88384 58.709 5.04462 58.7756 5.16316 58.8941C5.28169 59.0127 5.34827 59.1734 5.34827 59.3411C5.34827 59.5087 5.28169 59.6695 5.16316 59.788C5.04462 59.9065 4.88384 59.9731 4.71621 59.9731Z" fill="#181A1E"/>
<path d="M6.96248 64.7086H0.632092C0.464457 64.7086 0.303682 64.642 0.185147 64.5235C0.0666108 64.4049 0 64.2442 0 64.0765C0 63.9089 0.0666108 63.7481 0.185147 63.6296C0.303682 63.511 0.464457 63.4445 0.632092 63.4445H6.96248C7.13012 63.4445 7.29089 63.511 7.40943 63.6296C7.52796 63.7481 7.59457 63.9089 7.59457 64.0765C7.59457 64.2442 7.52796 64.4049 7.40943 64.5235C7.29089 64.642 7.13012 64.7086 6.96248 64.7086Z" fill="#181A1E"/>
<path d="M4.71621 69.4444H0.632092C0.464457 69.4444 0.303682 69.3778 0.185147 69.2593C0.0666108 69.1408 0 68.98 0 68.8124C0 68.6447 0.0666108 68.484 0.185147 68.3654C0.303682 68.2469 0.464457 68.1803 0.632092 68.1803H4.71621C4.88384 68.1803 5.04462 68.2469 5.16316 68.3654C5.28169 68.484 5.34827 68.6447 5.34827 68.8124C5.34827 68.98 5.28169 69.1408 5.16316 69.2593C5.04462 69.3778 4.88384 69.4444 4.71621 69.4444Z" fill="#181A1E"/>
<path d="M11.9121 76.4165C11.7445 76.4165 11.5837 76.3499 11.4652 76.2314C11.3466 76.1129 11.28 75.9521 11.28 75.7845V69.4443C11.28 69.2767 11.3466 69.1159 11.4652 68.9974C11.5837 68.8789 11.7445 68.8123 11.9121 68.8123C12.0797 68.8123 12.2405 68.8789 12.359 68.9974C12.4776 69.1159 12.5442 69.2767 12.5442 69.4443V75.7845C12.5442 75.9521 12.4776 76.1129 12.359 76.2314C12.2405 76.3499 12.0797 76.4165 11.9121 76.4165V76.4165Z" fill="#181A1E"/>
<path d="M16.6477 76.4166C16.4801 76.4166 16.3193 76.35 16.2008 76.2315C16.0822 76.1129 16.0156 75.9521 16.0156 75.7845V71.6907C16.0156 71.523 16.0822 71.3622 16.2008 71.2437C16.3193 71.1252 16.4801 71.0586 16.6477 71.0586C16.8154 71.0586 16.9761 71.1252 17.0946 71.2437C17.2132 71.3622 17.2798 71.523 17.2798 71.6907V75.7845C17.2798 75.9521 17.2132 76.1129 17.0946 76.2315C16.9761 76.35 16.8154 76.4166 16.6477 76.4166Z" fill="#181A1E"/>
<path d="M21.3833 76.4165C21.2164 76.414 21.0571 76.3466 20.9391 76.2286C20.8211 76.1106 20.7537 75.9513 20.7512 75.7845V69.4443C20.7512 69.2767 20.8178 69.1159 20.9363 68.9974C21.0549 68.8789 21.2156 68.8123 21.3833 68.8123C21.5509 68.8123 21.7117 68.8789 21.8302 68.9974C21.9488 69.1159 22.0153 69.2767 22.0153 69.4443V75.7845C22.0153 75.9521 21.9488 76.1129 21.8302 76.2314C21.7117 76.3499 21.5509 76.4165 21.3833 76.4165Z" fill="#181A1E"/>
<path d="M26.1191 76.4166C25.9523 76.4141 25.793 76.3467 25.675 76.2287C25.557 76.1107 25.4896 75.9514 25.4871 75.7845V71.6907C25.4871 71.523 25.5536 71.3622 25.6722 71.2437C25.7907 71.1252 25.9515 71.0586 26.1191 71.0586C26.2868 71.0586 26.4475 71.1252 26.5661 71.2437C26.6846 71.3622 26.7512 71.523 26.7512 71.6907V75.7845C26.7512 75.9521 26.6846 76.1129 26.5661 76.2315C26.4475 76.35 26.2868 76.4166 26.1191 76.4166Z" fill="#181A1E"/>
<path d="M30.8547 76.4165C30.6871 76.4165 30.5263 76.3499 30.4078 76.2314C30.2892 76.1129 30.2227 75.9521 30.2227 75.7845V69.4443C30.2227 69.2767 30.2892 69.1159 30.4078 68.9974C30.5263 68.8789 30.6871 68.8123 30.8547 68.8123C31.0224 68.8123 31.1831 68.8789 31.3017 68.9974C31.4202 69.1159 31.4868 69.2767 31.4868 69.4443V75.7845C31.4868 75.9521 31.4202 76.1129 31.3017 76.2314C31.1831 76.3499 31.0224 76.4165 30.8547 76.4165Z" fill="#181A1E"/>
<path d="M35.5903 76.4166C35.4235 76.4141 35.2642 76.3467 35.1462 76.2287C35.0282 76.1107 34.9608 75.9513 34.9583 75.7845V71.6906C34.9775 71.5353 35.0529 71.3923 35.1702 71.2886C35.2875 71.1849 35.4386 71.1277 35.5952 71.1277C35.7517 71.1277 35.9029 71.1849 36.0202 71.2886C36.1375 71.3923 36.2129 71.5353 36.2321 71.6906V75.7845C36.2296 75.953 36.1608 76.1138 36.0407 76.232C35.9206 76.3503 35.7589 76.4166 35.5903 76.4166V76.4166Z" fill="#181A1E"/>
<path d="M40.3259 76.4165C40.1591 76.414 39.9998 76.3466 39.8818 76.2286C39.7638 76.1106 39.6964 75.9513 39.6938 75.7844V69.4443C39.7131 69.2889 39.7885 69.1459 39.9058 69.0422C40.0231 68.9386 40.1742 68.8813 40.3308 68.8813C40.4873 68.8813 40.6385 68.9386 40.7558 69.0422C40.8731 69.1459 40.9485 69.2889 40.9677 69.4443V75.7844C40.9652 75.9529 40.8964 76.1137 40.7763 76.232C40.6562 76.3502 40.4945 76.4165 40.3259 76.4165V76.4165Z" fill="#181A1E"/>
<path d="M45.1103 76.4166C44.9427 76.4166 44.7819 76.35 44.6634 76.2315C44.5449 76.1129 44.4783 75.9521 44.4783 75.7845V71.6907C44.4783 71.523 44.5449 71.3622 44.6634 71.2437C44.7819 71.1252 44.9427 71.0586 45.1103 71.0586C45.278 71.0586 45.4387 71.1252 45.5573 71.2437C45.6758 71.3622 45.7424 71.523 45.7424 71.6907V75.7845C45.7424 75.8675 45.7261 75.9497 45.6943 76.0264C45.6625 76.1031 45.616 76.1728 45.5573 76.2315C45.4986 76.2901 45.4289 76.3367 45.3522 76.3685C45.2755 76.4002 45.1933 76.4166 45.1103 76.4166Z" fill="#181A1E"/>
<path d="M49.8071 76.4165C49.6395 76.4165 49.4787 76.3499 49.3602 76.2314C49.2417 76.1129 49.175 75.9521 49.175 75.7845V69.4443C49.175 69.2767 49.2417 69.1159 49.3602 68.9974C49.4787 68.8789 49.6395 68.8123 49.8071 68.8123C49.9747 68.8123 50.1355 68.8789 50.2541 68.9974C50.3726 69.1159 50.4392 69.2767 50.4392 69.4443V75.7845C50.4392 75.9521 50.3726 76.1129 50.2541 76.2314C50.1355 76.3499 49.9747 76.4165 49.8071 76.4165V76.4165Z" fill="#181A1E"/>
<path d="M54.5427 76.4166C54.3751 76.4166 54.2143 76.35 54.0958 76.2315C53.9773 76.1129 53.9106 75.9521 53.9106 75.7845V71.6907C53.9106 71.523 53.9773 71.3622 54.0958 71.2437C54.2143 71.1252 54.3751 71.0586 54.5427 71.0586C54.7104 71.0586 54.8711 71.1252 54.9897 71.2437C55.1082 71.3622 55.1748 71.523 55.1748 71.6907V75.7845C55.1748 75.8675 55.1584 75.9497 55.1267 76.0264C55.0949 76.1031 55.0483 76.1728 54.9897 76.2315C54.931 76.2901 54.8613 76.3367 54.7846 76.3685C54.7079 76.4002 54.6257 76.4166 54.5427 76.4166Z" fill="#181A1E"/>
<path d="M59.2783 76.4165C59.1107 76.4165 58.9499 76.3499 58.8314 76.2314C58.7128 76.1129 58.6462 75.9521 58.6462 75.7845V69.4443C58.6462 69.2767 58.7128 69.1159 58.8314 68.9974C58.9499 68.8789 59.1107 68.8123 59.2783 68.8123C59.4459 68.8123 59.6067 68.8789 59.7252 68.9974C59.8438 69.1159 59.9104 69.2767 59.9104 69.4443V75.7845C59.9104 75.9521 59.8438 76.1129 59.7252 76.2314C59.6067 76.3499 59.4459 76.4165 59.2783 76.4165V76.4165Z" fill="#181A1E"/>
<path d="M64.0139 76.4166C63.8463 76.4166 63.6855 76.35 63.567 76.2315C63.4484 76.1129 63.3818 75.9521 63.3818 75.7845V71.6907C63.3818 71.523 63.4484 71.3622 63.567 71.2437C63.6855 71.1252 63.8463 71.0586 64.0139 71.0586C64.1815 71.0586 64.3423 71.1252 64.4608 71.2437C64.5794 71.3622 64.646 71.523 64.646 71.6907V75.7845C64.646 75.8675 64.6296 75.9497 64.5979 76.0264C64.5661 76.1031 64.5195 76.1728 64.4608 76.2315C64.4022 76.2901 64.3325 76.3367 64.2558 76.3685C64.1791 76.4002 64.0969 76.4166 64.0139 76.4166V76.4166Z" fill="#181A1E"/>
</svg>
