<svg width="67" height="80" viewBox="0 0 67 80" fill="none" xmlns="http://www.w3.org/2000/svg">
<path d="M65.54 47H0.649994C0.477603 47 0.312267 46.9315 0.190369 46.8096C0.06847 46.6877 0 46.5224 0 46.35V0.650024C0 0.477634 0.06847 0.312298 0.190369 0.190399C0.312267 0.0685005 0.477603 0 0.649994 0H65.54C65.7124 0 65.8777 0.0685005 65.9996 0.190399C66.1215 0.312298 66.19 0.477634 66.19 0.650024V46.35C66.19 46.5224 66.1215 46.6877 65.9996 46.8096C65.8777 46.9315 65.7124 47 65.54 47V47ZM1.29999 45.7H64.89V1.30002H1.29999V45.7Z" fill="#181A1E"/>
<path d="M61.1302 42.5799H5.06015C4.88776 42.5799 4.72242 42.5114 4.60052 42.3895C4.47863 42.2676 4.41016 42.1023 4.41016 41.9299V5.06992C4.41016 4.89753 4.47863 4.73219 4.60052 4.61029C4.72242 4.48839 4.88776 4.41992 5.06015 4.41992H61.1302C61.3025 4.41992 61.4679 4.48839 61.5898 4.61029C61.7117 4.73219 61.7802 4.89753 61.7802 5.06992V41.9299C61.7802 42.0153 61.7633 42.0998 61.7307 42.1786C61.698 42.2575 61.6501 42.3292 61.5898 42.3895C61.5294 42.4499 61.4578 42.4978 61.3789 42.5304C61.3 42.5631 61.2155 42.5799 61.1302 42.5799V42.5799ZM5.71014 41.2799H60.4802V5.71991H5.71014V41.2799Z" fill="#181A1E"/>
<path d="M43.06 56.23H23.06C22.9574 56.2303 22.8561 56.2062 22.7646 56.1598C22.673 56.1134 22.5938 56.046 22.5333 55.9631C22.4728 55.8802 22.4328 55.7841 22.4166 55.6828C22.4004 55.5814 22.4084 55.4777 22.44 55.38L25.39 46.17C25.4309 46.0382 25.5135 45.9231 25.6252 45.842C25.737 45.7609 25.8719 45.7181 26.01 45.72H40.08C40.2177 45.7197 40.3519 45.7631 40.4633 45.844C40.5748 45.9249 40.6576 46.039 40.7 46.17L43.6 55.2401C43.6632 55.3424 43.6978 55.4598 43.7 55.58C43.7 55.7507 43.6329 55.9145 43.5131 56.0362C43.3934 56.1578 43.2306 56.2274 43.06 56.23V56.23ZM23.96 54.9301H42.15L39.61 47.0201H26.53L23.96 54.9301Z" fill="#181A1E"/>
<path d="M33.0601 52.9999C32.6668 52.99 32.2852 52.8644 31.9629 52.6388C31.6407 52.4131 31.3921 52.0974 31.2484 51.7312C31.1046 51.365 31.0721 50.9646 31.1548 50.5799C31.2376 50.1953 31.4319 49.8437 31.7135 49.5689C31.995 49.2942 32.3514 49.1086 32.738 49.0354C33.1245 48.9622 33.524 49.0046 33.8866 49.1574C34.2491 49.3101 34.5586 49.5664 34.7762 49.8941C34.9938 50.2219 35.11 50.6065 35.1101 50.9999C35.1102 51.2668 35.0569 51.531 34.9532 51.777C34.8496 52.0229 34.6978 52.2457 34.5068 52.4321C34.3157 52.6184 34.0893 52.7647 33.8408 52.8622C33.5924 52.9597 33.3269 53.0065 33.0601 52.9999ZM33.0601 50.2099C32.9118 50.2099 32.7668 50.2539 32.6434 50.3363C32.5201 50.4187 32.424 50.5358 32.3672 50.6729C32.3104 50.8099 32.2956 50.9607 32.3245 51.1062C32.3534 51.2517 32.4249 51.3853 32.5298 51.4902C32.6347 51.5951 32.7683 51.6665 32.9138 51.6955C33.0593 51.7244 33.2101 51.7096 33.3471 51.6528C33.4842 51.596 33.6013 51.4999 33.6837 51.3765C33.7661 51.2532 33.8101 51.1082 33.8101 50.9599C33.8049 50.7645 33.7236 50.5788 33.5835 50.4424C33.4434 50.3061 33.2556 50.2298 33.0601 50.2299V50.2099Z" fill="#181A1E"/>
<path d="M61.82 79.1101H4.38995C4.2962 79.1113 4.2034 79.0912 4.11852 79.0514C4.03365 79.0115 3.95892 78.953 3.89996 78.8801C3.83663 78.8108 3.79014 78.7278 3.76412 78.6376C3.73811 78.5474 3.73327 78.4525 3.74996 78.3601L6.68996 60.1201C6.71594 59.9664 6.79546 59.8269 6.91442 59.7262C7.03339 59.6256 7.18412 59.5702 7.33996 59.5701H58.85C59.0046 59.5706 59.154 59.6263 59.2714 59.7271C59.3887 59.8279 59.4662 59.9673 59.49 60.1201L62.4199 78.2301C62.4519 78.3131 62.4688 78.4011 62.47 78.4901C62.4622 78.6572 62.3904 78.8149 62.2693 78.9304C62.1482 79.0459 61.9873 79.1103 61.82 79.1101V79.1101ZM5.14996 77.8101H61.06L58.32 60.8701H7.88995L5.14996 77.8101Z" fill="#181A1E"/>
<path d="M54.7101 64.6601H11.4801C11.3077 64.6601 11.1424 64.5916 11.0205 64.4697C10.8986 64.3478 10.8301 64.1825 10.8301 64.0101C10.8301 63.8377 10.8986 63.6724 11.0205 63.5505C11.1424 63.4286 11.3077 63.3601 11.4801 63.3601H54.7101C54.8825 63.3601 55.0478 63.4286 55.1697 63.5505C55.2916 63.6724 55.3601 63.8377 55.3601 64.0101C55.3601 64.1825 55.2916 64.3478 55.1697 64.4697C55.0478 64.5916 54.8825 64.6601 54.7101 64.6601V64.6601Z" fill="#181A1E"/>
<path d="M54.71 70.09H11.48C11.3203 70.0702 11.1732 69.9928 11.0666 69.8721C10.96 69.7515 10.9011 69.596 10.9011 69.435C10.9011 69.274 10.96 69.1186 11.0666 68.998C11.1732 68.8773 11.3203 68.7998 11.48 68.78H54.71C54.8698 68.7998 55.0169 68.8773 55.1235 68.998C55.2301 69.1186 55.2889 69.274 55.2889 69.435C55.2889 69.596 55.2301 69.7515 55.1235 69.8721C55.0169 69.9928 54.8698 70.0702 54.71 70.09V70.09Z" fill="#181A1E"/>
<path d="M53.6701 75.1501H42.6701C42.4977 75.1501 42.3324 75.0816 42.2105 74.9597C42.0886 74.8378 42.0201 74.6725 42.0201 74.5001C42.0201 74.3277 42.0886 74.1624 42.2105 74.0405C42.3324 73.9186 42.4977 73.8501 42.6701 73.8501H53.6701C53.8425 73.8501 54.0078 73.9186 54.1297 74.0405C54.2516 74.1624 54.3201 74.3277 54.3201 74.5001C54.3201 74.6725 54.2516 74.8378 54.1297 74.9597C54.0078 75.0816 53.8425 75.1501 53.6701 75.1501ZM22.3001 75.1501H11.4801C11.3077 75.1501 11.1424 75.0816 11.0205 74.9597C10.8986 74.8378 10.8301 74.6725 10.8301 74.5001C10.8301 74.3277 10.8986 74.1624 11.0205 74.0405C11.1424 73.9186 11.3077 73.8501 11.4801 73.8501H22.3001C22.4725 73.8501 22.6378 73.9186 22.7597 74.0405C22.8816 74.1624 22.9501 74.3277 22.9501 74.5001C22.9501 74.6725 22.8816 74.8378 22.7597 74.9597C22.6378 75.0816 22.4725 75.1501 22.3001 75.1501V75.1501Z" fill="#181A1E"/>
<path d="M38.86 75.1501H24.68C24.5076 75.1501 24.3423 75.0816 24.2204 74.9597C24.0985 74.8378 24.03 74.6725 24.03 74.5001C24.03 74.3277 24.0985 74.1624 24.2204 74.0405C24.3423 73.9186 24.5076 73.8501 24.68 73.8501H38.86C39.0324 73.8501 39.1977 73.9186 39.3196 74.0405C39.4415 74.1624 39.51 74.3277 39.51 74.5001C39.51 74.6725 39.4415 74.8378 39.3196 74.9597C39.1977 75.0816 39.0324 75.1501 38.86 75.1501V75.1501Z" fill="#181A1E"/>
<path d="M32.2701 18.0701H32.2101C31.6654 18.0741 31.1397 17.8703 30.7401 17.5001C30.5527 17.3048 30.4059 17.0744 30.3081 16.8221C30.2103 16.5698 30.1634 16.3006 30.1701 16.0301V15.9501C30.1701 14.6301 31.0401 13.0501 32.6001 11.4901C33.4274 10.6541 34.4274 10.0091 35.5301 9.6001C36.2286 9.34343 36.9585 9.182 37.7001 9.12012C37.8244 9.1087 37.9492 9.13382 38.0594 9.19245C38.1695 9.25108 38.2602 9.34065 38.3201 9.45011C38.3889 9.55571 38.4256 9.67906 38.4256 9.80512C38.4256 9.93118 38.3889 10.0545 38.3201 10.1601C37.7766 10.9764 37.5262 11.953 37.6101 12.9301C37.6672 13.4139 37.6239 13.9044 37.4828 14.3707C37.3417 14.837 37.1059 15.2691 36.7901 15.6401C35.1801 17.2301 33.5901 18.0701 32.2701 18.0701ZM32.2701 16.7601H32.3601C32.8601 16.7601 34.0801 16.4801 35.8501 14.7101C36.2501 14.3101 36.2801 13.7701 36.2901 12.9301C36.2636 12.1482 36.3684 11.3674 36.6001 10.6201L35.9901 10.8101C35.0631 11.1528 34.2232 11.6957 33.5301 12.4001C31.7401 14.1901 31.5301 15.4001 31.5301 15.9001V15.9801C31.5188 16.1934 31.5865 16.4034 31.7201 16.5701C31.8639 16.689 32.0436 16.7559 32.2301 16.7601H32.2701Z" fill="#181A1E"/>
<path d="M30.9099 20.3099C30.7821 20.3081 30.6577 20.2687 30.5521 20.1965C30.4466 20.1243 30.3648 20.0227 30.3167 19.9042C30.2687 19.7857 30.2567 19.6557 30.2821 19.5304C30.3076 19.4052 30.3694 19.2902 30.4599 19.1999L31.3699 18.2799C31.4664 18.1912 31.5416 18.0818 31.5899 17.9599C31.2923 17.8402 31.0219 17.6616 30.7951 17.4347C30.5683 17.2079 30.3896 16.9375 30.2699 16.6399C30.1507 16.6887 30.0421 16.76 29.9499 16.8499L29.0399 17.7699C28.9193 17.8946 28.754 17.9662 28.5805 17.969C28.4071 17.9718 28.2396 17.9056 28.1149 17.7849C27.9903 17.6642 27.9187 17.499 27.9159 17.3255C27.913 17.1521 27.9793 16.9846 28.0999 16.8599C28.3999 16.5499 28.7199 16.2399 29.0299 15.9299C29.3044 15.6493 29.6501 15.4488 30.0299 15.3499C30.2662 15.2776 30.5132 15.2471 30.7599 15.2599C30.9103 15.2696 31.0527 15.3305 31.1637 15.4323C31.2747 15.5342 31.3474 15.671 31.3699 15.8199C31.4038 16.0841 31.5232 16.33 31.7099 16.5199C31.9021 16.7018 32.1474 16.8174 32.4099 16.8499C32.5579 16.8766 32.6925 16.9522 32.7923 17.0647C32.892 17.1771 32.9511 17.3198 32.9599 17.4699C32.9702 17.7198 32.9398 17.9698 32.8699 18.2099C32.7666 18.5879 32.5667 18.9325 32.2899 19.2099L31.3599 20.1299C31.3008 20.1886 31.2306 20.2348 31.1533 20.2657C31.0759 20.2966 30.9932 20.3117 30.9099 20.3099V20.3099Z" fill="#181A1E"/>
<path d="M28.82 22.36C28.7344 22.3618 28.6493 22.3458 28.5701 22.3131C28.4909 22.2804 28.4194 22.2317 28.36 22.17L26.06 19.87C25.9403 19.7468 25.8733 19.5817 25.8733 19.4099C25.8733 19.2382 25.9403 19.0731 26.06 18.95L26.5 18.4999L28.11 16.86C28.1704 16.7995 28.2421 16.7515 28.321 16.7188C28.3999 16.686 28.4846 16.6692 28.57 16.6692C28.6555 16.6692 28.7401 16.686 28.819 16.7188C28.8979 16.7515 28.9696 16.7995 29.03 16.86C29.1497 16.9831 29.2167 17.1482 29.2167 17.3199C29.2167 17.4917 29.1497 17.6567 29.03 17.7799L27.44 19.4L28.82 20.7899C29.02 20.6099 29.24 20.39 29.47 20.17L30.47 19.17C30.5932 19.0502 30.7582 18.9832 30.93 18.9832C31.1018 18.9832 31.2668 19.0502 31.39 19.17C31.4505 19.2303 31.4985 19.302 31.5312 19.381C31.5639 19.4599 31.5807 19.5445 31.5807 19.6299C31.5807 19.7154 31.5639 19.8 31.5312 19.8789C31.4985 19.9579 31.4505 20.0296 31.39 20.0899L30.39 21.0899L29.29 22.1599C29.2308 22.2253 29.1581 22.277 29.0769 22.3115C28.9958 22.3461 28.9081 22.3626 28.82 22.36Z" fill="#181A1E"/>
<path d="M17.23 31.68C17.0488 31.6797 16.8741 31.612 16.74 31.49C16.33 31.03 16.6 30.49 17.18 29.49C18.46 27.3 21.61 23.55 26.05 18.92C26.11 18.8557 26.1829 18.8047 26.2638 18.7702C26.3448 18.7358 26.432 18.7187 26.52 18.72C26.606 18.7156 26.6919 18.7303 26.7714 18.7632C26.851 18.796 26.9223 18.8462 26.98 18.91L29.28 21.21C29.342 21.2706 29.3913 21.3429 29.4249 21.4227C29.4585 21.5026 29.4759 21.5884 29.4759 21.675C29.4759 21.7617 29.4585 21.8474 29.4249 21.9273C29.3913 22.0071 29.342 22.0795 29.28 22.14C24.67 26.57 20.91 29.72 18.71 31.01C17.67 31.64 17.44 31.68 17.23 31.68ZM26.53 20.34C23.7081 23.1844 21.1072 26.24 18.75 29.48C21.9872 27.1192 25.0425 24.5186 27.89 21.7L26.53 20.34Z" fill="#181A1E"/>
<path d="M23.8599 37.8799C23.771 37.8813 23.6829 37.8632 23.6017 37.8269C23.5205 37.7907 23.4482 37.7371 23.3899 37.6699C23.3064 37.5803 23.2499 37.469 23.2269 37.3487C23.2039 37.2284 23.2154 37.104 23.26 36.9899L25.6 30.9899C25.634 30.8986 25.6888 30.8165 25.76 30.7499L40.4 17.2299C40.5231 17.1102 40.6882 17.0432 40.8599 17.0432C41.0317 17.0432 41.1968 17.1102 41.32 17.2299L45.13 21.3499C45.1884 21.4128 45.2335 21.4869 45.2627 21.5676C45.292 21.6484 45.3046 21.7342 45.2999 21.8199C45.2912 21.9915 45.2159 22.153 45.09 22.2699L30.45 35.7999C30.3725 35.8619 30.2844 35.9094 30.19 35.9399L24.06 37.8499C23.9956 37.8715 23.9279 37.8817 23.8599 37.8799ZM26.75 31.6399L24.96 36.2299L29.6699 34.8099L43.73 21.8099L40.81 18.6399L26.75 31.6399Z" fill="#181A1E"/>
<path d="M30.3599 36.23C30.2149 36.2318 30.0737 36.1842 29.9592 36.0952C29.8448 36.0062 29.7639 35.881 29.73 35.74L29.5299 34.97H29.0199C28.874 34.9581 28.7364 34.8974 28.6293 34.7976C28.5222 34.6978 28.452 34.5647 28.4299 34.42L28.2999 33.61H27.7099C27.5375 33.61 27.3722 33.5415 27.2503 33.4196C27.1284 33.2977 27.0599 33.1324 27.0599 32.96V32.38L26.26 32.25C26.1703 32.2435 26.0829 32.2185 26.0034 32.1765C25.9239 32.1346 25.854 32.0766 25.798 32.0063C25.7421 31.9359 25.7013 31.8547 25.6783 31.7678C25.6553 31.6809 25.6507 31.5901 25.6645 31.5013C25.6784 31.4125 25.7106 31.3275 25.759 31.2518C25.8073 31.176 25.8709 31.1111 25.9457 31.0612C26.0204 31.0112 26.1047 30.9773 26.1932 30.9616C26.2818 30.9459 26.3726 30.9488 26.4599 30.97L27.82 31.18C27.9736 31.206 28.1131 31.2855 28.2138 31.4044C28.3144 31.5234 28.3698 31.6742 28.3699 31.83V32.31H28.8599C29.0146 32.3105 29.164 32.3662 29.2813 32.467C29.3986 32.5678 29.4762 32.7072 29.4999 32.86L29.6399 33.71H30.1099C30.2445 33.7199 30.3726 33.7714 30.4765 33.8575C30.5804 33.9435 30.655 34.0597 30.69 34.19L30.9999 35.42C31.021 35.5027 31.0255 35.5888 31.0132 35.6733C31.001 35.7577 30.9722 35.839 30.9286 35.9123C30.8849 35.9857 30.8273 36.0497 30.7589 36.1008C30.6905 36.1519 30.6127 36.189 30.5299 36.21C30.4751 36.2277 30.4174 36.2345 30.3599 36.23Z" fill="#181A1E"/>
<path d="M44.85 22.2299C44.6777 22.2291 44.5126 22.1609 44.39 22.0399L40.39 18.0399C40.3295 17.9796 40.2815 17.9079 40.2488 17.8289C40.216 17.75 40.1992 17.6654 40.1992 17.58C40.1992 17.4945 40.216 17.4099 40.2488 17.331C40.2815 17.252 40.3295 17.1803 40.39 17.12L41.39 16.12C41.7926 15.7314 42.3304 15.5142 42.89 15.5142C43.4495 15.5142 43.9873 15.7314 44.39 16.12L46.3 18.02C46.6953 18.4226 46.9147 18.9657 46.91 19.5299C46.9109 19.8056 46.8565 20.0786 46.75 20.3328C46.6435 20.587 46.4871 20.8173 46.29 21.0099L45.29 22.0099C45.1771 22.1372 45.0195 22.2161 44.85 22.2299V22.2299ZM41.8 17.61L44.85 20.6599L45.42 20.08C45.4941 20.007 45.5528 19.9198 45.5923 19.8235C45.6318 19.7273 45.6515 19.624 45.65 19.52C45.6516 19.3041 45.5691 19.096 45.42 18.9399L43.51 17.0399C43.36 16.8903 43.1568 16.8063 42.945 16.8063C42.7331 16.8063 42.5299 16.8903 42.38 17.0399L41.8 17.61Z" fill="#181A1E"/>
</svg>
