<svg width="75" height="80" viewBox="0 0 75 80" fill="none" xmlns="http://www.w3.org/2000/svg">
<path d="M44.699 68.24H30.3111C30.1422 68.2374 29.981 68.1681 29.8616 68.0468C29.7421 67.9254 29.6739 67.7616 29.6714 67.59V15.66C29.6711 15.5602 29.6912 15.4615 29.7305 15.37L36.9244 0.370004C36.9767 0.258717 37.059 0.164844 37.1618 0.0993283C37.2646 0.0338131 37.3837 -0.00063528 37.505 8.87102e-06V8.87102e-06C37.625 5.81127e-05 37.7424 0.0349125 37.8435 0.100457C37.9446 0.166002 38.0252 0.259508 38.0758 0.370004L45.2697 15.37C45.3121 15.4608 45.3356 15.5596 45.3386 15.66V67.59C45.3361 67.7616 45.2679 67.9254 45.1485 68.0468C45.029 68.1681 44.8678 68.2374 44.699 68.24V68.24ZM30.9212 66.94H44.0593V15.81L37.4657 2.10001L30.9114 15.81L30.9212 66.94Z" fill="#181A1E"/>
<path d="M41.8351 18.3999C41.7529 18.3959 41.6722 18.3753 41.5978 18.3392C41.5235 18.3032 41.457 18.2524 41.4021 18.1899L39.7882 16.5499L38.1545 18.1899C38.0474 18.2995 37.9053 18.3667 37.7539 18.3795C37.6024 18.3924 37.4514 18.35 37.3279 18.2599L34.8872 16.4599L33.3717 17.7999C33.2691 17.8887 33.1416 17.9423 33.0073 17.953C32.873 17.9638 32.7388 17.9312 32.6237 17.8599L29.819 16.1899C29.6722 16.1005 29.566 15.9558 29.5236 15.7872C29.4813 15.6187 29.5061 15.44 29.5927 15.2899C29.6804 15.1431 29.8218 15.0375 29.9859 14.9963C30.15 14.9551 30.3236 14.9815 30.4685 15.0699L32.8796 16.5299L34.4346 15.1599C34.5485 15.0699 34.6888 15.0211 34.8331 15.0211C34.9775 15.0211 35.1177 15.0699 35.2317 15.1599L37.6428 16.9299L39.3158 15.2199C39.4376 15.1007 39.5994 15.0328 39.7685 15.0299C39.8526 15.0293 39.936 15.0457 40.0138 15.0784C40.0915 15.111 40.162 15.1591 40.2212 15.2199L41.904 16.9299L44.325 15.1599C44.4624 15.0743 44.6265 15.0446 44.7846 15.0767C44.9427 15.1088 45.083 15.2003 45.1775 15.333C45.272 15.4656 45.3137 15.6297 45.2943 15.7923C45.2749 15.9549 45.1959 16.104 45.0729 16.2099L42.2091 18.3099C42.0963 18.3776 41.9659 18.4089 41.8351 18.3999V18.3999Z" fill="#181A1E"/>
<path d="M41.5496 68.2399C41.3807 68.2373 41.2195 68.168 41.1001 68.0466C40.9807 67.9253 40.9125 67.7615 40.9099 67.5899V17.5299C40.9099 17.3575 40.9773 17.1922 41.0973 17.0703C41.2172 16.9484 41.3799 16.8799 41.5496 16.8799C41.7192 16.8799 41.882 16.9484 42.0019 17.0703C42.1219 17.1922 42.1893 17.3575 42.1893 17.5299V67.5899C42.1867 67.7615 42.1185 67.9253 41.9991 68.0466C41.8797 68.168 41.7184 68.2373 41.5496 68.2399V68.2399Z" fill="#181A1E"/>
<path d="M37.987 68.2399C37.8174 68.2399 37.6547 68.1714 37.5347 68.0495C37.4148 67.9276 37.3474 67.7623 37.3474 67.5899L37.1309 17.2899C37.1308 17.1192 37.1969 16.9554 37.3147 16.8338C37.4326 16.7122 37.5927 16.6425 37.7607 16.6399C37.9286 16.6399 38.0899 16.707 38.2096 16.8267C38.3293 16.9465 38.3978 17.1092 38.4004 17.2799L38.6169 67.5799C38.6169 67.7532 38.5498 67.9196 38.4301 68.0431C38.3104 68.1666 38.1477 68.2373 37.9772 68.2399H37.987Z" fill="#181A1E"/>
<path d="M33.2534 68.24C33.0846 68.2374 32.9234 68.1681 32.8039 68.0468C32.6845 67.9254 32.6163 67.7616 32.6138 67.59V16.7C32.6332 16.5402 32.7095 16.3932 32.8282 16.2866C32.9469 16.1799 33.0999 16.1211 33.2584 16.1211C33.4168 16.1211 33.5698 16.1799 33.6885 16.2866C33.8072 16.3932 33.8835 16.5402 33.903 16.7V67.59C33.9004 67.7633 33.8308 67.9286 33.7093 68.0502C33.5878 68.1719 33.424 68.24 33.2534 68.24Z" fill="#181A1E"/>
<path d="M39.365 79.0699H35.6352C34.0543 79.0673 32.5389 78.428 31.421 77.2921C30.3032 76.1562 29.674 74.6163 29.6714 73.0099V67.5899C29.6714 67.4175 29.7388 67.2522 29.8588 67.1303C29.9787 67.0084 30.1414 66.9399 30.3111 66.9399H44.699C44.8686 66.9399 45.0313 67.0084 45.1513 67.1303C45.2712 67.2522 45.3386 67.4175 45.3386 67.5899V73.0099C45.3334 74.6173 44.7021 76.1571 43.5827 77.2927C42.4632 78.4283 40.9468 79.0673 39.365 79.0699V79.0699ZM30.9508 68.2399V73.0099C30.9508 74.2724 31.4443 75.4831 32.3228 76.3758C33.2013 77.2684 34.3928 77.7699 35.6352 77.7699H39.365C40.6083 77.7699 41.8008 77.2688 42.6809 76.3764C43.5609 75.484 44.0567 74.2733 44.0593 73.0099V68.2399H30.9508Z" fill="#181A1E"/>
<path d="M17.783 13.12H8.08938C7.91973 13.12 7.75703 13.0515 7.63707 12.9296C7.5171 12.8077 7.44971 12.6424 7.44971 12.47V2.61996C7.44971 2.44757 7.5171 2.28225 7.63707 2.16035C7.75703 2.03846 7.91973 1.96997 8.08938 1.96997H17.783C17.9526 1.96997 18.1154 2.03846 18.2353 2.16035C18.3553 2.28225 18.4227 2.44757 18.4227 2.61996V12.47C18.4227 12.6424 18.3553 12.8077 18.2353 12.9296C18.1154 13.0515 17.9526 13.12 17.783 13.12ZM8.72907 11.82H17.1433V3.26997H8.72907V11.82Z" fill="#181A1E"/>
<path d="M66.7038 78.9998H57.02C56.8504 78.9998 56.6877 78.9314 56.5677 78.8095C56.4478 78.6876 56.3804 78.5222 56.3804 78.3499V68.4998C56.3804 68.3275 56.4478 68.1621 56.5677 68.0402C56.6877 67.9183 56.8504 67.8499 57.02 67.8499H66.7038C66.8744 67.8498 67.0381 67.918 67.1596 68.0396C67.2812 68.1612 67.3507 68.3265 67.3533 68.4998V78.3499C67.3507 78.5232 67.2812 78.6885 67.1596 78.8101C67.0381 78.9317 66.8744 78.9999 66.7038 78.9998ZM57.6597 77.6998H66.0641V69.1898H57.6597V77.6998Z" fill="#181A1E"/>
<path d="M66.7038 13.12H57.02C56.8504 13.12 56.6877 13.0515 56.5677 12.9296C56.4478 12.8077 56.3804 12.6424 56.3804 12.47V2.61996C56.3804 2.44757 56.4478 2.28225 56.5677 2.16035C56.6877 2.03846 56.8504 1.96997 57.02 1.96997H66.7038C66.8744 1.96995 67.0381 2.03811 67.1596 2.15973C67.2812 2.28135 67.3507 2.44666 67.3533 2.61996V12.47C67.3507 12.6433 67.2812 12.8086 67.1596 12.9302C67.0381 13.0518 66.8744 13.12 66.7038 13.12V13.12ZM57.6597 11.82H66.0641V3.26997H57.6597V11.82Z" fill="#181A1E"/>
<path d="M17.783 78.9998H8.08938C7.91973 78.9998 7.75703 78.9314 7.63707 78.8095C7.5171 78.6876 7.44971 78.5222 7.44971 78.3499V68.4998C7.44971 68.3275 7.5171 68.1621 7.63707 68.0402C7.75703 67.9183 7.91973 67.8499 8.08938 67.8499H17.783C17.9526 67.8499 18.1154 67.9183 18.2353 68.0402C18.3553 68.1621 18.4227 68.3275 18.4227 68.4998V78.3499C18.4227 78.5222 18.3553 78.6876 18.2353 78.8095C18.1154 78.9314 17.9526 78.9998 17.783 78.9998ZM8.72907 77.6998H17.1433V69.1898H8.72907V77.6998Z" fill="#181A1E"/>
<path d="M57.02 74.0799H45.0826C44.9129 74.0799 44.7502 74.0114 44.6303 73.8895C44.5103 73.7676 44.4429 73.6023 44.4429 73.4299C44.4429 73.2575 44.5103 73.0922 44.6303 72.9703C44.7502 72.8484 44.9129 72.7799 45.0826 72.7799H57.02C57.1896 72.7799 57.3523 72.8484 57.4723 72.9703C57.5923 73.0922 57.6597 73.2575 57.6597 73.4299C57.6597 73.6023 57.5923 73.7676 57.4723 73.8895C57.3523 74.0114 57.1896 74.0799 57.02 74.0799ZM30.0747 74.0799H17.783C17.6134 74.0799 17.4507 74.0114 17.3307 73.8895C17.2107 73.7676 17.1433 73.6023 17.1433 73.4299C17.1433 73.2575 17.2107 73.0922 17.3307 72.9703C17.4507 72.8484 17.6134 72.7799 17.783 72.7799H30.0354C30.205 72.7799 30.3677 72.8484 30.4877 72.9703C30.6076 73.0922 30.675 73.2575 30.675 73.4299C30.675 73.6023 30.6076 73.7676 30.4877 73.8895C30.3677 74.0114 30.205 74.0799 30.0354 74.0799H30.0747ZM61.8619 69.1499C61.6922 69.1499 61.5295 69.0814 61.4095 68.9595C61.2896 68.8376 61.2222 68.6723 61.2222 68.4999V46.9899C61.2222 46.8175 61.2896 46.6522 61.4095 46.5303C61.5295 46.4084 61.6922 46.3399 61.8619 46.3399C62.0315 46.3399 62.1942 46.4084 62.3142 46.5303C62.4342 46.6522 62.5015 46.8175 62.5015 46.9899V68.4999C62.5069 68.5886 62.4944 68.6774 62.4646 68.7609C62.4349 68.8445 62.3887 68.9209 62.3287 68.9856C62.2688 69.0503 62.1964 69.1017 62.1161 69.1369C62.0358 69.172 61.9493 69.1901 61.8619 69.1899V69.1499ZM12.9805 69.1499C12.8108 69.1499 12.6481 69.0814 12.5282 68.9595C12.4082 68.8376 12.3408 68.6723 12.3408 68.4999V46.9899C12.3408 46.8175 12.4082 46.6522 12.5282 46.5303C12.6481 46.4084 12.8108 46.3399 12.9805 46.3399C13.1501 46.3399 13.3129 46.4084 13.4328 46.5303C13.5528 46.6522 13.6202 46.8175 13.6202 46.9899V68.4999C13.6256 68.5886 13.613 68.6774 13.5833 68.7609C13.5535 68.8445 13.5073 68.9209 13.4473 68.9856C13.3874 69.0503 13.315 69.1017 13.2347 69.1369C13.1544 69.172 13.0679 69.1901 12.9805 69.1899V69.1499ZM61.8619 31.7999C61.6922 31.7999 61.5295 31.7314 61.4095 31.6095C61.2896 31.4876 61.2222 31.3223 61.2222 31.1499V12.4699C61.2222 12.2975 61.2896 12.1322 61.4095 12.0103C61.5295 11.8884 61.6922 11.8199 61.8619 11.8199C62.0315 11.8199 62.1942 11.8884 62.3142 12.0103C62.4342 12.1322 62.5015 12.2975 62.5015 12.4699V31.1899C62.4915 31.3553 62.4197 31.5105 62.3008 31.6239C62.1819 31.7372 62.0249 31.8002 61.8619 31.7999V31.7999ZM12.9805 31.7999C12.8108 31.7999 12.6481 31.7314 12.5282 31.6095C12.4082 31.4876 12.3408 31.3223 12.3408 31.1499V12.4699C12.3408 12.2975 12.4082 12.1322 12.5282 12.0103C12.6481 11.8884 12.8108 11.8199 12.9805 11.8199C13.1501 11.8199 13.3129 11.8884 13.4328 12.0103C13.5528 12.1322 13.6202 12.2975 13.6202 12.4699V31.1899C13.6101 31.3553 13.5383 31.5105 13.4195 31.6239C13.3006 31.7372 13.1435 31.8002 12.9805 31.7999V31.7999ZM57.02 8.1899H40.8213C40.6517 8.1899 40.489 8.12141 40.369 7.99951C40.249 7.87761 40.1817 7.71229 40.1817 7.5399C40.1817 7.36751 40.249 7.20218 40.369 7.08028C40.489 6.95838 40.6517 6.88989 40.8213 6.88989H57.02C57.1896 6.88989 57.3523 6.95838 57.4723 7.08028C57.5923 7.20218 57.6597 7.36751 57.6597 7.5399C57.6597 7.71229 57.5923 7.87761 57.4723 7.99951C57.3523 8.12141 57.1896 8.1899 57.02 8.1899ZM34.1884 8.1899H17.783C17.6134 8.1899 17.4507 8.12141 17.3307 7.99951C17.2107 7.87761 17.1433 7.71229 17.1433 7.5399C17.1433 7.36751 17.2107 7.20218 17.3307 7.08028C17.4507 6.95838 17.6134 6.88989 17.783 6.88989H34.149C34.3186 6.88989 34.4813 6.95838 34.6013 7.08028C34.7213 7.20218 34.7887 7.36751 34.7887 7.5399C34.7887 7.71229 34.7213 7.87761 34.6013 7.99951C34.4813 8.12141 34.3186 8.1899 34.149 8.1899H34.1884Z" fill="#181A1E"/>
<path d="M74.3603 47.64H44.6989C44.5292 47.64 44.3665 47.5715 44.2465 47.4496C44.1266 47.3277 44.0592 47.1624 44.0592 46.99V31.19C44.0592 31.0176 44.1266 30.8523 44.2465 30.7304C44.3665 30.6085 44.5292 30.54 44.6989 30.54H74.3603C74.5299 30.54 74.6927 30.6085 74.8126 30.7304C74.9326 30.8523 75 31.0176 75 31.19V46.99C75 47.1624 74.9326 47.3277 74.8126 47.4496C74.6927 47.5715 74.5299 47.64 74.3603 47.64ZM45.3385 46.34H73.7206V31.8H45.3385V46.34ZM30.311 47.64H0.639689C0.555685 47.64 0.472499 47.6232 0.394889 47.5906C0.31728 47.5579 0.246761 47.51 0.187361 47.4496C0.127961 47.3893 0.0808455 47.3176 0.0486986 47.2388C0.0165517 47.1599 0 47.0754 0 46.99V31.19C0 31.1047 0.0165517 31.0201 0.0486986 30.9413C0.0808455 30.8624 0.127961 30.7908 0.187361 30.7304C0.246761 30.67 0.31728 30.6222 0.394889 30.5895C0.472499 30.5568 0.555685 30.54 0.639689 30.54H30.311C30.4806 30.54 30.6433 30.6085 30.7633 30.7304C30.8833 30.8523 30.9507 31.0176 30.9507 31.19V46.99C30.9507 47.1624 30.8833 47.3277 30.7633 47.4496C30.6433 47.5715 30.4806 47.64 30.311 47.64V47.64ZM1.27936 46.34H29.6713V31.8H1.27936V46.34Z" fill="#181A1E"/>
<path d="M67.491 47.64C67.407 47.64 67.3238 47.6232 67.2462 47.5906C67.1686 47.5579 67.0981 47.51 67.0387 47.4497C66.9793 47.3893 66.9322 47.3177 66.9 47.2388C66.8679 47.1599 66.8513 47.0754 66.8513 46.9901V38.45C66.8513 38.2777 66.9187 38.1123 67.0387 37.9904C67.1587 37.8685 67.3214 37.8 67.491 37.8C67.6607 37.8 67.8234 37.8685 67.9433 37.9904C68.0633 38.1123 68.1307 38.2777 68.1307 38.45V46.9901C68.1307 47.0754 68.1142 47.1599 68.082 47.2388C68.0499 47.3177 68.0027 47.3893 67.9433 47.4497C67.8839 47.51 67.8134 47.5579 67.7358 47.5906C67.6582 47.6232 67.575 47.64 67.491 47.64Z" fill="#181A1E"/>
<path d="M61.4092 47.6398C61.3252 47.6398 61.242 47.623 61.1644 47.5904C61.0868 47.5577 61.0163 47.5098 60.9569 47.4495C60.8975 47.3891 60.8504 47.3175 60.8182 47.2386C60.7861 47.1597 60.7695 47.0752 60.7695 46.9899V41.7498C60.7695 41.5775 60.8369 41.4121 60.9569 41.2902C61.0769 41.1683 61.2396 41.0999 61.4092 41.0999C61.5789 41.0999 61.7416 41.1683 61.8615 41.2902C61.9815 41.4121 62.0489 41.5775 62.0489 41.7498V46.9899C62.0489 47.0752 62.0323 47.1597 62.0002 47.2386C61.968 47.3175 61.9209 47.3891 61.8615 47.4495C61.8021 47.5098 61.7316 47.5577 61.654 47.5904C61.5764 47.623 61.4932 47.6398 61.4092 47.6398Z" fill="#181A1E"/>
<path d="M55.3372 47.64C55.2532 47.64 55.17 47.6232 55.0924 47.5906C55.0148 47.5579 54.9443 47.51 54.8849 47.4497C54.8255 47.3893 54.7783 47.3177 54.7462 47.2388C54.714 47.1599 54.6975 47.0754 54.6975 46.9901V38.45C54.6975 38.2777 54.7649 38.1123 54.8849 37.9904C55.0048 37.8685 55.1675 37.8 55.3372 37.8C55.5068 37.8 55.6695 37.8685 55.7895 37.9904C55.9095 38.1123 55.9769 38.2777 55.9769 38.45V46.9901C55.9769 47.0754 55.9603 47.1599 55.9282 47.2388C55.896 47.3177 55.8489 47.3893 55.7895 47.4497C55.7301 47.51 55.6596 47.5579 55.582 47.5906C55.5044 47.6232 55.4212 47.64 55.3372 47.64Z" fill="#181A1E"/>
<path d="M49.2749 47.6398C49.1909 47.6398 49.1077 47.623 49.0301 47.5904C48.9525 47.5577 48.882 47.5098 48.8226 47.4495C48.7632 47.3891 48.7161 47.3175 48.6839 47.2386C48.6518 47.1597 48.6353 47.0752 48.6353 46.9899V41.7498C48.6353 41.5775 48.7026 41.4121 48.8226 41.2902C48.9426 41.1683 49.1053 41.0999 49.2749 41.0999C49.4446 41.0999 49.6073 41.1683 49.7273 41.2902C49.8472 41.4121 49.9146 41.5775 49.9146 41.7498V46.9899C49.9146 47.0752 49.8981 47.1597 49.8659 47.2386C49.8338 47.3175 49.7867 47.3891 49.7273 47.4495C49.6679 47.5098 49.5973 47.5577 49.5197 47.5904C49.4421 47.623 49.3589 47.6398 49.2749 47.6398Z" fill="#181A1E"/>
<path d="M24.9473 47.6398C24.7784 47.6373 24.6172 47.568 24.4978 47.4466C24.3784 47.3253 24.3102 47.1614 24.3076 46.9899V41.7498C24.3076 41.5775 24.375 41.4121 24.495 41.2902C24.6149 41.1683 24.7776 41.0999 24.9473 41.0999C25.1169 41.0999 25.2797 41.1683 25.3996 41.2902C25.5196 41.4121 25.587 41.5775 25.587 41.7498V46.9899C25.587 47.0752 25.5704 47.1597 25.5383 47.2386C25.5061 47.3175 25.459 47.3891 25.3996 47.4495C25.3402 47.5098 25.2697 47.5577 25.1921 47.5904C25.1145 47.623 25.0313 47.6398 24.9473 47.6398V47.6398Z" fill="#181A1E"/>
<path d="M18.8755 47.64C18.7915 47.64 18.7083 47.6232 18.6307 47.5906C18.5531 47.5579 18.4826 47.51 18.4232 47.4497C18.3638 47.3893 18.3167 47.3177 18.2845 47.2388C18.2524 47.1599 18.2358 47.0754 18.2358 46.9901V38.45C18.2358 38.2777 18.3032 38.1123 18.4232 37.9904C18.5431 37.8685 18.7059 37.8 18.8755 37.8C19.0452 37.8 19.2079 37.8685 19.3278 37.9904C19.4478 38.1123 19.5152 38.2777 19.5152 38.45V46.9901C19.5152 47.0754 19.4987 47.1599 19.4665 47.2388C19.4344 47.3177 19.3872 47.3893 19.3278 47.4497C19.2684 47.51 19.1979 47.5579 19.1203 47.5906C19.0427 47.6232 18.9595 47.64 18.8755 47.64V47.64Z" fill="#181A1E"/>
<path d="M12.7935 47.6398C12.6246 47.6373 12.4634 47.568 12.344 47.4466C12.2246 47.3253 12.1563 47.1614 12.1538 46.9899V41.7498C12.1538 41.5775 12.2212 41.4121 12.3412 41.2902C12.4611 41.1683 12.6238 41.0999 12.7935 41.0999C12.9631 41.0999 13.1258 41.1683 13.2458 41.2902C13.3658 41.4121 13.4332 41.5775 13.4332 41.7498V46.9899C13.4332 47.0752 13.4166 47.1597 13.3845 47.2386C13.3523 47.3175 13.3052 47.3891 13.2458 47.4495C13.1864 47.5098 13.1159 47.5577 13.0383 47.5904C12.9607 47.623 12.8775 47.6398 12.7935 47.6398V47.6398Z" fill="#181A1E"/>
<path d="M6.7217 47.64C6.6377 47.64 6.55453 47.6232 6.47692 47.5906C6.39931 47.5579 6.32879 47.51 6.26939 47.4497C6.20999 47.3893 6.16288 47.3177 6.13073 47.2388C6.09858 47.1599 6.08203 47.0754 6.08203 46.9901V38.45C6.08203 38.2777 6.14943 38.1123 6.26939 37.9904C6.38936 37.8685 6.55205 37.8 6.7217 37.8C6.89136 37.8 7.05407 37.8685 7.17403 37.9904C7.294 38.1123 7.36139 38.2777 7.36139 38.45V46.9901C7.36139 47.0754 7.34484 47.1599 7.3127 47.2388C7.28055 47.3177 7.23343 47.3893 7.17403 47.4497C7.11463 47.51 7.04411 47.5579 6.9665 47.5906C6.88889 47.6232 6.80571 47.64 6.7217 47.64Z" fill="#181A1E"/>
</svg>
