<svg width="86" height="111" viewBox="0 0 86 111" fill="none" xmlns="http://www.w3.org/2000/svg">
<path d="M35.9256 63.2108C36.0391 63.3212 36.1293 63.4533 36.1909 63.5992C36.2525 63.745 36.2842 63.9018 36.2842 64.0601C36.2842 64.2184 36.2525 64.3752 36.1909 64.5211C36.1293 64.6669 36.0391 64.799 35.9256 64.9094V64.9094C35.7589 65.0809 35.5443 65.198 35.3098 65.2453C35.0753 65.2925 34.832 65.2677 34.6119 65.1741C34.3918 65.0805 34.2052 64.9225 34.0766 64.7209C33.9479 64.5192 33.8833 64.2834 33.8913 64.0443C33.8913 63.73 34.0161 63.4286 34.2384 63.2063C34.4606 62.9841 34.762 62.8593 35.0763 62.8593V62.8593C35.1944 62.859 35.3118 62.8777 35.4239 62.9146C35.4977 62.935 35.5691 62.9628 35.6373 62.9975V62.9975L35.8269 63.1279C35.8632 63.1512 35.8963 63.1791 35.9256 63.2108V63.2108Z" stroke="#5FD1BE" stroke-width="0.5" stroke-linecap="round" stroke-linejoin="round"/>
<path d="M60.3455 47.896C60.4572 48.0065 60.5459 48.1382 60.6062 48.2833C60.6666 48.4285 60.6975 48.5841 60.6971 48.7413C60.6975 49.0622 60.5711 49.3703 60.3455 49.5985V49.5985C60.1209 49.813 59.8226 49.9332 59.512 49.9343H59.4844C59.433 49.9343 59.3856 49.9343 59.3342 49.9145C59.2792 49.9079 59.225 49.896 59.1723 49.879C59.0647 49.8463 58.9623 49.7984 58.8681 49.7368C58.8195 49.7047 58.7733 49.669 58.7299 49.6301C58.6904 49.5946 58.6469 49.5511 58.6074 49.5077C58.5329 49.4189 58.4704 49.3206 58.4218 49.2154C58.3584 49.0597 58.3249 48.8935 58.323 48.7255C58.3226 48.5683 58.3535 48.4127 58.4138 48.2675C58.4742 48.1224 58.5628 47.9907 58.6746 47.8802C58.785 47.7667 58.917 47.6765 59.0629 47.6149C59.2088 47.5533 59.3655 47.5216 59.5238 47.5216C59.6822 47.5216 59.8389 47.5533 59.9848 47.6149C60.1307 47.6765 60.2627 47.7667 60.3731 47.8802L60.3455 47.896Z" stroke="#5FD1BE" stroke-width="0.5" stroke-linecap="round" stroke-linejoin="round"/>
<path d="M60.3456 63.2107C60.4591 63.3212 60.5493 63.4532 60.6109 63.5991C60.6725 63.745 60.7042 63.9017 60.7042 64.06C60.7042 64.2184 60.6725 64.3751 60.6109 64.521C60.5493 64.6668 60.4591 64.7989 60.3456 64.9093V64.9093C60.2046 65.042 60.0338 65.1389 59.8476 65.1918C59.6614 65.2448 59.4651 65.2522 59.2754 65.2135C59.0857 65.1748 58.9081 65.0911 58.7575 64.9694C58.6069 64.8477 58.4877 64.6916 58.41 64.5143L58.3863 64.4511C58.3863 64.4313 58.3863 64.4116 58.3863 64.3879C58.3863 64.3642 58.3626 64.3089 58.3547 64.2694C58.2888 64.0128 58.3106 63.7415 58.4169 63.4989C58.5232 63.2562 58.7077 63.0562 58.941 62.9306C59.1743 62.8051 59.4429 62.7614 59.7039 62.8064C59.965 62.8515 60.2034 62.9827 60.3812 63.1791L60.3456 63.2107Z" stroke="#5FD1BE" stroke-width="0.5" stroke-linecap="round" stroke-linejoin="round"/>
<path d="M59.1606 50.6137V62.1877C59.122 62.1933 59.0837 62.2012 59.0461 62.2114H59.0065C58.9634 62.223 58.9212 62.2375 58.8801 62.2549C58.7278 62.3067 58.5831 62.3784 58.4496 62.4682C58.4056 62.4972 58.3634 62.5289 58.3232 62.563C58.269 62.6058 58.2176 62.652 58.1691 62.7012C57.9909 62.8773 57.8496 63.0871 57.7533 63.3184C57.657 63.5496 57.6077 63.7977 57.6082 64.0482C57.6041 64.1127 57.6041 64.1773 57.6082 64.2418C57.611 64.3235 57.6243 64.4044 57.6477 64.4828L48.9099 68.346C48.8791 68.2869 48.842 68.2313 48.7993 68.1801C48.7636 68.125 48.7211 68.0746 48.6729 68.03C48.6606 68.0112 48.646 67.9939 48.6294 67.9787C48.5985 67.9475 48.5655 67.9185 48.5307 67.8918C48.4823 67.8474 48.4308 67.8064 48.3766 67.7693C48.3218 67.731 48.2651 67.6954 48.2068 67.6627C48.1632 67.6379 48.1184 67.6155 48.0724 67.5955C47.9343 67.5306 47.7882 67.4841 47.6379 67.4572V54.3664L57.9084 49.8197C57.9771 49.9167 58.0537 50.0079 58.1375 50.0923C58.1898 50.1485 58.2481 50.1988 58.3113 50.2424L58.4259 50.3253C58.5881 50.4329 58.7669 50.513 58.9552 50.5623C59.0218 50.5861 59.0906 50.6033 59.1606 50.6137V50.6137Z" stroke="#5FD1BE" stroke-width="0.5" stroke-linecap="round" stroke-linejoin="round"/>
<path d="M49.2851 44.795L57.7148 48.1724C57.6556 48.3562 57.6263 48.5482 57.6279 48.7413C57.6274 48.8874 57.6433 49.0332 57.6753 49.1758L47.3101 53.754L36.8816 49.1521C36.9515 48.9514 36.9876 48.7405 36.9882 48.5279C36.9879 48.4153 36.9773 48.3029 36.9566 48.1922L46.042 44.7634C46.0736 44.8187 46.1132 44.874 46.1487 44.9254C46.1889 44.9782 46.2324 45.0283 46.2791 45.0755L46.3146 45.115C46.3982 45.2023 46.4909 45.2804 46.5911 45.3481C46.6428 45.3834 46.697 45.4151 46.7531 45.4429L46.915 45.5219L47.0533 45.5732L47.1362 45.5969L47.2627 45.6285H47.2903C47.3476 45.6405 47.4057 45.6485 47.4641 45.6522H47.6537H47.8236C48.0829 45.6298 48.3345 45.5531 48.5623 45.4271C48.6088 45.4039 48.6537 45.3775 48.6966 45.3481C48.7974 45.2795 48.8925 45.2029 48.981 45.1189H49.0047C49.1114 45.0232 49.2056 44.9144 49.2851 44.795Z" stroke="#5FD1BE" stroke-width="0.5" stroke-linecap="round" stroke-linejoin="round"/>
<path d="M48.8623 43.7758C48.8618 43.9376 48.8282 44.0976 48.7635 44.2459C48.7303 44.3276 48.6864 44.4047 48.6332 44.475C48.5956 44.5287 48.5533 44.5789 48.5068 44.6251L48.408 44.712C48.3552 44.7512 48.2997 44.7869 48.2421 44.8187H48.2224L48.1552 44.8503C48.0732 44.8872 47.987 44.9138 47.8984 44.9293H47.7957H47.6733C47.6168 44.9351 47.5599 44.9351 47.5034 44.9293H47.4797C47.4368 44.9243 47.3944 44.915 47.3533 44.9016H47.3178C47.289 44.8943 47.2612 44.8837 47.2348 44.87C47.1926 44.8549 47.1516 44.8364 47.1124 44.8147C47.0877 44.804 47.0651 44.7894 47.0452 44.7713C47.0289 44.7674 47.0139 44.7592 47.0017 44.7476C46.977 44.7354 46.9543 44.7194 46.9346 44.7002L46.82 44.6014C46.7805 44.5619 46.745 44.5185 46.7094 44.475L46.6423 44.3763C46.6321 44.3603 46.6241 44.343 46.6186 44.3249C46.597 44.2869 46.5785 44.2473 46.5633 44.2064C46.5025 44.0627 46.4716 43.9082 46.4724 43.7521C46.472 43.595 46.5029 43.4393 46.5633 43.2942C46.6236 43.149 46.7123 43.0174 46.824 42.9068C46.9922 42.7396 47.2061 42.6258 47.4387 42.5796C47.6714 42.5334 47.9125 42.5569 48.1318 42.6472C48.3512 42.7374 48.539 42.8905 48.6717 43.087C48.8045 43.2836 48.8763 43.515 48.8781 43.7521L48.8623 43.7758Z" stroke="#5FD1BE" stroke-width="0.5" stroke-linecap="round" stroke-linejoin="round"/>
<path d="M48.4237 68.9306C48.4685 69.0576 48.4925 69.1909 48.4948 69.3256C48.4947 69.6452 48.3683 69.9518 48.1433 70.1788V70.1788C47.9585 70.3614 47.7179 70.4769 47.4599 70.5067H47.1557C46.8924 70.471 46.6474 70.352 46.4566 70.167C46.2315 69.94 46.1051 69.6333 46.105 69.3137C46.1063 69.1963 46.1223 69.0796 46.1524 68.9661C46.166 68.9482 46.1767 68.9282 46.184 68.9069C46.2252 68.7907 46.2838 68.6815 46.3578 68.5829C46.3973 68.5316 46.4408 68.4881 46.4803 68.4447C46.5235 68.4032 46.5697 68.365 46.6185 68.3301V68.3301C46.6662 68.2962 46.7164 68.2658 46.7686 68.2393V68.2393L46.9227 68.18C46.9756 68.1627 47.0297 68.1495 47.0846 68.1405H47.1083C47.1608 68.1345 47.2138 68.1345 47.2663 68.1405H47.3098C47.3829 68.1404 47.4557 68.1483 47.527 68.1642C47.5701 68.1706 47.6125 68.1811 47.6534 68.1958C47.7009 68.2074 47.7471 68.2233 47.7917 68.2432L47.8549 68.2748C47.9006 68.2987 47.9443 68.3265 47.9853 68.3578L48.0603 68.4131C48.0751 68.4214 48.0885 68.432 48.0998 68.4447C48.1146 68.4615 48.1304 68.4773 48.1472 68.4921C48.1822 68.5271 48.2152 68.564 48.246 68.6027V68.6224C48.2732 68.6577 48.2983 68.6947 48.321 68.733C48.3357 68.7572 48.3489 68.7823 48.3605 68.8081C48.3794 68.8389 48.3941 68.8721 48.404 68.9069L48.4237 68.9306Z" stroke="#5FD1BE" stroke-width="0.5" stroke-linecap="round" stroke-linejoin="round"/>
<path d="M46.9426 54.3703V67.4651C46.8769 67.4772 46.8121 67.4943 46.7491 67.5165C46.689 67.533 46.6308 67.5555 46.5752 67.5836C46.3485 67.6718 46.1426 67.8063 45.9709 67.9787C45.9543 67.9939 45.9397 68.0112 45.9274 68.03C45.8318 68.1228 45.7506 68.2293 45.6865 68.346L36.9526 64.4828V64.4235C36.9775 64.2999 36.9907 64.1743 36.9921 64.0482C36.9908 63.5435 36.7907 63.0595 36.4351 62.7012C36.2586 62.531 36.0507 62.3969 35.8229 62.3062C35.7599 62.2784 35.6953 62.2547 35.6293 62.2351C35.5857 62.2191 35.5408 62.2072 35.495 62.1995H35.4397V50.6255C35.6849 50.5823 35.9188 50.4896 36.127 50.353C36.3361 50.2157 36.5159 50.0385 36.6563 49.8315L46.9426 54.3703Z" stroke="#5FD1BE" stroke-width="0.5" stroke-linecap="round" stroke-linejoin="round"/>
<path d="M36.1979 48.0894C36.2508 48.2268 36.2776 48.3728 36.2769 48.52C36.2773 48.6771 36.2464 48.8328 36.1861 48.978C36.1257 49.1231 36.0371 49.2548 35.9254 49.3653V49.3653C35.7014 49.5833 35.4004 49.7039 35.0879 49.7011C34.8469 49.7092 34.6091 49.6436 34.4063 49.513C34.2035 49.3824 34.0453 49.1931 33.953 48.9702C33.8607 48.7474 33.8386 48.5017 33.8896 48.2659C33.9407 48.0302 34.0624 47.8156 34.2387 47.6509C34.4645 47.4254 34.7707 47.2987 35.0899 47.2987C35.4091 47.2987 35.7153 47.4254 35.9412 47.6509C36.0567 47.7774 36.1442 47.9268 36.1979 48.0894V48.0894Z" stroke="#5FD1BE" stroke-width="0.5" stroke-linecap="round" stroke-linejoin="round"/>
<path d="M65.5403 108.24H50.4106C50.3461 108.24 50.2842 108.214 50.2385 108.169C50.1929 108.123 50.1672 108.061 50.1672 107.997V81.6171C50.1672 81.5525 50.1929 81.4906 50.2385 81.445C50.2842 81.3993 50.3461 81.3737 50.4106 81.3737H64.6415C64.6735 81.3734 64.7052 81.3796 64.7348 81.3918C64.7644 81.404 64.7912 81.4221 64.8138 81.4448L71.9292 88.5602C71.9745 88.6062 72 88.668 72.0003 88.7325V101.443C71.9999 101.483 71.9898 101.522 71.9709 101.557C71.952 101.593 71.9248 101.623 71.8917 101.645C71.8577 101.667 71.8186 101.681 71.778 101.684C71.7374 101.687 71.6967 101.68 71.6595 101.664C71.1004 101.427 70.4991 101.306 69.8919 101.308C68.6745 101.309 67.5073 101.793 66.6465 102.654C65.7856 103.515 65.3016 104.682 65.3006 105.899C65.2985 106.564 65.443 107.222 65.7238 107.824C65.7586 107.868 65.7771 107.922 65.7762 107.978C65.7788 108.011 65.7746 108.044 65.764 108.075C65.7534 108.106 65.7365 108.135 65.7144 108.159C65.6924 108.184 65.6656 108.204 65.6356 108.218C65.6057 108.231 65.5732 108.239 65.5403 108.24ZM50.6541 107.753H65.1658C64.8158 106.852 64.7302 105.87 64.919 104.922C65.1079 103.974 65.5633 103.1 66.2319 102.402C66.9004 101.704 67.7543 101.211 68.6932 100.981C69.6321 100.752 70.617 100.795 71.5322 101.106V88.8523L64.5404 81.8605H50.684L50.6541 107.753Z" fill="#5FD1BE"/>
<path d="M71.9366 89.1745H64.7912C64.7267 89.1745 64.6648 89.1488 64.6191 89.1032C64.5735 89.0575 64.5478 88.9956 64.5478 88.9311V81.8156C64.5458 81.7666 64.5589 81.7182 64.5853 81.6768C64.6117 81.6355 64.6502 81.6032 64.6955 81.5844C64.7409 81.5656 64.7909 81.5612 64.8388 81.5718C64.8867 81.5823 64.9303 81.6073 64.9635 81.6434L72.0789 88.7588C72.1134 88.78 72.1419 88.8098 72.1616 88.8452C72.1813 88.8806 72.1915 88.9205 72.1913 88.961C72.1829 89.0219 72.1522 89.0775 72.1052 89.1169C72.0581 89.1564 71.998 89.1769 71.9366 89.1745ZM65.0421 88.6876H71.3449L65.0421 82.3849V88.6876Z" fill="#5FD1BE"/>
<path d="M61.1362 84.9951H53.6875C53.6229 84.9951 53.561 84.9695 53.5154 84.9238C53.4697 84.8782 53.4441 84.8163 53.4441 84.7517C53.4441 84.6872 53.4697 84.6252 53.5154 84.5796C53.561 84.5339 53.6229 84.5083 53.6875 84.5083H61.1362C61.2008 84.5083 61.2627 84.5339 61.3084 84.5796C61.354 84.6252 61.3797 84.6872 61.3797 84.7517C61.3797 84.8163 61.354 84.8782 61.3084 84.9238C61.2627 84.9695 61.2008 84.9951 61.1362 84.9951Z" fill="#5FD1BE"/>
<path d="M63.2446 88.1446H53.6875C53.6229 88.1446 53.561 88.1189 53.5154 88.0733C53.4697 88.0276 53.4441 87.9657 53.4441 87.9011C53.4441 87.8366 53.4697 87.7747 53.5154 87.729C53.561 87.6834 53.6229 87.6577 53.6875 87.6577H63.2446C63.3092 87.6577 63.3711 87.6834 63.4167 87.729C63.4624 87.7747 63.4881 87.8366 63.4881 87.9011C63.4881 87.9657 63.4624 88.0276 63.4167 88.0733C63.3711 88.1189 63.3092 88.1446 63.2446 88.1446Z" fill="#5FD1BE"/>
<path d="M67.6412 97.9976H53.6875C53.6229 97.9976 53.561 97.9719 53.5154 97.9263C53.4697 97.8806 53.4441 97.8187 53.4441 97.7542C53.4441 97.6896 53.4697 97.6277 53.5154 97.582C53.561 97.5364 53.6229 97.5107 53.6875 97.5107H67.6412C67.7058 97.5107 67.7677 97.5364 67.8133 97.582C67.859 97.6277 67.8846 97.6896 67.8846 97.7542C67.8846 97.8187 67.859 97.8806 67.8133 97.9263C67.7677 97.9719 67.7058 97.9976 67.6412 97.9976Z" fill="#5FD1BE"/>
<path d="M67.6412 94.9754H53.6875C53.6229 94.9754 53.561 94.9497 53.5154 94.9041C53.4697 94.8584 53.4441 94.7965 53.4441 94.732C53.4441 94.6674 53.4697 94.6055 53.5154 94.5598C53.561 94.5142 53.6229 94.4885 53.6875 94.4885H67.6412C67.7058 94.4885 67.7677 94.5142 67.8133 94.5598C67.859 94.6055 67.8846 94.6674 67.8846 94.732C67.8846 94.7965 67.859 94.8584 67.8133 94.9041C67.7677 94.9497 67.7058 94.9754 67.6412 94.9754Z" fill="#5FD1BE"/>
<path d="M67.6412 91.8222H53.6875C53.6229 91.8222 53.561 91.7965 53.5154 91.7509C53.4697 91.7052 53.4441 91.6433 53.4441 91.5788C53.4441 91.5142 53.4697 91.4523 53.5154 91.4066C53.561 91.361 53.6229 91.3353 53.6875 91.3353H67.6412C67.7058 91.3353 67.7677 91.361 67.8133 91.4066C67.859 91.4523 67.8846 91.5142 67.8846 91.5788C67.8846 91.6433 67.859 91.7052 67.8133 91.7509C67.7677 91.7965 67.7058 91.8222 67.6412 91.8222Z" fill="#5FD1BE"/>
<path d="M69.8845 111C68.8792 111.001 67.8963 110.703 67.0601 110.145C66.2239 109.587 65.572 108.794 65.1867 107.865C64.8015 106.937 64.7004 105.915 64.896 104.929C65.0917 103.943 65.5754 103.037 66.286 102.326C66.9965 101.615 67.902 101.13 68.8879 100.934C69.8738 100.738 70.8958 100.838 71.8246 101.223C72.7534 101.607 73.5474 102.259 74.1059 103.094C74.6645 103.93 74.9626 104.913 74.9626 105.918C74.9616 107.265 74.4264 108.556 73.4744 109.509C72.5224 110.462 71.2313 110.998 69.8845 111ZM69.8845 101.327C68.9753 101.326 68.0864 101.595 67.3302 102.1C66.574 102.604 65.9844 103.322 65.6362 104.162C65.2879 105.001 65.1966 105.926 65.3738 106.817C65.551 107.709 65.9887 108.528 66.6315 109.171C67.2744 109.814 68.0935 110.252 68.9852 110.429C69.8769 110.606 70.8011 110.515 71.6409 110.166C72.4807 109.818 73.1983 109.229 73.703 108.472C74.2076 107.716 74.4765 106.827 74.4758 105.918C74.4748 104.701 73.9907 103.533 73.1299 102.673C72.2691 101.812 71.1019 101.328 69.8845 101.327Z" fill="#5FD1BE"/>
<path d="M69.4238 106.738C69.3877 106.738 69.352 106.73 69.319 106.716L67.7461 105.967C67.6882 105.939 67.6436 105.89 67.6218 105.83C67.6001 105.769 67.603 105.703 67.63 105.645C67.6432 105.615 67.6623 105.589 67.686 105.567C67.7098 105.545 67.7377 105.528 67.7681 105.517C67.7986 105.506 67.8309 105.502 67.8631 105.504C67.8954 105.506 67.9269 105.514 67.9558 105.529L69.4238 106.221L71.8168 105.117C71.8459 105.103 71.8772 105.095 71.9092 105.094C71.9412 105.093 71.9732 105.098 72.0032 105.109C72.0333 105.12 72.0609 105.136 72.0845 105.158C72.1081 105.18 72.1273 105.206 72.1408 105.235C72.1543 105.264 72.162 105.295 72.1634 105.327C72.1647 105.359 72.1598 105.391 72.1489 105.421C72.1379 105.451 72.1211 105.479 72.0995 105.502C72.0779 105.526 72.0518 105.545 72.0228 105.559L69.5249 106.708C69.4939 106.726 69.4593 106.736 69.4238 106.738Z" fill="#5FD1BE"/>
<path d="M70.3172 31.2775H60.0468C59.1122 31.2754 58.2166 30.903 57.5561 30.2418C56.8957 29.5806 56.5242 28.6846 56.5232 27.75V14.9356C56.5232 14.8672 56.5501 14.8015 56.5982 14.7527C56.6462 14.7039 56.7115 14.676 56.78 14.6749H74.3029C74.3714 14.676 74.4367 14.7039 74.4847 14.7527C74.5328 14.8015 74.5597 14.8672 74.5597 14.9356V27.0311C74.5587 28.1563 74.1115 29.2352 73.3162 30.0312C72.5209 30.8273 71.4424 31.2754 70.3172 31.2775ZM57.0407 15.1924V27.75C57.0407 28.5487 57.3577 29.3147 57.9221 29.8798C58.4864 30.445 59.252 30.763 60.0507 30.764H70.3212C71.3109 30.763 72.2598 30.3693 72.9596 29.6695C73.6594 28.9697 74.053 28.0208 74.0541 27.0311V15.1805L57.0407 15.1924Z" fill="#5FD1BE"/>
<path d="M66.217 24.9335H56.7997C56.7316 24.9335 56.6663 24.9064 56.6182 24.8583C56.57 24.8101 56.543 24.7448 56.543 24.6767V20.3592C56.544 20.2914 56.5714 20.2267 56.6193 20.1787C56.6672 20.1308 56.7319 20.1034 56.7997 20.1024H66.217C66.2847 20.1034 66.3494 20.1308 66.3974 20.1787C66.4453 20.2267 66.4727 20.2914 66.4737 20.3592V24.6767C66.4727 24.7445 66.4453 24.8092 66.3974 24.8571C66.3494 24.9051 66.2847 24.9325 66.217 24.9335ZM57.0565 24.42H65.972V20.6199H57.0565V24.42Z" fill="#5FD1BE"/>
<path d="M75.958 15.1925H55.1642C55.0965 15.1915 55.0317 15.1641 54.9838 15.1162C54.9359 15.0683 54.9085 15.0035 54.9075 14.9358V10.6182C54.9075 10.5501 54.9345 10.4848 54.9827 10.4366C55.0308 10.3885 55.0961 10.3615 55.1642 10.3615H75.958C76.0261 10.3615 76.0914 10.3885 76.1395 10.4366C76.1877 10.4848 76.2147 10.5501 76.2147 10.6182V14.9358C76.2137 15.0035 76.1863 15.0683 76.1384 15.1162C76.0905 15.1641 76.0258 15.1915 75.958 15.1925ZM55.417 14.675H75.6973V10.875H55.421L55.417 14.675Z" fill="#5FD1BE"/>
<path d="M69.614 12.372H55.1642C55.0961 12.372 55.0308 12.345 54.9827 12.2968C54.9345 12.2487 54.9075 12.1834 54.9075 12.1153C54.9075 12.0472 54.9345 11.9819 54.9827 11.9337C55.0308 11.8856 55.0961 11.8585 55.1642 11.8585H69.614C69.6821 11.8585 69.7474 11.8856 69.7955 11.9337C69.8437 11.9819 69.8707 12.0472 69.8707 12.1153C69.8707 12.1834 69.8437 12.2487 69.7955 12.2968C69.7474 12.345 69.6821 12.372 69.614 12.372Z" fill="#5FD1BE"/>
<path d="M72.9044 10.8748H68.9819C68.9138 10.8748 68.8485 10.8478 68.8003 10.7996C68.7522 10.7515 68.7251 10.6862 68.7251 10.6181V4.2978C68.7244 4.25788 68.7339 4.21843 68.7528 4.18324L70.7279 0.146158C70.7489 0.102198 70.7819 0.0651221 70.8232 0.0392425C70.8645 0.0133628 70.9122 -0.000250948 70.9609 3.5027e-06C71.0091 2.2954e-05 71.0562 0.013785 71.0968 0.0396765C71.1374 0.0655679 71.1697 0.10251 71.19 0.146158L73.1651 4.18324C73.1809 4.21937 73.189 4.25838 73.1888 4.2978V10.6181C73.189 10.6543 73.1816 10.6901 73.167 10.7232C73.1524 10.7563 73.131 10.7859 73.1041 10.8102C73.0773 10.8344 73.0456 10.8527 73.0112 10.8638C72.9768 10.875 72.9404 10.8787 72.9044 10.8748ZM69.2387 10.3613H72.6477V4.361L70.9451 0.849289L69.2387 4.361V10.3613Z" fill="#5FD1BE"/>
<path d="M71.0005 5.11944C70.9468 5.11948 70.8944 5.10292 70.8504 5.07203L70.2342 4.62567L69.8707 4.94168C69.83 4.97735 69.779 4.99924 69.7251 5.00421C69.6712 5.00917 69.6171 4.99697 69.5705 4.96933L68.8042 4.51111C68.747 4.47519 68.706 4.41846 68.6897 4.35288C68.6735 4.2873 68.6834 4.21798 68.7173 4.15954C68.7344 4.13042 68.7571 4.10501 68.7841 4.08481C68.8112 4.06461 68.842 4.05003 68.8748 4.04193C68.9075 4.03383 68.9416 4.03238 68.9749 4.03765C69.0083 4.04292 69.0402 4.05482 69.0689 4.07263L69.6732 4.4321L70.0683 4.10818C70.1128 4.07159 70.1686 4.0516 70.2263 4.0516C70.2839 4.0516 70.3398 4.07159 70.3843 4.10818L70.9887 4.54271L71.3837 4.14769C71.4332 4.10216 71.4981 4.0769 71.5654 4.0769C71.6327 4.0769 71.6975 4.10216 71.7471 4.14769L72.1421 4.54271L72.7425 4.10818C72.77 4.08836 72.8011 4.07417 72.834 4.06641C72.867 4.05866 72.9012 4.05751 72.9346 4.06301C72.968 4.06852 73 4.08058 73.0287 4.0985C73.0575 4.11643 73.0824 4.13986 73.102 4.16745C73.1217 4.19458 73.1358 4.22537 73.1435 4.25802C73.1512 4.29067 73.1524 4.32453 73.1468 4.35761C73.1413 4.3907 73.1293 4.42236 73.1114 4.45075C73.0935 4.47914 73.0702 4.50369 73.0427 4.52296L72.2527 5.08783C72.2026 5.12191 72.1423 5.13776 72.0819 5.13273C72.0215 5.12769 71.9647 5.10208 71.9209 5.06018L71.5259 4.66516L71.1309 5.06018C71.0936 5.09136 71.0485 5.11185 71.0005 5.11944Z" fill="#5FD1BE"/>
<path d="M67.2044 10.8748H62.7605C62.692 10.8748 62.6263 10.8479 62.5775 10.7999C62.5287 10.7518 62.5008 10.6865 62.4998 10.6181V2.04619C62.5008 1.97773 62.5287 1.91243 62.5775 1.86439C62.6263 1.81634 62.692 1.78942 62.7605 1.78943H67.2044C67.2725 1.78943 67.3378 1.81649 67.386 1.86464C67.4341 1.91279 67.4612 1.97809 67.4612 2.04619V10.6181C67.4612 10.6862 67.4341 10.7515 67.386 10.7996C67.3378 10.8478 67.2725 10.8748 67.2044 10.8748ZM63.0172 10.3613H66.9674V2.30296H63.0172V10.3613Z" fill="#5FD1BE"/>
<path d="M64.7514 4.03708H62.7763C62.7082 4.03708 62.6429 4.01003 62.5947 3.96188C62.5466 3.91373 62.5195 3.84842 62.5195 3.78032C62.5195 3.71222 62.5466 3.64691 62.5947 3.59876C62.6429 3.55061 62.7082 3.52356 62.7763 3.52356H64.7514C64.8195 3.52356 64.8848 3.55061 64.9329 3.59876C64.9811 3.64691 65.0081 3.71222 65.0081 3.78032C65.0081 3.84842 64.9811 3.91373 64.9329 3.96188C64.8848 4.01003 64.8195 4.03708 64.7514 4.03708Z" fill="#5FD1BE"/>
<path d="M64.7512 5.62113H62.7761C62.7395 5.62567 62.7023 5.62237 62.667 5.61144C62.6317 5.60051 62.5991 5.58221 62.5715 5.55775C62.5438 5.53328 62.5216 5.50321 62.5064 5.46953C62.4912 5.43585 62.4834 5.39934 62.4834 5.3624C62.4834 5.32546 62.4912 5.28893 62.5064 5.25525C62.5216 5.22157 62.5438 5.19151 62.5715 5.16705C62.5991 5.14258 62.6317 5.12428 62.667 5.11335C62.7023 5.10242 62.7395 5.09912 62.7761 5.10366H64.7512C64.7879 5.09912 64.8251 5.10242 64.8604 5.11335C64.8957 5.12428 64.9282 5.14258 64.9559 5.16705C64.9836 5.19151 65.0058 5.22157 65.0209 5.25525C65.0361 5.28893 65.044 5.32546 65.044 5.3624C65.044 5.39934 65.0361 5.43585 65.0209 5.46953C65.0058 5.50321 64.9836 5.53328 64.9559 5.55775C64.9282 5.58221 64.8957 5.60051 64.8604 5.61144C64.8251 5.62237 64.7879 5.62567 64.7512 5.62113Z" fill="#5FD1BE"/>
<path d="M64.7514 7.15781H62.7763C62.7082 7.15781 62.6429 7.13076 62.5947 7.08261C62.5466 7.03445 62.5195 6.96914 62.5195 6.90105C62.5195 6.83295 62.5466 6.76764 62.5947 6.71949C62.6429 6.67133 62.7082 6.64429 62.7763 6.64429H64.7514C64.8195 6.64429 64.8848 6.67133 64.9329 6.71949C64.9811 6.76764 65.0081 6.83295 65.0081 6.90105C65.0081 6.96914 64.9811 7.03445 64.9329 7.08261C64.8848 7.13076 64.8195 7.15781 64.7514 7.15781Z" fill="#5FD1BE"/>
<path d="M59.6516 7.04318C59.3523 7.03454 59.0684 6.90821 58.8616 6.69161C58.8508 6.68575 58.8414 6.67767 58.834 6.66791C58.2809 6.11488 57.9807 5.08784 57.9807 3.76058C58.0035 3.48241 58.0833 3.2119 58.2152 2.96589C58.347 2.71989 58.5281 2.50364 58.747 2.33061C59.2391 1.91883 59.5762 1.35182 59.703 0.722896C59.7101 0.67427 59.731 0.628691 59.7632 0.591581C59.7954 0.55447 59.8376 0.527388 59.8847 0.513537C59.9321 0.500066 59.9824 0.50074 60.0294 0.515477C60.0764 0.530215 60.1181 0.558371 60.1494 0.596487C60.4403 0.933507 60.6823 1.30983 60.8683 1.71438C61.1645 2.35435 61.3168 3.05145 61.3147 3.75663C61.3147 5.07599 61.0145 6.10699 60.4654 6.66001C60.3625 6.7753 60.2374 6.86864 60.0975 6.93448C59.9577 7.00032 59.8061 7.03729 59.6516 7.04318ZM59.1934 6.29659L59.2171 6.31635C59.2697 6.3822 59.3364 6.43537 59.4123 6.47192C59.4882 6.50846 59.5713 6.52744 59.6556 6.52744C59.7398 6.52744 59.823 6.50846 59.8989 6.47192C59.9748 6.43537 60.0415 6.3822 60.0941 6.31635C60.5365 5.86603 60.7893 4.94168 60.7893 3.78033C60.792 3.14923 60.6572 2.52512 60.3943 1.9514C60.2983 1.74728 60.1874 1.55056 60.0625 1.36282C59.8487 1.87887 59.522 2.34047 59.1065 2.71378C58.7708 3.05349 58.4863 3.34976 58.4863 3.78428C58.4666 4.92193 58.7352 5.84627 59.1776 6.29659H59.1934Z" fill="#5FD1BE"/>
<path d="M60.6629 8.31122H58.6127C58.5446 8.31122 58.4793 8.28418 58.4312 8.23603C58.383 8.18787 58.356 8.12256 58.356 8.05447V7.26443C58.3568 7.05036 58.4111 6.83987 58.514 6.65215C58.5832 6.52871 58.6711 6.41677 58.7747 6.32033C58.8204 6.28312 58.8776 6.26282 58.9366 6.26282C58.9956 6.26282 59.0528 6.28312 59.0986 6.32033C59.2524 6.44111 59.4422 6.50676 59.6378 6.50676C59.8333 6.50676 60.0232 6.44111 60.177 6.32033C60.2228 6.28312 60.28 6.26282 60.3389 6.26282C60.3979 6.26282 60.4551 6.28312 60.5009 6.32033C60.6022 6.41487 60.6887 6.52406 60.7577 6.64425C60.8631 6.83402 60.9188 7.04736 60.9196 7.26443V8.05447C60.9186 8.12225 60.8912 8.18696 60.8433 8.23489C60.7954 8.28283 60.7306 8.31021 60.6629 8.31122ZM58.8695 7.79771H60.4061V7.23678C60.4061 7.10827 60.3735 6.98186 60.3113 6.86941L60.2797 6.81806C60.0815 6.92123 59.8613 6.97509 59.6378 6.97509C59.4143 6.97509 59.1941 6.92123 58.9959 6.81806C58.9959 6.81806 58.9959 6.8536 58.9643 6.87335C58.9017 6.98423 58.8691 7.10947 58.8695 7.23678V7.79771Z" fill="#5FD1BE"/>
<path d="M60.6391 10.8748H58.6364C58.5686 10.8738 58.5039 10.8464 58.456 10.7985C58.408 10.7505 58.3807 10.6858 58.3796 10.618C58.3796 10.4916 58.3796 9.8833 58.3796 9.28682V8.05437C58.3796 7.98627 58.4067 7.92096 58.4548 7.87281C58.503 7.82465 58.5683 7.79761 58.6364 7.79761H60.6865C60.7546 7.79761 60.8199 7.82465 60.8681 7.87281C60.9163 7.92096 60.9433 7.98627 60.9433 8.05437V9.07746C60.9433 9.73319 60.9433 10.4798 60.9433 10.622C60.9441 10.66 60.9363 10.6977 60.9205 10.7322C60.9047 10.7668 60.8814 10.7974 60.8521 10.8217C60.8229 10.846 60.7886 10.8634 60.7517 10.8726C60.7148 10.8818 60.6764 10.8825 60.6391 10.8748ZM58.8932 10.3613H60.3863C60.3863 10.0532 60.3863 9.54358 60.3863 9.07351V8.31113H58.8616V9.27892C58.8853 9.68579 58.8892 10.0966 58.8932 10.3613Z" fill="#5FD1BE"/>
<path d="M64.7514 8.6904H62.7763C62.7082 8.6904 62.6429 8.66335 62.5947 8.6152C62.5466 8.56705 62.5195 8.50174 62.5195 8.43364C62.5195 8.36554 62.5466 8.30023 62.5947 8.25208C62.6429 8.20393 62.7082 8.17688 62.7763 8.17688H64.7514C64.8195 8.17688 64.8848 8.20393 64.9329 8.25208C64.9811 8.30023 65.0081 8.36554 65.0081 8.43364C65.0081 8.50174 64.9811 8.56705 64.9329 8.6152C64.8848 8.66335 64.8195 8.6904 64.7514 8.6904Z" fill="#5FD1BE"/>
<path d="M18.9663 33.0158C18.9036 33.0154 18.8435 32.9906 18.7988 32.9466C18.7673 32.9155 18.745 32.8761 18.7347 32.8329C18.7244 32.7898 18.7265 32.7447 18.7406 32.7026L21.3258 25.231C21.3369 25.198 21.3556 25.168 21.3804 25.1436L38.7415 7.78256C38.7861 7.73853 38.8462 7.7137 38.9089 7.71338C38.9717 7.7137 39.0318 7.73853 39.0764 7.78256L43.9592 12.669C43.9817 12.6907 43.9996 12.7168 44.0118 12.7455C44.024 12.7743 44.0302 12.8052 44.0302 12.8365C44.0302 12.8677 44.024 12.8987 44.0118 12.9274C43.9996 12.9562 43.9817 12.9822 43.9592 13.004L26.6018 30.3577C26.5769 30.3845 26.5456 30.4045 26.5108 30.416L19.0428 33.0012C19.0186 33.0113 18.9926 33.0163 18.9663 33.0158ZM21.7555 25.4385L19.3487 32.3968L26.3251 29.9863L43.475 12.8365L38.9271 8.28504L21.7555 25.4385Z" fill="#5FD1BE"/>
<path d="M18.9663 33.0157C18.9036 33.0154 18.8435 32.9905 18.7988 32.9465C18.7673 32.9154 18.745 32.876 18.7347 32.8329C18.7244 32.7897 18.7265 32.7446 18.7406 32.7025L19.4688 30.5761C19.4808 30.5425 19.5001 30.5121 19.5252 30.4869C19.5504 30.4617 19.5809 30.4424 19.6145 30.4305C19.6487 30.4195 19.6848 30.4157 19.7205 30.4195C19.7563 30.4233 19.7908 30.4344 19.822 30.4523C20.1137 30.6404 20.3847 30.8589 20.6303 31.1041C20.8773 31.3495 21.0959 31.6219 21.2821 31.916C21.3014 31.9459 21.3137 31.9798 21.3181 32.0151C21.3226 32.0504 21.319 32.0862 21.3076 32.1199C21.2956 32.1535 21.2764 32.184 21.2512 32.2092C21.226 32.2344 21.1955 32.2536 21.162 32.2656L19.0355 32.9938C19.0141 33.0055 18.9906 33.0129 18.9663 33.0157ZM19.822 31.024L19.3487 32.3967L20.7177 31.9197C20.5917 31.7493 20.4529 31.5886 20.3026 31.4391C20.1527 31.2892 19.9921 31.1505 19.822 31.024Z" fill="#5FD1BE"/>
<path d="M26.4819 30.4924C26.4293 30.4924 26.3781 30.4749 26.3366 30.4426C26.295 30.4103 26.2655 30.365 26.2525 30.314L25.9102 28.9631L24.8761 28.8867C24.8235 28.8825 24.7738 28.8609 24.7349 28.8253C24.696 28.7897 24.6701 28.7421 24.6613 28.69L24.421 27.2336H23.2194C23.1566 27.2336 23.0964 27.2087 23.0521 27.1643C23.0077 27.1199 22.9827 27.0597 22.9827 26.9969V25.7953L21.5263 25.5587C21.4643 25.5479 21.409 25.5133 21.3722 25.4623C21.3354 25.4112 21.3202 25.3478 21.3297 25.2856C21.3404 25.2236 21.375 25.1682 21.426 25.1315C21.4771 25.0947 21.5405 25.0794 21.6027 25.0889L23.2704 25.3584C23.326 25.3671 23.3768 25.3953 23.4135 25.438C23.4502 25.4807 23.4705 25.5351 23.4707 25.5914V26.7602H24.6358C24.6921 26.7604 24.7465 26.7807 24.7893 26.8174C24.832 26.8541 24.8602 26.9048 24.8689 26.9605L25.1128 28.4424L26.1287 28.5189C26.1779 28.522 26.2248 28.5406 26.2627 28.572C26.3007 28.6034 26.3277 28.646 26.3399 28.6937L26.7259 30.212C26.7413 30.2729 26.732 30.3374 26.6999 30.3913C26.684 30.418 26.663 30.4414 26.6381 30.46C26.6132 30.4785 26.5848 30.4921 26.5547 30.4997L26.4819 30.4924Z" fill="#5FD1BE"/>
<path d="M23.0482 25.7734C23.0171 25.7734 22.9863 25.7674 22.9576 25.7555C22.9289 25.7436 22.9027 25.7262 22.8807 25.7042C22.8371 25.6594 22.8127 25.5993 22.8127 25.5367C22.8127 25.4742 22.8371 25.4141 22.8807 25.3692L39.6118 8.61992C39.6563 8.5755 39.7165 8.55054 39.7793 8.55054C39.8422 8.55054 39.9024 8.5755 39.9468 8.61992C39.9912 8.66434 40.0162 8.7246 40.0162 8.78742C40.0162 8.85024 39.9912 8.91048 39.9468 8.9549L23.1975 25.686C23.1796 25.7097 23.1572 25.7296 23.1316 25.7446C23.106 25.7596 23.0776 25.7694 23.0482 25.7734Z" fill="#5FD1BE"/>
<path d="M24.4464 27.3536C24.3838 27.3526 24.324 27.3278 24.2789 27.2844C24.2353 27.2396 24.2109 27.1795 24.2109 27.1169C24.2109 27.0544 24.2353 26.9943 24.2789 26.9495L41.0282 10.0618C41.0502 10.0398 41.0763 10.0223 41.1051 10.0104C41.1338 9.99846 41.1646 9.99231 41.1957 9.99231C41.2268 9.99231 41.2576 9.99846 41.2864 10.0104C41.3151 10.0223 41.3412 10.0398 41.3632 10.0618C41.3857 10.0835 41.4035 10.1095 41.4157 10.1383C41.4279 10.1671 41.4342 10.198 41.4342 10.2293C41.4342 10.2605 41.4279 10.2914 41.4157 10.3202C41.4035 10.349 41.3857 10.375 41.3632 10.3968L24.6139 27.2844C24.5919 27.3064 24.5658 27.3238 24.537 27.3357C24.5083 27.3476 24.4775 27.3537 24.4464 27.3536Z" fill="#5FD1BE"/>
<path d="M25.7828 29.0759C25.7517 29.0759 25.721 29.0699 25.6922 29.058C25.6635 29.0461 25.6374 29.0287 25.6154 29.0067C25.5718 28.9619 25.5474 28.9018 25.5474 28.8392C25.5474 28.7767 25.5718 28.7166 25.6154 28.6717L42.6232 11.6712C42.6676 11.6268 42.7279 11.6018 42.7907 11.6018C42.8535 11.6018 42.9137 11.6268 42.9582 11.6712C43.0026 11.7156 43.0275 11.7759 43.0275 11.8387C43.0275 11.9015 43.0026 11.9617 42.9582 12.0062L25.9613 29.0067C25.9383 29.0304 25.9104 29.0489 25.8796 29.0608C25.8488 29.0728 25.8158 29.0779 25.7828 29.0759Z" fill="#5FD1BE"/>
<path d="M43.8028 13.0731C43.7403 13.0713 43.6808 13.0467 43.6353 13.0039L38.7416 8.11745C38.698 8.0726 38.6736 8.01253 38.6736 7.94997C38.6736 7.88742 38.698 7.82733 38.7416 7.78247L40.0087 6.51536C40.3905 6.13735 40.906 5.92529 41.4433 5.92529C41.9806 5.92529 42.4961 6.13735 42.8779 6.51536L45.2301 8.86389C45.6092 9.24583 45.822 9.76217 45.822 10.3003C45.822 10.8385 45.6092 11.3548 45.2301 11.7368L43.9593 13.0039C43.917 13.0448 43.8615 13.0693 43.8028 13.0731ZM39.255 7.94997L43.8028 12.5014L44.8951 11.4091C45.1798 11.1167 45.3391 10.7248 45.3391 10.3167C45.3391 9.90866 45.1798 9.51672 44.8951 9.22438L42.5429 6.87583C42.2506 6.59113 41.8586 6.43182 41.4506 6.43182C41.0425 6.43182 40.6506 6.59113 40.3582 6.87583L39.255 7.94997Z" fill="#5FD1BE"/>
<path d="M39.0694 33.3798H36.6189C36.5562 33.3798 36.496 33.3549 36.4516 33.3105C36.4072 33.2661 36.3823 33.2059 36.3823 33.1432C36.3823 33.0804 36.4072 33.0202 36.4516 32.9758C36.496 32.9314 36.5562 32.9065 36.6189 32.9065H39.0694C39.1322 32.9065 39.1924 32.9314 39.2368 32.9758C39.2812 33.0202 39.3061 33.0804 39.3061 33.1432C39.3061 33.2059 39.2812 33.2661 39.2368 33.3105C39.1924 33.3549 39.1322 33.3798 39.0694 33.3798ZM34.6454 33.3798H17.2225C17.1597 33.3798 17.0995 33.3549 17.0552 33.3105C17.0108 33.2661 16.9858 33.2059 16.9858 33.1432C16.9858 33.0804 17.0108 33.0202 17.0552 32.9758C17.0995 32.9314 17.1597 32.9065 17.2225 32.9065H34.6199C34.6827 32.9065 34.7429 32.9314 34.7873 32.9758C34.8317 33.0202 34.8566 33.0804 34.8566 33.1432C34.8566 33.2059 34.8317 33.2661 34.7873 33.3105C34.7429 33.3549 34.6827 33.3798 34.6199 33.3798H34.6454Z" fill="#5FD1BE"/>
<path d="M35.614 34.3666C35.3712 34.3666 35.1338 34.2945 34.9319 34.1596C34.7301 34.0246 34.5728 33.8327 34.48 33.6083C34.3872 33.3838 34.3632 33.1369 34.4108 32.8988C34.4585 32.6607 34.5757 32.442 34.7477 32.2706C34.9196 32.0991 35.1386 31.9825 35.3769 31.9356C35.6151 31.8887 35.862 31.9135 36.0861 32.0069C36.3103 32.1004 36.5017 32.2582 36.6361 32.4605C36.7705 32.6627 36.8418 32.9003 36.8411 33.1432C36.8411 33.3041 36.8093 33.4635 36.7476 33.6122C36.6859 33.7609 36.5955 33.8959 36.4815 34.0096C36.3675 34.1232 36.2322 34.2132 36.0833 34.2745C35.9345 34.3358 35.775 34.3671 35.614 34.3666ZM35.614 32.3895C35.465 32.3895 35.3192 32.4337 35.1953 32.5165C35.0713 32.5993 34.9747 32.717 34.9177 32.8547C34.8606 32.9925 34.8457 33.144 34.8748 33.2902C34.9039 33.4364 34.9757 33.5707 35.0811 33.6761C35.1865 33.7815 35.3208 33.8533 35.467 33.8824C35.6132 33.9115 35.7647 33.8966 35.9025 33.8395C36.0402 33.7825 36.1579 33.6859 36.2407 33.5619C36.3235 33.438 36.3677 33.2922 36.3677 33.1432C36.3682 33.0441 36.3491 32.9458 36.3114 32.8542C36.2737 32.7625 36.2181 32.6792 36.1481 32.6092C36.078 32.5391 35.9947 32.4836 35.903 32.4458C35.8114 32.4081 35.7131 32.389 35.614 32.3895Z" fill="#5FD1BE"/>
<path d="M13.5017 59.5684H10.5588C10.491 59.5673 10.4263 59.54 10.3784 59.492C10.3304 59.4441 10.303 59.3794 10.302 59.3116V50.005C10.2908 49.7711 10.3272 49.5373 10.409 49.3179C10.4909 49.0985 10.6163 48.898 10.7779 48.7285C10.9395 48.559 11.1338 48.424 11.3491 48.3319C11.5643 48.2397 11.7961 48.1921 12.0302 48.1921C12.2644 48.1921 12.4961 48.2397 12.7114 48.3319C12.9266 48.424 13.1209 48.559 13.2825 48.7285C13.4441 48.898 13.5696 49.0985 13.6514 49.3179C13.7332 49.5373 13.7696 49.7711 13.7584 50.005V59.3116C13.7584 59.3453 13.7518 59.3787 13.7389 59.4098C13.726 59.441 13.7071 59.4693 13.6832 59.4931C13.6594 59.517 13.6311 59.5359 13.5999 59.5488C13.5688 59.5617 13.5354 59.5684 13.5017 59.5684ZM10.8195 59.0548H13.2449V50.005C13.2449 49.8457 13.2135 49.688 13.1526 49.5409C13.0917 49.3937 13.0023 49.2601 12.8897 49.1474C12.7771 49.0348 12.6434 48.9455 12.4963 48.8846C12.3492 48.8236 12.1915 48.7923 12.0322 48.7923C11.8729 48.7923 11.7153 48.8236 11.5681 48.8846C11.421 48.9455 11.2873 49.0348 11.1747 49.1474C11.0621 49.2601 10.9727 49.3937 10.9118 49.5409C10.8509 49.688 10.8195 49.8457 10.8195 50.005V59.0548Z" fill="#5FD1BE"/>
<path d="M11.977 76.6806C11.9348 76.6805 11.8932 76.6701 11.856 76.6501C11.8188 76.6301 11.7871 76.6012 11.7637 76.5661L7.44616 69.9653C7.42437 69.9333 7.41051 69.8965 7.4057 69.8581C7.40089 69.8196 7.40528 69.7805 7.4185 69.7441L10.3495 61.1525C10.367 61.1015 10.4 61.0572 10.4439 61.026C10.4879 60.9948 10.5405 60.9783 10.5944 60.9787H13.4702C13.5237 60.9779 13.576 60.9944 13.6194 61.0257C13.6628 61.057 13.695 61.1014 13.7111 61.1525L16.6461 69.7481C16.6594 69.7852 16.6638 69.8248 16.659 69.8639C16.6542 69.903 16.6403 69.9404 16.6185 69.9732L12.1903 76.5661C12.1664 76.6008 12.1346 76.6293 12.0975 76.6492C12.0604 76.6691 12.0191 76.6799 11.977 76.6806ZM7.94388 69.7915L11.977 75.9617L16.1207 69.7915L13.2845 61.4961H10.7762L7.94388 69.7915Z" fill="#5FD1BE"/>
<path d="M14.6275 61.4922H9.43693C9.36884 61.4922 9.30353 61.4651 9.25537 61.417C9.20722 61.3688 9.18018 61.3035 9.18018 61.2354V59.3117C9.18018 59.2436 9.20722 59.1783 9.25537 59.1302C9.30353 59.082 9.36884 59.0549 9.43693 59.0549H14.6275C14.6956 59.0549 14.7609 59.082 14.809 59.1302C14.8572 59.1783 14.8842 59.2436 14.8842 59.3117V61.2354C14.8842 61.3035 14.8572 61.3688 14.809 61.417C14.7609 61.4651 14.6956 61.4922 14.6275 61.4922ZM9.69369 60.9787H14.3707V59.5685H9.69369V60.9787Z" fill="#5FD1BE"/>
<path d="M12.0403 69.4874C11.7152 69.4874 11.3975 69.391 11.1273 69.2104C10.8571 69.0298 10.6464 68.7732 10.5221 68.4729C10.3977 68.1727 10.3651 67.8422 10.4285 67.5235C10.492 67.2047 10.6485 66.9119 10.8783 66.6821C11.1081 66.4523 11.4009 66.2958 11.7197 66.2324C12.0384 66.169 12.3688 66.2015 12.6691 66.3259C12.9694 66.4503 13.226 66.6609 13.4066 66.9311C13.5872 67.2014 13.6835 67.5191 13.6835 67.8441C13.6825 68.2796 13.509 68.6969 13.2011 69.0049C12.8931 69.3128 12.4758 69.4863 12.0403 69.4874ZM12.0403 66.7222C11.8168 66.7222 11.5984 66.7885 11.4126 66.9126C11.2268 67.0368 11.082 67.2132 10.9965 67.4196C10.911 67.6261 10.8886 67.8532 10.9322 68.0724C10.9758 68.2915 11.0834 68.4928 11.2414 68.6508C11.3994 68.8088 11.6007 68.9164 11.8199 68.96C12.039 69.0036 12.2662 68.9812 12.4726 68.8957C12.679 68.8102 12.8555 68.6654 12.9796 68.4796C13.1037 68.2938 13.17 68.0754 13.17 67.852C13.171 67.7029 13.1426 67.5552 13.0863 67.4172C13.03 67.2792 12.9469 67.1537 12.8419 67.048C12.7369 66.9423 12.612 66.8583 12.4744 66.8011C12.3368 66.7438 12.1893 66.7143 12.0403 66.7143V66.7222Z" fill="#5FD1BE"/>
<path d="M11.977 76.6806C11.9089 76.6806 11.8436 76.6535 11.7954 76.6054C11.7473 76.5572 11.7202 76.4919 11.7202 76.4238L11.7795 69.2226C11.7805 69.1552 11.808 69.091 11.8561 69.0436C11.9041 68.9963 11.9688 68.9698 12.0362 68.9698C12.1043 68.9698 12.1696 68.9969 12.2178 69.045C12.2659 69.0932 12.293 69.1585 12.293 69.2266L12.2337 76.4436C12.2279 76.5079 12.1984 76.5677 12.1509 76.6115C12.1035 76.6552 12.0415 76.6799 11.977 76.6806Z" fill="#5FD1BE"/>
<path d="M14.3076 79.5484H9.757C9.68891 79.5484 9.6236 79.5214 9.57544 79.4732C9.52729 79.4251 9.50024 79.3598 9.50024 79.2917V76.7241C9.50024 76.656 9.52729 76.5906 9.57544 76.5425C9.6236 76.4943 9.68891 76.4673 9.757 76.4673H14.3076C14.3757 76.4673 14.441 76.4943 14.4892 76.5425C14.5373 76.5906 14.5644 76.656 14.5644 76.7241V79.2917C14.5644 79.3598 14.5373 79.4251 14.4892 79.4732C14.441 79.5214 14.3757 79.5484 14.3076 79.5484ZM10.0138 79.0349H14.0508V76.9808H10.0138V79.0349Z" fill="#5FD1BE"/>
<path d="M23.7761 78.9163H21.4731C21.4046 78.9163 21.3389 78.8894 21.2901 78.8414C21.2414 78.7933 21.2134 78.728 21.2124 78.6596V77.356C21.2134 77.2876 21.2414 77.2222 21.2901 77.1742C21.3389 77.1262 21.4046 77.0992 21.4731 77.0992H23.7761C23.8442 77.0992 23.9095 77.1263 23.9576 77.1745C24.0058 77.2226 24.0328 77.2879 24.0328 77.356V78.6596C24.0328 78.7277 24.0058 78.793 23.9576 78.8411C23.9095 78.8893 23.8442 78.9163 23.7761 78.9163ZM21.7299 78.4028H23.5193V77.6128H21.7299V78.4028Z" fill="#5FD1BE"/>
<path d="M21.4732 78.2646H14.3075C14.2394 78.2646 14.1741 78.2376 14.126 78.1894C14.0778 78.1413 14.0508 78.076 14.0508 78.0079C14.0508 77.9398 14.0778 77.8744 14.126 77.8263C14.1741 77.7781 14.2394 77.7511 14.3075 77.7511H21.4732C21.5069 77.7511 21.5403 77.7577 21.5714 77.7707C21.6026 77.7836 21.6309 77.8025 21.6547 77.8263C21.6786 77.8501 21.6975 77.8784 21.7104 77.9096C21.7233 77.9407 21.7299 77.9742 21.7299 78.0079C21.7299 78.0416 21.7233 78.075 21.7104 78.1061C21.6975 78.1373 21.6786 78.1656 21.6547 78.1894C21.6309 78.2133 21.6026 78.2322 21.5714 78.2451C21.5403 78.258 21.5069 78.2646 21.4732 78.2646Z" fill="#5FD1BE"/>
<path d="M2.55971 78.9163H0.256759C0.188662 78.9163 0.123357 78.8893 0.075205 78.8411C0.0270529 78.793 0 78.7277 0 78.6596V77.356C0 77.2879 0.0270529 77.2226 0.075205 77.1745C0.123357 77.1263 0.188662 77.0992 0.256759 77.0992H2.55971C2.62781 77.0992 2.69312 77.1263 2.74127 77.1745C2.78943 77.2226 2.81647 77.2879 2.81647 77.356V78.6596C2.81647 78.7277 2.78943 78.793 2.74127 78.8411C2.69312 78.8893 2.62781 78.9163 2.55971 78.9163ZM0.513524 78.4028H2.30295V77.6128H0.513524V78.4028Z" fill="#5FD1BE"/>
<path d="M9.74116 78.2646H2.55974C2.49164 78.2646 2.42633 78.2376 2.37818 78.1894C2.33003 78.1413 2.30298 78.076 2.30298 78.0079C2.30298 77.9398 2.33003 77.8744 2.37818 77.8263C2.42633 77.7781 2.49164 77.7511 2.55974 77.7511H9.72537C9.75908 77.7511 9.79246 77.7577 9.82361 77.7707C9.85477 77.7836 9.88307 77.8025 9.90691 77.8263C9.93076 77.8501 9.94967 77.8784 9.96257 77.9096C9.97548 77.9407 9.98213 77.9742 9.98213 78.0079C9.98213 78.0416 9.97548 78.075 9.96257 78.1061C9.94967 78.1373 9.93076 78.1656 9.90691 78.1894C9.88307 78.2133 9.85477 78.2322 9.82361 78.2451C9.79246 78.258 9.75908 78.2646 9.72537 78.2646H9.74116Z" fill="#5FD1BE"/>
<path d="M95.2227 58.4606C96.6764 61.2258 96.5026 61.9566 95.8627 64.5874L95.6731 65.3774C95.4582 66.4062 95.1364 67.4097 94.7132 68.3716C94.3128 69.2969 93.6278 70.0704 92.7578 70.5798C91.8835 70.9181 90.9539 71.0908 90.0164 71.0894C88.9716 71.1072 87.9354 71.283 86.9432 71.6108L86.8049 71.6621C85.7582 72.0788 84.677 72.4026 83.5737 72.6299C80.9823 72.8156 79.5563 71.3185 78.0434 69.7344C77.3784 69.0011 76.6559 68.3222 75.8827 67.704C74.4922 66.6059 73.6627 65.6697 73.3032 64.6111C72.9437 63.5524 73.0583 62.3358 73.5402 60.6609C73.8657 59.5041 74.028 58.3075 74.0221 57.1057C74.0695 55.2689 74.109 53.9219 77.0085 51.5755C78.2844 50.5366 80.1252 49.0395 81.7487 49.3278L82.0765 49.3871C82.5585 49.4977 82.9061 49.6004 83.2142 49.6952C83.9715 49.9397 84.7578 50.0831 85.5527 50.1218C85.9991 50.1534 86.5086 50.1613 87.0419 50.1771C87.9869 50.1937 88.9295 50.2782 89.8623 50.4299H89.8939L89.3212 51.3938L88.8946 52.1285C88.8018 52.2881 88.7528 52.4693 88.7523 52.6539C88.7504 52.7728 88.7664 52.8913 88.7997 53.0055C88.9061 52.9936 89.0134 52.9936 89.1197 53.0055C89.0342 53.0113 88.9495 53.0258 88.8669 53.0489H88.8432C88.1993 53.2227 87.4132 53.8784 86.6824 55.1385C86.3268 55.7531 86.1098 56.438 86.0465 57.1452C86.0068 57.5923 86.0268 58.0426 86.1057 58.4843C86.5882 57.9242 87.2499 57.5487 87.9781 57.4217C88.5074 57.2677 88.9973 57.1294 89.2817 56.6317C90.0124 55.3716 90.1863 54.3564 90.0164 53.7125C90.0151 53.7034 90.0151 53.694 90.0164 53.6849C89.9981 53.6185 89.9744 53.5537 89.9453 53.4913C89.9983 53.5661 90.0446 53.6454 90.0836 53.7283C90.2001 53.7039 90.3112 53.6584 90.4114 53.594C90.5764 53.5006 90.713 53.364 90.8064 53.199C90.9565 52.9462 91.0948 52.7013 91.2331 52.4564C91.3713 52.2115 91.8019 51.4412 92.0468 51.0106C92.185 51.1212 92.6393 51.5281 92.7618 51.6624C92.9595 51.8861 93.1232 52.1376 93.2476 52.409C93.5933 53.2278 93.8579 54.0785 94.0377 54.9489C94.2852 56.1452 94.6834 57.3053 95.2227 58.4014V58.4606ZM92.3075 65.1364C92.8645 64.694 93.2911 64.1252 93.2911 63.6077C93.3113 63.3813 93.263 63.1539 93.1524 62.9553C93.0418 62.7567 92.8741 62.5958 92.6709 62.4938C92.2684 62.3279 91.8336 62.255 91.399 62.2805C90.9567 62.2566 90.5146 62.3294 90.1033 62.4938C89.8928 62.5893 89.7171 62.7477 89.6004 62.9472C89.4837 63.1467 89.4317 63.3774 89.4515 63.6077V64.058V64.54C89.4515 65.3102 89.5898 65.9739 90.4391 65.9739C91.1314 65.887 91.782 65.5954 92.3075 65.1364V65.1364ZM87.4251 67.9687C87.9742 67.5263 88.4047 66.9535 88.4047 66.44C88.4258 66.214 88.3778 65.9868 88.2671 65.7887C88.1563 65.5905 87.9881 65.4305 87.7846 65.33C87.3825 65.1623 86.9473 65.0893 86.5126 65.1167C86.0706 65.0916 85.6285 65.1631 85.2169 65.3261C85.0061 65.4214 84.8299 65.5797 84.7125 65.7791C84.5951 65.9785 84.5423 66.2094 84.5612 66.44V66.8785V67.3604C84.5612 68.1504 84.6995 68.7943 85.5487 68.7943C86.2426 68.7128 86.8962 68.4252 87.4251 67.9687V67.9687ZM81.7526 56.5132C82.3017 56.0708 82.7323 55.502 82.7323 54.9805C82.7517 54.7547 82.703 54.5283 82.5924 54.3304C82.4819 54.1326 82.3146 53.9724 82.1121 53.8705C81.7095 53.7047 81.2748 53.6318 80.8401 53.6572C80.3979 53.6334 79.9557 53.7062 79.5445 53.8705C79.3343 53.9657 79.1586 54.1233 79.0412 54.3219C78.9239 54.5206 78.8707 54.7505 78.8887 54.9805V55.4348V55.9167C78.8887 56.7068 79.027 57.3506 79.8763 57.3506C80.5724 57.2635 81.2262 56.969 81.7526 56.5053V56.5132ZM81.6855 66.8469C82.2425 66.4005 82.6651 65.8317 82.6651 65.3102C82.6863 65.0852 82.6387 64.859 82.5287 64.6616C82.4187 64.4641 82.2514 64.3046 82.0489 64.2042C81.6463 64.0386 81.2115 63.9657 80.7769 63.9909C80.3334 63.9667 79.8899 64.0395 79.4773 64.2042C79.2682 64.2993 79.0935 64.4564 78.9768 64.6543C78.8602 64.8522 78.8074 65.0813 78.8255 65.3102V65.7566V66.2425C78.8255 67.0325 78.9678 67.6764 79.817 67.6764C80.5095 67.59 81.1602 67.2983 81.6855 66.839V66.8469ZM79.6314 61.5339C80.1884 61.0915 80.615 60.5226 80.615 59.9972C80.635 59.7724 80.5864 59.5468 80.4757 59.3501C80.365 59.1534 80.1974 58.9948 79.9948 58.8952C79.5927 58.7277 79.1576 58.6548 78.7228 58.6819C78.2809 58.6568 77.8388 58.7282 77.4272 58.8912C77.2173 58.9853 77.0419 59.1423 76.9252 59.3404C76.8084 59.5386 76.7561 59.7681 76.7754 59.9972V60.4436V60.9295C76.7754 61.7195 76.9137 62.3674 77.7629 62.3674C78.4557 62.2793 79.1063 61.9864 79.6314 61.526V61.5339Z" stroke="#5FD1BE" stroke-width="0.45" stroke-linecap="round" stroke-linejoin="round"/>
<path d="M90.032 53.7283C90.2018 54.3721 90.032 55.3873 89.2972 56.6475C89.0128 57.1412 88.5072 57.2795 87.9937 57.4375C87.2654 57.5645 86.6037 57.94 86.1213 58.5001C86.0423 58.0583 86.0224 57.608 86.062 57.161C86.1288 56.4589 86.3471 55.7796 86.702 55.1701C87.4327 53.91 88.2188 53.2543 88.8627 53.0805H88.8864C88.969 53.0574 89.0537 53.0428 89.1392 53.037C89.3007 53.0567 89.4562 53.1102 89.5957 53.1939C89.7352 53.2776 89.8556 53.3897 89.949 53.5229C89.949 53.5229 89.949 53.5229 89.949 53.5229C89.9781 53.5853 90.0019 53.65 90.0201 53.7164C90.0237 53.7207 90.0277 53.7247 90.032 53.7283V53.7283Z" stroke="#5FD1BE" stroke-width="0.45" stroke-linecap="round" stroke-linejoin="round"/>
<path d="M88.4047 66.44C88.4047 66.9535 87.9741 67.5263 87.425 67.9687C86.8911 68.4339 86.2285 68.7259 85.525 68.8062C84.6757 68.8062 84.5375 68.1425 84.5375 67.3722V66.8903V66.4518C84.5185 66.2212 84.5714 65.9904 84.6888 65.7909C84.8061 65.5915 84.9823 65.4333 85.1932 65.3379C85.6048 65.1749 86.0469 65.1035 86.4888 65.1285C86.9236 65.1012 87.3588 65.1741 87.7608 65.3418C87.9667 65.4381 88.1386 65.5946 88.2536 65.7907C88.3686 65.9869 88.4213 66.2133 88.4047 66.44Z" stroke="#5FD1BE" stroke-width="0.45" stroke-linecap="round" stroke-linejoin="round"/>
<path d="M82.7518 54.9725C82.7518 55.494 82.3212 56.0628 81.7721 56.5052C81.2382 56.9703 80.5756 57.2624 79.8721 57.3426C79.0228 57.3426 78.8846 56.679 78.8846 55.9087V55.4268V54.9725C78.8665 54.7425 78.9197 54.5126 79.0371 54.3139C79.1544 54.1153 79.3301 53.9577 79.5403 53.8625C79.9516 53.6982 80.3937 53.6254 80.8359 53.6492C81.2706 53.6238 81.7053 53.6967 82.1079 53.8625C82.3148 53.9608 82.4871 54.1195 82.602 54.3177C82.7169 54.5158 82.7692 54.7441 82.7518 54.9725V54.9725Z" stroke="#5FD1BE" stroke-width="0.45" stroke-linecap="round" stroke-linejoin="round"/>
<path d="M82.6652 65.3022C82.6652 65.8236 82.2425 66.3924 81.6855 66.8388C81.1522 67.3018 80.4911 67.5924 79.7894 67.6723C78.9401 67.6723 78.7979 67.0126 78.7979 66.2384V65.7525V65.3061C78.7798 65.0771 78.8326 64.8481 78.9492 64.6502C79.0658 64.4523 79.2406 64.2951 79.4497 64.2001C79.8623 64.0354 80.3058 63.9626 80.7493 63.9868C81.1839 63.9616 81.6186 64.0345 82.0213 64.2001C82.2282 64.2961 82.4009 64.4532 82.516 64.6502C82.6311 64.8472 82.6831 65.0747 82.6652 65.3022V65.3022Z" stroke="#5FD1BE" stroke-width="0.45" stroke-linecap="round" stroke-linejoin="round"/>
<path d="M80.6148 59.9892C80.6148 60.5146 80.1882 61.0834 79.6312 61.5258C79.0981 61.9898 78.4371 62.2817 77.7351 62.3633C76.8858 62.3633 76.7476 61.7036 76.7476 60.9254V60.4395V59.9932C76.7283 59.764 76.7806 59.5345 76.8973 59.3363C77.0141 59.1382 77.1895 58.9812 77.3994 58.8871C77.8109 58.7241 78.2531 58.6527 78.695 58.6778C79.1297 58.6507 79.5649 58.7236 79.967 58.8911C80.174 58.9863 80.347 59.1425 80.4628 59.3387C80.5786 59.535 80.6316 59.762 80.6148 59.9892V59.9892Z" stroke="#5FD1BE" stroke-width="0.45" stroke-linecap="round" stroke-linejoin="round"/>
<path d="M78.7227 58.6739C79.1574 58.6468 79.5925 58.7198 79.9946 58.8872C80.1972 58.9868 80.3648 59.1454 80.4755 59.3421C80.5862 59.5389 80.6348 59.7645 80.6148 59.9893C80.6148 60.5147 80.1882 61.0835 79.6312 61.5259C79.0981 61.9899 78.4371 62.2819 77.7351 62.3634C76.8858 62.3634 76.7476 61.7037 76.7476 60.9255V60.4396V59.9933C76.7283 59.7641 76.7806 59.5346 76.8973 59.3364C77.0141 59.1383 77.1895 58.9813 77.3994 58.8872C77.8192 58.7188 78.2712 58.646 78.7227 58.6739Z" stroke="#5FD1BE" stroke-width="0.45" stroke-linecap="round" stroke-linejoin="round"/>
<path d="M82.1119 53.8626C82.318 53.9615 82.4895 54.1204 82.6037 54.3185C82.7179 54.5166 82.7695 54.7446 82.7518 54.9726C82.7518 55.494 82.3212 56.0629 81.7721 56.5053C81.2382 56.9704 80.5756 57.2624 79.8721 57.3427C79.0228 57.3427 78.8846 56.6791 78.8846 55.9088V55.4269V54.9726C78.8665 54.7426 78.9197 54.5127 79.0371 54.314C79.1544 54.1154 79.3301 53.9578 79.5403 53.8626C79.9516 53.6983 80.3937 53.6255 80.8359 53.6493C81.2719 53.6233 81.7081 53.6962 82.1119 53.8626Z" stroke="#5FD1BE" stroke-width="0.45" stroke-linecap="round" stroke-linejoin="round"/>
<path d="M80.777 63.983C81.2116 63.9578 81.6463 64.0307 82.0489 64.1963C82.2514 64.2967 82.4187 64.4562 82.5287 64.6536C82.6387 64.8511 82.6863 65.0773 82.6652 65.3023C82.6652 65.8237 82.2425 66.3926 81.6855 66.8389C81.1522 67.3019 80.4911 67.5925 79.7894 67.6724C78.9401 67.6724 78.7979 67.0127 78.7979 66.2385V65.7526V65.3063C78.7798 65.0773 78.8326 64.8482 78.9492 64.6503C79.0658 64.4524 79.2406 64.2953 79.4497 64.2002C79.8705 64.0302 80.3239 63.956 80.777 63.983Z" stroke="#5FD1BE" stroke-width="0.45" stroke-linecap="round" stroke-linejoin="round"/>
<path d="M86.5125 65.1166C86.9473 65.0892 87.3825 65.1622 87.7845 65.3299C87.988 65.4304 88.1563 65.5904 88.267 65.7885C88.3778 65.9867 88.4258 66.2139 88.4047 66.4399C88.4047 66.9534 87.9741 67.5262 87.425 67.9686C86.8911 68.4338 86.2285 68.7258 85.525 68.8061C84.6757 68.8061 84.5375 68.1424 84.5375 67.3721V66.8902V66.4517C84.5185 66.2211 84.5714 65.9903 84.6888 65.7908C84.8061 65.5914 84.9823 65.4332 85.1932 65.3378C85.6112 65.1673 86.0618 65.0918 86.5125 65.1166Z" stroke="#5FD1BE" stroke-width="0.45" stroke-linecap="round" stroke-linejoin="round"/>
<path d="M89.8623 50.4299C88.9242 50.2774 87.9763 50.1929 87.026 50.1771C86.4928 50.1771 85.9832 50.1534 85.5368 50.1218C84.742 50.0831 83.9557 49.9397 83.1983 49.6952C82.8902 49.6004 82.5426 49.4977 82.0607 49.3871L81.7328 49.3278C80.0974 49.0395 78.2566 50.5366 76.9926 51.5755C74.0932 53.9456 74.0537 55.2847 74.0063 57.1057C74.0121 58.3075 73.8499 59.5041 73.5243 60.6609C73.0424 62.3239 72.9318 63.5406 73.2873 64.6111C73.6428 65.6816 74.4724 66.5861 75.8668 67.704C76.64 68.3222 77.3626 69.0011 78.0275 69.7344C79.5523 71.3145 80.9783 72.8156 83.5578 72.6299C84.6611 72.4026 85.7424 72.0788 86.789 71.6621L86.9273 71.6108C87.9196 71.283 88.9557 71.1073 90.0005 71.0894C90.938 71.0908 91.8676 70.9181 92.7419 70.5798C93.612 70.0704 94.2969 69.2969 94.6973 68.3716C95.1206 67.4097 95.4423 66.4062 95.6572 65.3774L95.8468 64.5874C96.4867 61.9566 96.6605 61.2455 95.2069 58.4606V58.433C94.6675 57.3369 94.2693 56.1768 94.0218 54.9805C93.842 54.1101 93.5774 53.2594 93.2318 52.4406C93.1073 52.1692 92.9436 51.9177 92.7459 51.694C92.6234 51.5597 92.1692 51.1528 92.0309 51.0422" stroke="#5FD1BE" stroke-width="0.45" stroke-linecap="round" stroke-linejoin="round"/>
<path d="M89.1353 53.0133C89.0497 53.0191 88.965 53.0337 88.8825 53.0568H88.8588C88.2149 53.2306 87.4288 53.8863 86.698 55.1464C86.3424 55.761 86.1253 56.4459 86.062 57.1531C86.0224 57.6001 86.0423 58.0504 86.1213 58.4922C86.6037 57.9321 87.2654 57.5566 87.9937 57.4296C88.523 57.2755 89.0128 57.1373 89.2972 56.6396C90.028 55.3795 90.2018 54.3643 90.032 53.7204C90.0307 53.7112 90.0307 53.7019 90.032 53.6927C90.0137 53.6264 89.9899 53.5616 89.9609 53.4992" stroke="#5FD1BE" stroke-width="0.45" stroke-linecap="round" stroke-linejoin="round"/>
</svg>
