<svg width="80" height="74" viewBox="0 0 80 74" fill="none" xmlns="http://www.w3.org/2000/svg">
<path d="M39.5802 40.2271C39.4791 40.229 39.3793 40.2049 39.2902 40.1571L0.350159 20.6971C0.245778 20.6404 0.158628 20.5566 0.0979004 20.4546C0.037173 20.3525 0.00512695 20.2359 0.00512695 20.1171C0.00512695 19.9983 0.037173 19.8818 0.0979004 19.7797C0.158628 19.6776 0.245778 19.5938 0.350159 19.5371L39.2902 0.0671387C39.3805 0.0229721 39.4797 0 39.5802 0C39.6807 0 39.7799 0.0229721 39.8701 0.0671387L78.8001 19.5371C78.9074 19.5914 78.9975 19.6743 79.0605 19.7767C79.1234 19.8791 79.1568 19.9969 79.1568 20.1171C79.1568 20.2373 79.1234 20.3552 79.0605 20.4576C78.9975 20.5599 78.9074 20.6429 78.8001 20.6971L39.8701 40.1571C39.7811 40.2049 39.6812 40.229 39.5802 40.2271V40.2271ZM2.06018 20.1171L39.5802 38.8571L77.0602 20.1171L39.5802 1.37714L2.06018 20.1171Z" fill="#181A1E"/>
<path d="M39.5801 57.0172C39.4797 57.0141 39.381 56.9903 39.2901 56.9472L0.350112 37.4772C0.242559 37.4213 0.152805 37.3364 0.0909565 37.2321C0.0291083 37.1279 -0.00234443 37.0084 0.000136177 36.8872C-0.000711792 36.7664 0.032622 36.6479 0.0963276 36.5452C0.160033 36.4426 0.251494 36.3601 0.360122 36.3072L17.1401 27.9272C17.2304 27.883 17.3296 27.8601 17.4301 27.8601C17.5306 27.8601 17.6298 27.883 17.7201 27.9272L39.5801 38.8572L61.4401 27.9272C61.5304 27.883 61.6296 27.8601 61.7301 27.8601C61.8307 27.8601 61.9298 27.883 62.0201 27.9272L78.8001 36.3072C78.907 36.363 78.9965 36.4471 79.059 36.5502C79.1215 36.6534 79.1545 36.7716 79.1545 36.8922C79.1545 37.0128 79.1215 37.1311 79.059 37.2342C78.9965 37.3374 78.907 37.4214 78.8001 37.4772L39.8701 56.9472C39.7793 56.9903 39.6806 57.0141 39.5801 57.0172V57.0172ZM2.10011 36.8872L39.5801 55.6172L77.0601 36.8672L61.7301 29.2172L39.8701 40.1372C39.7813 40.1862 39.6816 40.2119 39.5801 40.2119C39.4787 40.2119 39.3789 40.1862 39.2901 40.1372L17.4301 29.2172L2.10011 36.8872Z" fill="#181A1E"/>
<path d="M39.5801 73.7872C39.479 73.7891 39.3792 73.765 39.2901 73.7172L0.350045 54.2572C0.244024 54.2021 0.155262 54.1187 0.0935145 54.0164C0.0317674 53.9141 -0.00054946 53.7967 6.9667e-05 53.6772C-0.00169642 53.5575 0.030147 53.4397 0.0920191 53.3371C0.153891 53.2346 0.243285 53.1515 0.350045 53.0972L17.13 44.6972C17.2221 44.6529 17.3229 44.6299 17.4251 44.6299C17.5272 44.6299 17.628 44.6529 17.7201 44.6972L39.5801 55.6172L61.44 44.6772C61.5303 44.633 61.6296 44.6101 61.7301 44.6101C61.8306 44.6101 61.9298 44.633 62.0201 44.6772L78.8 53.0772C78.9087 53.1301 79.0001 53.2126 79.0638 53.3152C79.1275 53.4179 79.1609 53.5364 79.1601 53.6572C79.1586 53.7775 79.1243 53.8952 79.0609 53.9974C78.9974 54.0996 78.9072 54.1825 78.8 54.2372L39.8301 73.7172C39.753 73.7588 39.6676 73.7827 39.5801 73.7872V73.7872ZM2.10005 53.6772L39.5801 72.4072L77.06 53.6772L61.7301 46.0072L39.87 56.9472C39.7797 56.9914 39.6806 57.0143 39.5801 57.0143C39.4795 57.0143 39.3804 56.9914 39.2901 56.9472L17.4301 46.0072L2.10005 53.6772Z" fill="#181A1E"/>
<path d="M10.58 25.5273C10.4332 25.5288 10.2903 25.4806 10.1745 25.3906C10.0586 25.3005 9.97662 25.1739 9.94185 25.0314C9.90708 24.8888 9.92157 24.7387 9.98296 24.6054C10.0444 24.4721 10.149 24.3635 10.28 24.2973L47.71 4.29731C47.7855 4.25725 47.8681 4.23248 47.9532 4.22437C48.0383 4.21626 48.1242 4.22499 48.2059 4.25007C48.2876 4.27514 48.3636 4.31605 48.4295 4.37049C48.4954 4.42492 48.5499 4.49182 48.59 4.56733C48.63 4.64284 48.6548 4.72549 48.6629 4.81058C48.671 4.89567 48.6623 4.98152 48.6372 5.06324C48.6122 5.14495 48.5712 5.22094 48.5168 5.28684C48.4624 5.35274 48.3955 5.40725 48.32 5.4473L10.89 25.4473C10.7945 25.4983 10.6882 25.5257 10.58 25.5273V25.5273Z" fill="#181A1E"/>
<path d="M20.0401 30.4171C19.8969 30.4144 19.7585 30.3645 19.6466 30.275C19.5346 30.1856 19.4554 30.0616 19.4211 29.9225C19.3869 29.7833 19.3997 29.6367 19.4573 29.5056C19.515 29.3744 19.6145 29.2659 19.7401 29.1971L57.5801 9.50714C57.7343 9.42945 57.9128 9.41525 58.0773 9.46759C58.2418 9.51993 58.3792 9.63465 58.4602 9.78714C58.4997 9.86247 58.5239 9.94493 58.5313 10.0297C58.5386 10.1145 58.5289 10.1999 58.5028 10.2809C58.4767 10.3619 58.4348 10.4369 58.3794 10.5015C58.324 10.5661 58.2562 10.619 58.1801 10.6571L20.3201 30.3471C20.2331 30.3908 20.1375 30.4147 20.0401 30.4171V30.4171Z" fill="#181A1E"/>
<path d="M29.5801 34.8474C29.4598 34.8459 29.3421 34.8116 29.2399 34.7481C29.1377 34.6847 29.0547 34.5945 29 34.4873C28.9236 34.3334 28.9112 34.1555 28.9655 33.9925C29.0198 33.8295 29.1366 33.6946 29.2901 33.6173L67.7701 14.3273C67.922 14.264 68.0924 14.2607 68.2467 14.3181C68.401 14.3756 68.5278 14.4894 68.6014 14.6367C68.6751 14.7839 68.6901 14.9536 68.6434 15.1115C68.5968 15.2694 68.4919 15.4037 68.3501 15.4873L29.87 34.7773C29.7792 34.8204 29.6805 34.8442 29.5801 34.8474V34.8474Z" fill="#181A1E"/>
</svg>
