<svg width="79" height="80" viewBox="0 0 79 80" fill="none" xmlns="http://www.w3.org/2000/svg">
<path d="M47.2401 31.86C48.6237 30.8999 49.8116 29.6849 50.7401 28.28L70.2301 35.52V35.8L44.6201 45.46V41.93H47.2301V31.86H47.2401Z" stroke="#5FD1BE" stroke-width="1.3" stroke-linecap="round" stroke-linejoin="round"/>
<path d="M44.6301 41.9202H34.8601V41.9302H44.6301V41.9202Z" stroke="#5FD1BE" stroke-width="1.3" stroke-linecap="round" stroke-linejoin="round"/>
<path d="M70.2399 66.7201L39.6799 78.8102L39.3999 53.9101L42.9699 53.9001L48.1199 63.0401L70.2399 54.1501V66.7201Z" stroke="#5FD1BE" stroke-width="1.3" stroke-linecap="round" stroke-linejoin="round"/>
<path d="M30.0799 63.0402L35.5499 53.9302L39.3999 53.9102L39.6799 78.8102L8.41992 66.7202V54.2702L30.0799 63.0402Z" stroke="#5FD1BE" stroke-width="1.3" stroke-linecap="round" stroke-linejoin="round"/>
<path d="M39.4 47.5801L42.97 53.9001L39.4 53.9101L35.55 53.9301L39.33 47.6201L39.4 47.5801Z" stroke="#5FD1BE" stroke-width="1.3" stroke-linecap="round" stroke-linejoin="round"/>
<path d="M34.86 41.9302H44.63V45.4602L39.33 47.4602L39.4 47.5802L39.33 47.6202L34.71 45.8602L34.86 45.4702V41.9302Z" stroke="#5FD1BE" stroke-width="1.3" stroke-linecap="round" stroke-linejoin="round"/>
<path d="M47.24 38.8201H32.25V36.3101H39.15H40.34H47.24V38.8201Z" stroke="#5FD1BE" stroke-width="1.3" stroke-linecap="round" stroke-linejoin="round"/>
<path d="M45.0099 24.2402L42.2899 24.5902L39.6599 20.3402L37.0999 24.5802L34.4699 24.2102L39.1699 36.3102H32.2699V31.8602C30.1419 30.385 28.4963 28.3148 27.5393 25.9088C26.5822 23.5028 26.3563 20.868 26.8896 18.3342C27.4229 15.8003 28.6919 13.4802 30.5376 11.6641C32.3833 9.84811 34.7237 8.61692 37.2658 8.12472C39.808 7.63252 42.4388 7.90119 44.829 8.89709C47.2191 9.89299 49.2623 11.5719 50.7029 13.7235C52.1434 15.8751 52.9172 18.4039 52.9273 20.9932C52.9375 23.5825 52.1835 26.1173 50.7599 28.2802C49.8314 29.6851 48.6435 30.9001 47.2599 31.8602V36.3102H40.3599L45.0099 24.2402Z" stroke="#5FD1BE" stroke-width="1.3" stroke-linecap="round" stroke-linejoin="round"/>
<path d="M37.09 24.6001L39.65 20.3401L42.29 24.5801L45.0099 24.2301L40.34 36.3101H39.15L34.47 24.2301L37.09 24.6001Z" stroke="#5FD1BE" stroke-width="1.3" stroke-linecap="round" stroke-linejoin="round"/>
<path d="M32.25 38.8201H47.24V41.9301H44.63V41.9201H34.86V41.9301H32.25V38.8201Z" stroke="#5FD1BE" stroke-width="1.3" stroke-linecap="round" stroke-linejoin="round"/>
<path d="M34.86 41.93V45.47L34.72 45.86L8.42004 35.8L8.30005 35.47L28.5701 28.01C29.5168 29.5312 30.7659 30.8416 32.2401 31.86V41.93H34.86Z" stroke="#5FD1BE" stroke-width="1.3" stroke-linecap="round" stroke-linejoin="round"/>
<path d="M8.41992 54.2701V66.7201L39.6799 78.8102L70.2399 66.7201V54.1501" stroke="#5FD1BE" stroke-width="1.3" stroke-linecap="round" stroke-linejoin="round"/>
<path d="M8.42001 35.8L34.71 45.86L39.33 47.6201L35.55 53.9301L30.08 63.0401L8.42001 54.2701L1 51.2701L8.42001 35.8Z" stroke="#5FD1BE" stroke-width="1.3" stroke-linecap="round" stroke-linejoin="round"/>
<path d="M70.2401 35.8L44.6301 45.4601L39.3301 47.4601L39.4001 47.58L42.9701 53.9001L48.1201 63.0401L70.2401 54.1501L77.4001 51.2701L70.2401 35.8Z" stroke="#5FD1BE" stroke-width="1.3" stroke-linecap="round" stroke-linejoin="round"/>
<path d="M8.26001 35.48L8.29004 35.47L28.5601 28.01" stroke="#5FD1BE" stroke-width="1.3" stroke-linecap="round" stroke-linejoin="round"/>
<path d="M50.73 28.28L70.23 35.52" stroke="#5FD1BE" stroke-width="1.3" stroke-linecap="round" stroke-linejoin="round"/>
<path d="M50.7401 28.2802C49.8116 29.6851 48.6237 30.9001 47.2401 31.8602V41.9302H32.2401V31.8602C30.1121 30.385 28.4666 28.3148 27.5095 25.9088C26.5525 23.5028 26.3265 20.868 26.8598 18.3342C27.3931 15.8003 28.6621 13.4802 30.5078 11.6641C32.3535 9.84811 34.694 8.61692 37.2361 8.12472C39.7782 7.63252 42.4091 7.90119 44.7992 8.89709C47.1894 9.89299 49.2326 11.5719 50.6731 13.7235C52.1136 15.8751 52.8874 18.4039 52.8975 20.9932C52.9077 23.5825 52.1537 26.1173 50.7301 28.2802H50.7401Z" stroke="#5FD1BE" stroke-width="1.3" stroke-linecap="round" stroke-linejoin="round"/>
<path d="M40.3401 36.3101H47.2401H49.1601" stroke="#5FD1BE" stroke-width="1.3" stroke-linecap="round" stroke-linejoin="round"/>
<path d="M30.3201 36.3101H32.2501H39.15" stroke="#5FD1BE" stroke-width="1.3" stroke-linecap="round" stroke-linejoin="round"/>
<path d="M30.3201 38.8201H32.2501H47.2401H49.16" stroke="#5FD1BE" stroke-width="1.3" stroke-linecap="round" stroke-linejoin="round"/>
<path d="M34.8601 45.4702V41.9302V41.9202H44.6301V41.9302V45.4602V45.4702" stroke="#5FD1BE" stroke-width="1.3" stroke-linecap="round" stroke-linejoin="round"/>
<path d="M39.04 1V5.26001" stroke="#5FD1BE" stroke-width="1.3" stroke-linecap="round" stroke-linejoin="round"/>
<path d="M45.2499 1.63013L44.1399 5.75012" stroke="#5FD1BE" stroke-width="1.3" stroke-linecap="round" stroke-linejoin="round"/>
<path d="M51.08 3.8501L48.95 7.5401" stroke="#5FD1BE" stroke-width="1.3" stroke-linecap="round" stroke-linejoin="round"/>
<path d="M56.1401 7.5L53.1301 10.52" stroke="#5FD1BE" stroke-width="1.3" stroke-linecap="round" stroke-linejoin="round"/>
<path d="M22.3501 8.48999L25.3601 11.51" stroke="#5FD1BE" stroke-width="1.3" stroke-linecap="round" stroke-linejoin="round"/>
<path d="M27.1899 4.55005L29.3099 8.25005" stroke="#5FD1BE" stroke-width="1.3" stroke-linecap="round" stroke-linejoin="round"/>
<path d="M32.8801 1.98999L33.9801 6.10999" stroke="#5FD1BE" stroke-width="1.3" stroke-linecap="round" stroke-linejoin="round"/>
<path d="M39.15 36.3101L34.47 24.2301L37.09 24.6001L39.65 20.3401L42.29 24.5801L45.0099 24.2301L40.34 36.3101H39.15Z" stroke="#5FD1BE" stroke-width="1.3" stroke-linecap="round" stroke-linejoin="round"/>
<path d="M39.3301 48.0601L39.4001 53.91L39.6801 78.8101" stroke="#5FD1BE" stroke-width="1.3" stroke-linecap="round" stroke-linejoin="round"/>
</svg>
